<svg id="Layer_4" data-name="Layer 4" xmlns="http://www.w3.org/2000/svg" viewBox="0 0 1294.44 929.95">
  <title>1</title>
  <rect width="1294.44" height="929.95" rx="12" ry="12" fill="#fafdff"/>
  <path d="M453.38,630.39h775a59,59,0,0,1,59,59v0a59,59,0,0,1-59,59h-775a0,0,0,0,1,0,0v-118A0,0,0,0,1,453.38,630.39Z" fill="#f0faff"/>
  <rect x="100.49" y="728.9" width="570.05" height="98.48" rx="49.24" ry="49.24" fill="#f0faff"/>
  <g>
    <polygon points="503.38 639.39 1023.38 639.39 1023.38 539.39 502.38 539.39 503.38 639.39" fill="#0a728e"/>
    <polygon points="1056.04 747.3 1023.38 639.39 1023.38 511.39 1064.38 539.05 1064.38 747.39 1056.04 747.3" fill="#1c81a5"/>
    <polygon points="470.71 747.3 503.38 639.39 503.38 511.39 462.38 539.05 462.38 747.39 470.71 747.3" fill="#1c81a5"/>
    <rect x="1056.71" y="531.39" width="16" height="216" fill="#3191bc"/>
    <rect x="453.38" y="531.39" width="16" height="216" fill="#3191bc"/>
    <path d="M1241,623h-6.37l-53.83-98.08a13.34,13.34,0,0,0-11.7-6.92H642.68a13.34,13.34,0,0,0-12.2,7.93L587.42,623h-5.26l0.07,13.28A13.36,13.36,0,0,0,595.52,651h631.94a13.35,13.35,0,0,0,13.29-12H1241V623Z" transform="translate(-148.62 -106.61)" fill="#54a1cc"/>
    <path d="M1227.45,636H595.52a13.34,13.34,0,0,1-12.2-18.75l47.16-106.31a13.34,13.34,0,0,1,12.2-7.93H1169.1a13.34,13.34,0,0,1,11.7,6.92l58.35,106.31A13.34,13.34,0,0,1,1227.45,636Z" transform="translate(-148.62 -106.61)" fill="#81c3ef"/>
  </g>
  <rect x="705.38" y="418.05" width="269" height="39.33" rx="19.67" ry="19.67" fill="#66afd8"/>
  <g>
    <path d="M985.16,623.5H828.72c-4.51,0-7.57-3.13-6.83-7l7.25-37.85a8.91,8.91,0,0,1,8.39-7h135.1a9.77,9.77,0,0,1,8.9,7l10,37.85C992.51,620.37,989.68,623.5,985.16,623.5Z" transform="translate(-148.62 -106.61)" fill="#373a3a"/>
    <path d="M984.52,620.84H829.17c-4.48,0-7.51-3.13-6.77-7L829.65,576a8.88,8.88,0,0,1,8.34-7H972a9.73,9.73,0,0,1,8.84,7l10,37.85C991.81,617.71,989,620.84,984.52,620.84Z" transform="translate(-148.62 -106.61)" fill="#444849"/>
    <polygon points="695.25 478.18 685.73 478.18 687.3 469.1 696.57 469.1 695.25 478.18" fill="#6f7475"/>
    <polygon points="710.12 478.18 700.6 478.18 701.77 469.1 711.04 469.1 710.12 478.18" fill="#6f7475"/>
    <polygon points="724.99 478.18 715.46 478.18 716.24 469.1 725.51 469.1 724.99 478.18" fill="#6f7475"/>
    <polygon points="739.86 478.18 730.33 478.18 730.71 469.1 739.99 469.1 739.86 478.18" fill="#6f7475"/>
    <polygon points="754.72 478.18 745.2 478.18 745.19 469.1 754.46 469.1 754.72 478.18" fill="#6f7475"/>
    <polygon points="769.59 478.18 760.07 478.18 759.66 469.1 768.93 469.1 769.59 478.18" fill="#6f7475"/>
    <polygon points="784.46 478.18 774.93 478.18 774.13 469.1 783.4 469.1 784.46 478.18" fill="#6f7475"/>
    <polygon points="799.33 478.18 789.8 478.18 788.6 469.1 797.87 469.1 799.33 478.18" fill="#6f7475"/>
    <polygon points="814.2 478.18 804.67 478.18 803.08 469.1 812.35 469.1 814.2 478.18" fill="#6f7475"/>
    <polygon points="830.38 483.48 820.7 483.48 817.55 469.1 826.82 469.1 830.38 483.48" fill="#6f7475"/>
    <polygon points="693.33 491.47 683.43 491.47 685 482.39 694.64 482.39 693.33 491.47" fill="#6f7475"/>
    <polygon points="708.77 491.47 698.88 491.47 700.05 482.39 709.69 482.39 708.77 491.47" fill="#6f7475"/>
    <polygon points="724.22 491.47 714.33 491.47 715.1 482.39 724.75 482.39 724.22 491.47" fill="#6f7475"/>
    <polygon points="739.67 491.47 729.77 491.47 730.15 482.39 739.8 482.39 739.67 491.47" fill="#6f7475"/>
    <polygon points="755.12 491.47 745.22 491.47 745.21 482.39 754.85 482.39 755.12 491.47" fill="#6f7475"/>
    <polygon points="770.56 491.47 760.67 491.47 760.26 482.39 769.9 482.39 770.56 491.47" fill="#6f7475"/>
    <polygon points="786.01 491.47 776.11 491.47 775.31 482.39 784.95 482.39 786.01 491.47" fill="#6f7475"/>
    <polygon points="801.46 491.47 791.56 491.47 790.36 482.39 800 482.39 801.46 491.47" fill="#6f7475"/>
    <polygon points="824.39 491.47 807.01 491.47 805.41 482.39 822.35 482.39 824.39 491.47" fill="#6f7475"/>
    <polygon points="832.35 491.47 822.45 491.47 820.46 482.39 830.1 482.39 832.35 491.47" fill="#6f7475"/>
    <polygon points="691.4 504.77 681.13 504.77 682.7 495.68 692.72 495.68 691.4 504.77" fill="#6f7475"/>
    <polygon points="707.43 504.77 697.16 504.77 698.33 495.68 708.35 495.68 707.43 504.77" fill="#6f7475"/>
    <polygon points="723.45 504.77 713.19 504.77 713.96 495.68 723.98 495.68 723.45 504.77" fill="#6f7475"/>
    <polygon points="787.56 504.77 729.21 504.77 729.6 495.68 786.5 495.68 787.56 504.77" fill="#6f7475"/>
    <polygon points="803.58 504.77 793.32 504.77 792.12 495.68 802.13 495.68 803.58 504.77" fill="#6f7475"/>
    <polygon points="819.61 504.77 809.34 504.77 807.75 495.68 817.76 495.68 819.61 504.77" fill="#6f7475"/>
    <polygon points="835.64 504.77 825.37 504.77 823.38 495.68 833.39 495.68 835.64 504.77" fill="#6f7475"/>
  </g>
  <g>
    <path d="M1058.16,618.21l-4.24.81c-8.09,1.54-17.34-3.41-20.57-11l-8.09-19.71c-3-7.64.51-15.08,7.86-16.62l3.85-.81c7.27-1.54,16,3.41,19.51,11l9.38,19.71C1069.58,609.23,1066.18,616.67,1058.16,618.21Z" transform="translate(-148.62 -106.61)" fill="#444849"/>
    <polygon points="897.4 482.68 891.51 483.87 885.45 469.65 891.17 468.46 897.4 482.68" fill="#6f7475"/>
  </g>
  <g>
    <rect x="206.99" y="567.57" width="37.5" height="72" fill="#237ca3"/>
    <rect x="206.99" y="678.57" width="37.5" height="72" fill="#237ca3"/>
    <path d="M198.38,372.16h54.71A70.89,70.89,0,0,1,324,443V558.14a45.43,45.43,0,0,1-45.43,45.43H172.92a45.43,45.43,0,0,1-45.43-45.43V443A70.89,70.89,0,0,1,198.38,372.16Z" fill="#54a1cc"/>
    <rect x="127.49" y="639.57" width="196.49" height="48.23" rx="18.32" ry="18.32" fill="#54a1cc"/>
    <rect x="127.49" y="750.57" width="196.49" height="18.19" rx="4.96" ry="4.96" fill="#237ca3"/>
    <circle cx="143.92" cy="790.19" r="16.43" fill="#146582"/>
    <circle cx="307.55" cy="790.19" r="16.43" fill="#146582"/>
    <rect x="213.87" y="773.76" width="23.11" height="32.86" rx="11.06" ry="11.06" fill="#146582"/>
    <rect x="203.07" y="735.57" width="45.33" height="10.67" rx="5.33" ry="5.33" fill="#146582"/>
    <rect x="203.07" y="716.57" width="45.33" height="10.67" rx="5.33" ry="5.33" fill="#146582"/>
    <rect x="203.07" y="697.57" width="45.33" height="10.67" rx="5.33" ry="5.33" fill="#146582"/>
    <rect x="137.59" y="639.57" width="176.3" height="36.65" rx="18.32" ry="18.32" fill="#4698bc"/>
  </g>
  <rect x="635.3" y="550.99" width="15.99" height="45.09" rx="7.24" ry="7.24" transform="translate(496.8 -394.92) rotate(48.42)" fill="#0a728e"/>
  <rect x="653.5" y="551.35" width="18.53" height="9.81" rx="4.45" ry="4.45" transform="translate(490.43 -415.29) rotate(48.42)" fill="#0a728e"/>
  <rect x="683.82" y="507.44" width="3.68" height="58.07" rx="1.67" ry="1.67" transform="translate(483.33 -439.07) rotate(48.42)" fill="#ccdadd"/>
  <polyline points="564.39 403.24 553.08 409.75 558.98 416.41 567.08 406.2" fill="#ccdadd"/>
  <rect x="635.3" y="550.99" width="15.99" height="45.09" rx="7.24" ry="7.24" transform="translate(496.8 -394.92) rotate(48.42)" fill="#0a728e"/>
  <rect x="653.5" y="551.35" width="18.53" height="9.81" rx="4.45" ry="4.45" transform="translate(490.43 -415.29) rotate(48.42)" fill="#0a728e"/>
  <rect x="683.82" y="507.44" width="3.68" height="58.07" rx="1.67" ry="1.67" transform="translate(483.33 -439.07) rotate(48.42)" fill="#ccdadd"/>
  <polyline points="564.39 403.24 553.08 409.75 558.98 416.41 567.08 406.2" fill="#ccdadd"/>
  <rect x="687.15" y="576.2" width="15.99" height="45.09" rx="7.24" ry="7.24" transform="translate(304.13 -392.72) rotate(33.94)" fill="#0a728e"/>
  <rect x="700.41" y="572.25" width="18.53" height="9.81" rx="4.45" ry="4.45" transform="translate(294.55 -404.51) rotate(33.94)" fill="#0a728e"/>
  <rect x="725.05" y="523.24" width="3.68" height="58.07" rx="1.67" ry="1.67" transform="translate(283.59 -418.36) rotate(33.94)" fill="#ccdadd"/>
  <g>
    <rect x="687.15" y="576.2" width="15.99" height="45.09" rx="7.24" ry="7.24" transform="translate(304.13 -392.72) rotate(33.94)" fill="#0d6a7f"/>
    <rect x="700.41" y="572.25" width="18.53" height="9.81" rx="4.45" ry="4.45" transform="translate(294.55 -404.51) rotate(33.94)" fill="#0d6a7f"/>
    <rect x="725.05" y="523.24" width="3.68" height="58.07" rx="1.67" ry="1.67" transform="translate(283.59 -418.36) rotate(33.94)" fill="#ccdadd"/>
    <polygon points="595.82 416.19 590.48 424.13 593.79 426.36 599.14 418.42 600.24 413.21 595.82 416.19" fill="#ccdadd"/>
  </g>
  <path d="M379.47,234h44.37a33.62,33.62,0,0,1,33.62,33.62V371.1a33.62,33.62,0,0,1-33.62,33.62H364.07a33.62,33.62,0,0,1-33.62-33.62V283a49,49,0,0,1,49-49Z" transform="translate(639.29 532.1) rotate(-180)" fill="#f7e6dd"/>
  <path d="M327.65,235.08a12.79,12.79,0,0,1,12.79-12.79L479.5,217.5l-1.8,26.11c0,16-15.82,27.79-31.85,27.79H363.9s-9.36-.58-10.52,21.93c-0.21,4.05-1.06,13.12-1.68,19.4l-0.2,2a5.1,5.1,0,0,1-5.08,4.59h-9.11a9.66,9.66,0,0,1-9.66-9.66V235.08Z" transform="translate(-148.62 -106.61)" fill="#333a3f"/>
  <rect x="319.37" y="309.11" width="24" height="38.89" rx="8.89" ry="8.89" transform="translate(514.11 550.5) rotate(-180)" fill="#dcbfb1"/>
  <path d="M640.06,910.56c13.63,13.93,28,16.62,34.89,17.05,1.43-.06,2.88-0.09,4.35-0.07,21.44,0.26,38.73,8.89,38.6,19.26s-17.61,18.58-39.06,18.31a68.18,68.18,0,0,1-24.24-4.35l-0.18,5.77-24.53,4.27-17.17-42.14S621.25,891.34,640.06,910.56Z" transform="translate(-148.62 -106.61)" fill="#24282b"/>
  <path d="M349.68,313.9" transform="translate(-148.62 -106.61)" fill="#c1a187"/>
  <path d="M354.16,342.94" transform="translate(-148.62 -106.61)" fill="#68513e"/>
  <path d="M434.67,305.81a7.9,7.9,0,0,1,8.19,8.19H426.48A7.9,7.9,0,0,1,434.67,305.81Z" transform="translate(-148.62 -106.61)" fill="#333a3f"/>
  <path d="M606.65,929.31c11.47,15.76,25.31,20.5,32.07,21.91,1.42,0.15,2.86.33,4.32,0.56,21.18,3.36,37,14.39,35.41,24.64s-20.11,15.84-41.29,12.48a68.18,68.18,0,0,1-23.36-7.8l-1,5.68-24.89.68L577,943.29S590.82,907.57,606.65,929.31Z" transform="translate(-148.62 -106.61)" fill="#333a3f"/>
  <polygon points="271.9 285.39 268.3 309.39 210.22 309.39 201.05 285.39 271.9 285.39" fill="#f7e6dd"/>
  <path d="M372.69,305.81a7.9,7.9,0,0,1,8.19,8.19H364.5A7.9,7.9,0,0,1,372.69,305.81Z" transform="translate(-148.62 -106.61)" fill="#333a3f"/>
  <rect x="394.17" y="305.61" width="18.73" height="48.59" rx="6.93" ry="6.93" transform="translate(658.45 553.2) rotate(-180)" fill="#dcbfb1"/>
  <rect x="394.48" y="331.98" width="22.11" height="22.22" rx="8.18" ry="8.18" transform="translate(662.44 579.57) rotate(-180)" fill="#dcbfb1"/>
  <rect x="292.69" y="408.86" width="188.88" height="301.21" rx="27.65" ry="27.65" transform="translate(625.63 1012.32) rotate(-180)" fill="#005faa"/>
  <rect x="483.6" y="393.07" width="59.43" height="212.06" rx="22" ry="22" transform="translate(1080.59 382.45) rotate(135)" fill="#005faa"/>
  <rect x="418.88" y="284.7" width="31.57" height="12.57" rx="4.65" ry="4.65" transform="translate(720.72 475.37) rotate(180)" fill="#333a3f"/>
  <rect x="356.9" y="284.7" width="31.57" height="12.57" rx="4.65" ry="4.65" transform="translate(596.76 475.37) rotate(180)" fill="#333a3f"/>
  <path d="M367.81,361.23c-0.63,3.82,6.61,8.2,16.17,9.77s17.82-.26,18.45-4.08" transform="translate(-148.62 -106.61)" fill="#dcbfb1"/>
  <path d="M347.38,580L293,563v54.56l38.9,12.15a12,12,0,0,0,14.95-7.89L355.23,595A12,12,0,0,0,347.38,580Z" transform="translate(-148.62 -106.61)" fill="#07578e"/>
  <rect x="244.12" y="402.09" width="59.43" height="212.06" rx="22" ry="22" transform="translate(67.54 975.84) rotate(-145.94)" fill="#005faa"/>
  <path d="M167.92,598.46H308.38a12,12,0,0,1,12,12v41.22a12,12,0,0,1-12,12H189.8a33.89,33.89,0,0,1-33.89-33.89V610.46A12,12,0,0,1,167.92,598.46Z" fill="#63b6db"/>
  <path d="M262,517.58h15.43a22,22,0,0,1,22,22V650.47a22,22,0,0,1-22,22H273.1A33.07,33.07,0,0,1,240,639.4V539.58A22,22,0,0,1,262,517.58Z" transform="translate(769.43 407.65) rotate(107.29)" fill="#005faa"/>
  <rect x="571.8" y="441.88" width="59.43" height="154.89" rx="22" ry="22" transform="translate(394.77 -379.84) rotate(45)" fill="#005faa"/>
  <rect x="632.58" y="442.94" width="41.85" height="51.52" rx="12" ry="12" transform="translate(635.56 1155.61) rotate(-135)" fill="#edd5ca"/>
  <circle cx="490.56" cy="361.78" r="14.97" fill="#edd5ca"/>
  <rect x="623.27" y="441.31" width="11.81" height="29.93" rx="4.37" ry="4.37" transform="translate(1109.72 805.94) rotate(-180)" fill="#edd5ca"/>
  <polygon points="273.95 292.47 277.9 310.86 243.08 326.22 238.87 302.25 273.95 292.47" fill="#094d7c"/>
  <polygon points="203.65 292.47 199.7 310.86 234.52 326.22 238.73 302.25 203.65 292.47" fill="#094d7c"/>
  <rect x="298.51" y="695.49" width="175.26" height="17.28" rx="6.4" ry="6.4" transform="translate(623.64 1301.65) rotate(180)" fill="#333a3f"/>
  <rect x="447.31" y="694.22" width="8.56" height="21.7" rx="2.33" ry="2.33" transform="translate(754.55 1303.53) rotate(180)" fill="#63b6db"/>
  <rect x="409.49" y="694.22" width="8.56" height="21.7" rx="2.33" ry="2.33" transform="translate(678.91 1303.53) rotate(180)" fill="#63b6db"/>
  <rect x="354.56" y="694.22" width="8.56" height="21.7" rx="2.33" ry="2.33" transform="translate(569.05 1303.53) rotate(180)" fill="#63b6db"/>
  <rect x="309.31" y="694.22" width="8.56" height="21.7" rx="2.33" ry="2.33" transform="translate(478.56 1303.53) rotate(180)" fill="#63b6db"/>
  <line x1="238.88" y1="325.39" x2="238.88" y2="588.39" fill="none" stroke="#005893" stroke-miterlimit="10" stroke-width="3"/>
  <circle cx="215.88" cy="354.25" r="4.57" fill="#005faa"/>
  <circle cx="215.88" cy="354.25" r="4.57" fill="none" stroke="#005893" stroke-miterlimit="10" stroke-width="3"/>
  <circle cx="215.88" cy="416.29" r="4.57" fill="none" stroke="#005893" stroke-miterlimit="10" stroke-width="3"/>
  <circle cx="215.88" cy="474.84" r="4.57" fill="none" stroke="#005893" stroke-miterlimit="10" stroke-width="3"/>
  <circle cx="215.88" cy="532.43" r="4.57" fill="none" stroke="#005893" stroke-miterlimit="10" stroke-width="3"/>
  <circle cx="483.23" cy="401.77" r="4.57" fill="none" stroke="#005893" stroke-miterlimit="10" stroke-width="3"/>
  <path d="M360.14,716.92S359,729,343.07,743.83C330.8,755.18,312.91,755,312.91,755" transform="translate(-148.62 -106.61)" fill="none" stroke="#4fa7c6" stroke-linecap="round" stroke-miterlimit="10" stroke-width="2"/>
  <polyline points="177.51 645.32 179.71 628.39 201.38 628.39" fill="none" stroke="#4fa7c6" stroke-linecap="round" stroke-miterlimit="10" stroke-width="2"/>
  <line x1="699.58" y1="845.05" x2="645.5" y2="844.72" fill="#63b6db"/>
  <rect x="371" y="694.51" width="31.07" height="19.25" rx="4.88" ry="4.88" transform="translate(624.43 1301.65) rotate(180)" fill="#e6e6e6"/>
  <path d="M402.43,220.16" transform="translate(-148.62 -106.61)" fill="#333a3f"/>
  <polygon points="200.02 684.92 360.42 684.52 459.98 823.53 503.31 803.67 407.44 628.26 320.93 612.37 200.02 684.92" fill="#44a0c1"/>
  <polygon points="187.8 663.68 346.38 687.8 423.52 840.39 469.38 827.39 401.44 639.39 318.38 610.46 187.8 663.68" fill="#63b6db"/>
  <g>
    <rect x="195.38" y="543.39" width="241" height="79.36" rx="12" ry="12" fill="#b2c4ce"/>
    <rect x="297.88" y="548.47" width="9" height="69.19" rx="4.5" ry="4.5" fill="#7e97a3"/>
    <rect x="314.88" y="548.47" width="9" height="69.19" rx="4.5" ry="4.5" fill="#7e97a3"/>
    <rect x="331.88" y="548.47" width="9" height="69.19" rx="4.5" ry="4.5" fill="#7e97a3"/>
    <rect x="351.27" y="549.33" width="7" height="51.33" rx="3.5" ry="3.5" fill="#7e97a3"/>
    <circle cx="244.88" cy="583.07" r="12.5" fill="#7e97a3"/>
    <rect x="415.38" y="548.47" width="9" height="69.19" rx="4.5" ry="4.5" fill="#7e97a3"/>
    <rect x="364.38" y="549.33" width="46" height="68.33" rx="12" ry="12" fill="none" stroke="#7e97a3" stroke-miterlimit="10" stroke-width="2"/>
    <line x1="376.38" y1="549.39" x2="376.38" y2="606.39" fill="none" stroke="#7e97a3" stroke-miterlimit="10" stroke-width="2"/>
  </g>
  <g>
    <rect x="317.11" y="603.44" width="41.85" height="51.52" rx="12" ry="12" transform="translate(-456.69 218.11) rotate(-36.52)" fill="#f7e6dd"/>
    <circle cx="340.45" cy="615.08" r="14.97" transform="translate(-466.72 754.5) rotate(-81.52)" fill="#f7e6dd"/>
    <rect x="354.15" y="594.36" width="10.91" height="36.67" rx="4.37" ry="4.37" transform="translate(-489.3 625.7) rotate(-69.28)" fill="#f7e6dd"/>
    <rect x="363.48" y="628.96" width="8.92" height="25.04" rx="3.3" ry="3.3" transform="translate(-518.48 484.56) rotate(-56.26)" fill="#f7e6dd"/>
    <rect x="338.95" y="646.83" width="8.92" height="25.04" rx="3.3" ry="3.3" transform="translate(-521.96 355.39) rotate(-47.09)" fill="#f7e6dd"/>
    <rect x="353.96" y="656.98" width="8.92" height="25.04" rx="3.3" ry="3.3" transform="translate(-549.38 581.51) rotate(-63.24)" fill="#f7e6dd"/>
    <rect x="379.72" y="636.92" width="8.92" height="25.04" rx="3.3" ry="3.3" transform="translate(-507.79 672.44) rotate(-69.28)" fill="#f7e6dd"/>
    <rect x="358.9" y="637.25" width="8.92" height="25.04" rx="3.3" ry="3.3" transform="translate(-517.35 407.97) rotate(-50.32)" fill="#f7e6dd"/>
    <rect x="374.23" y="646.84" width="8.92" height="25.04" rx="3.3" ry="3.3" transform="translate(-529.11 595.4) rotate(-63.35)" fill="#f7e6dd"/>
    <rect x="347.73" y="641.45" width="8.92" height="25.04" rx="3.3" ry="3.3" transform="translate(-524.62 400.89) rotate(-50.32)" fill="#f7e6dd"/>
    <rect x="363.05" y="651.04" width="8.92" height="25.04" rx="3.3" ry="3.3" transform="translate(-539.02 587.73) rotate(-63.35)" fill="#f7e6dd"/>
  </g>
  <g>
    <rect x="646.43" y="444.31" width="15.99" height="45.09" rx="7.24" ry="7.24" transform="translate(-296.63 408.52) rotate(-38.95)" fill="#0d6a7f"/>
    <rect x="628.8" y="441.71" width="18.53" height="9.81" rx="4.45" ry="4.45" transform="translate(-287.54 393.74) rotate(-38.95)" fill="#0d6a7f"/>
    <rect x="617.51" y="393.8" width="3.68" height="58.07" rx="1.67" ry="1.67" transform="translate(-276.76 376.69) rotate(-38.95)" fill="#ccdadd"/>
    <polygon points="447.73 290.78 453.74 298.22 456.85 295.71 450.84 288.26 446.17 285.68 447.73 290.78" fill="#ccdadd"/>
  </g>
  <rect x="663.99" y="454.95" width="8.92" height="44.83" rx="3.3" ry="3.3" transform="translate(654.94 1180.97) rotate(-135)" fill="#f7e6dd"/>
  <rect x="658.63" y="444.36" width="8.92" height="44.83" rx="3.3" ry="3.3" transform="translate(653.29 1159.09) rotate(-135)" fill="#f7e6dd"/>
  <rect x="651.14" y="435.79" width="8.92" height="44.83" rx="3.3" ry="3.3" transform="translate(646.55 1139.17) rotate(-135)" fill="#f7e6dd"/>
  <rect x="641.69" y="428.7" width="8.92" height="44.83" rx="3.3" ry="3.3" transform="translate(635.43 1120.39) rotate(-135)" fill="#f7e6dd"/>
</svg>
