<svg id="Layer_1" data-name="Layer 1" xmlns="http://www.w3.org/2000/svg" xmlns:xlink="http://www.w3.org/1999/xlink" viewBox="0 0 1294.44 929.95">
  <defs>
    <clipPath id="clip-path" transform="translate(-144.62 -128.61)">
      <polygon points="696.72 559.45 844.01 559.45 801.2 600.52 656.84 600.52 696.72 559.45" fill="none"/>
    </clipPath>
  </defs>
  <title>5</title>
  <rect width="1294.44" height="929.95" rx="12" ry="12" fill="#fafdff"/>
  <rect x="359.23" y="655.63" width="781.49" height="129.96" rx="42.4" ry="42.4" fill="#d9eef4"/>
  <g>
    <rect x="808.45" y="485.9" width="18.02" height="295.1" rx="9.01" ry="9.01" fill="#ceddea"/>
    <rect x="431.95" y="394.69" width="18.02" height="273.58" rx="9.01" ry="9.01" fill="#ceddea"/>
    <rect x="899.93" y="394.69" width="18.02" height="273.58" rx="9.01" ry="9.01" fill="#ceddea"/>
    <rect x="340.48" y="485.9" width="18.02" height="295.1" rx="9.01" ry="9.01" fill="#ceddea"/>
    <g>
      <path d="M553.87,536.75l-87.46,87.58a4.21,4.21,0,0,0,3,7.18H973.91a34,34,0,0,0,24.06-10L1086,533.49a4.21,4.21,0,0,0-3-7.18l-505.14.46A34,34,0,0,0,553.87,536.75Z" transform="translate(-144.62 -128.61)" fill="#95b2ce"/>
      <polygon points="320.38 498.39 320.38 484.39 550.96 400.05 942.38 386.56 942.38 401.39 837.04 494.05 320.38 498.39" fill="#95b2ce"/>
      <path d="M553.87,522.24l-87.46,87.58a4.21,4.21,0,0,0,3,7.18H973.91A34,34,0,0,0,998,607L1086,519a4.21,4.21,0,0,0-3-7.18l-505.14.46A34,34,0,0,0,553.87,522.24Z" transform="translate(-144.62 -128.61)" fill="#c7d7ea"/>
    </g>
  </g>
  <g id="keyboard">
    <g clip-path="url(#clip-path)">
      <g clip-path="url(#clip-path)">
        <path d="M795.15,600.52H662.89c-3.34,0-4-2.09-1.51-4.67l28.86-29.73a17.19,17.19,0,0,1,10.7-4.67H835.75c3.4,0,4,2.09,1.29,4.67l-31,29.73c-2.69,2.58-7.58,4.67-10.92,4.67" transform="translate(-144.62 -128.61)" fill="#373a3a"/>
        <path d="M797.23,598.52H664.84c-3.34,0-4-2.09-1.52-4.67l28.86-29.73a17.2,17.2,0,0,1,10.71-4.67H837.84c3.41,0,4,2.09,1.3,4.67l-31,29.73c-2.69,2.58-7.58,4.67-10.93,4.67" transform="translate(-144.62 -128.61)" fill="#444849"/>
        <polygon points="555.55 442.74 546.57 442.74 553.23 435.89 562.25 435.89 555.55 442.74" fill="#6f7475"/>
        <polygon points="569.59 442.74 560.6 442.74 567.31 435.89 576.33 435.89 569.59 442.74" fill="#6f7475"/>
        <polygon points="583.62 442.74 574.63 442.74 581.39 435.89 590.41 435.89 583.62 442.74" fill="#6f7475"/>
        <polygon points="597.65 442.74 588.66 442.74 595.47 435.89 604.48 435.89 597.65 442.74" fill="#6f7475"/>
        <polygon points="611.68 442.74 602.69 442.74 609.54 435.89 618.56 435.89 611.68 442.74" fill="#6f7475"/>
        <polygon points="625.71 442.74 616.72 442.74 623.62 435.89 632.64 435.89 625.71 442.74" fill="#6f7475"/>
        <polygon points="639.74 442.74 630.75 442.74 637.7 435.89 646.71 435.89 639.74 442.74" fill="#6f7475"/>
        <polygon points="653.77 442.74 644.78 442.74 651.77 435.89 660.79 435.89 653.77 442.74" fill="#6f7475"/>
        <polygon points="667.8 442.74 658.81 442.74 665.85 435.89 674.87 435.89 667.8 442.74" fill="#6f7475"/>
        <polygon points="677.67 446.74 668.7 446.74 679.93 435.89 688.95 435.89 677.67 446.74" fill="#6f7475"/>
        <polygon points="545.75 452.76 536.81 452.76 543.48 445.91 552.45 445.91 545.75 452.76" fill="#6f7475"/>
        <polygon points="559.72 452.76 550.77 452.76 557.49 445.91 566.46 445.91 559.72 452.76" fill="#6f7475"/>
        <polygon points="573.68 452.76 564.74 452.76 571.5 445.91 580.47 445.91 573.68 452.76" fill="#6f7475"/>
        <polygon points="587.64 452.76 578.7 452.76 585.5 445.91 594.48 445.91 587.64 452.76" fill="#6f7475"/>
        <polygon points="601.6 452.76 592.66 452.76 599.51 445.91 608.49 445.91 601.6 452.76" fill="#6f7475"/>
        <polygon points="615.56 452.76 606.62 452.76 613.52 445.91 622.5 445.91 615.56 452.76" fill="#6f7475"/>
        <polygon points="629.53 452.76 620.58 452.76 627.53 445.91 636.5 445.91 629.53 452.76" fill="#6f7475"/>
        <polygon points="643.49 452.76 634.54 452.76 641.54 445.91 650.51 445.91 643.49 452.76" fill="#6f7475"/>
        <polygon points="664.22 452.76 648.5 452.76 655.55 445.91 671.31 445.91 664.22 452.76" fill="#6f7475"/>
        <polygon points="671.41 452.76 662.47 452.76 669.55 445.91 678.53 445.91 671.41 452.76" fill="#6f7475"/>
        <polygon points="535.96 462.77 527.05 462.77 533.72 455.93 542.65 455.93 535.96 462.77" fill="#6f7475"/>
        <polygon points="549.85 462.77 540.95 462.77 547.66 455.93 556.59 455.93 549.85 462.77" fill="#6f7475"/>
        <polygon points="563.74 462.77 554.84 462.77 561.6 455.93 570.53 455.93 563.74 462.77" fill="#6f7475"/>
        <polygon points="619.32 462.77 568.74 462.77 575.54 455.93 626.29 455.93 619.32 462.77" fill="#6f7475"/>
        <polygon points="633.21 462.77 624.31 462.77 631.3 455.93 640.23 455.93 633.21 462.77" fill="#6f7475"/>
        <polygon points="647.1 462.77 638.2 462.77 645.24 455.93 654.17 455.93 647.1 462.77" fill="#6f7475"/>
        <polygon points="661 462.77 652.09 462.77 659.18 455.93 668.11 455.93 661 462.77" fill="#6f7475"/>
      </g>
    </g>
  </g>
  <g>
    <path d="M931.17,603.27l-4.24.81c-8.09,1.54-17.34-3.41-20.57-11l-8.09-19.71c-3-7.64.51-15.08,7.86-16.62l3.85-.81c7.27-1.54,16,3.41,19.51,11l9.38,19.71C942.59,594.29,939.18,601.73,931.17,603.27Z" transform="translate(-144.62 -128.61)" fill="#444849"/>
    <polygon points="774.41 445.74 768.52 446.93 762.45 432.72 768.17 431.53 774.41 445.74" fill="#6f7475"/>
  </g>
  <g>
    <polygon points="919.38 295.14 919.38 403.37 919.38 295.14 919.38 295.14" fill="#e2ad37"/>
    <polygon points="827.38 403.39 827.38 309.39 808.38 309.39 808.38 417.39 899.38 417.39 899.38 403.39 827.38 403.39" fill="#f9c74b"/>
    <rect x="827.38" y="309.39" width="72" height="94" fill="#f9c74b"/>
    <polygon points="827.38 295.14 808.35 309.39 808.37 309.39 827.38 309.39 827.38 295.14" fill="#e2ad37"/>
    <polygon points="899.38 417.39 918.98 403.39 899.38 403.39 899.38 417.39" fill="#e2ad37"/>
    <polygon points="827.38 295.39 827.38 309.39 899.38 309.39 899.38 403.39 918.98 403.39 918.94 295.39 827.38 295.39" fill="#e2ad37"/>
  </g>
  <g id="XEwo6m.tif">
    <g>
      <path d="M1013.73,488.06h-4.24a57.3,57.3,0,0,0-1.74-6c-2.74-6.7-11.42-9.64-17.85-6.14a13.17,13.17,0,0,0-1.08,22.77,12.4,12.4,0,0,0,6.93,2c13.75,0,27.51,0,41.26,0,1.29,0,1.86.27,1.54,1.63a4.24,4.24,0,0,0,0,1.22c0.13,2,.13,2-1.92,2-13.66,0-27.33.11-41,0a17.87,17.87,0,0,1-2.52-35.5,17.06,17.06,0,0,1,13.85,3.64,17.51,17.51,0,0,1,6.76,12.91C1013.76,487,1013.73,487.47,1013.73,488.06Z" transform="translate(-144.62 -128.61)" fill="#c41a1a"/>
      <path d="M1038.47,493.22v4.66H1037c-13.7,0-27.4,0-41.11,0a10.37,10.37,0,1,1,.89-20.7A10.82,10.82,0,0,1,1006,485a23.53,23.53,0,0,1,.36,3H1002a22.84,22.84,0,0,0-2.16-4.31,5.38,5.38,0,0,0-6.7-1,5.48,5.48,0,0,0-2.67,6.13,5.25,5.25,0,0,0,5.29,4.19l40.82,0.17h1.85Z" transform="translate(-144.62 -128.61)" fill="#c41a1a"/>
      <path d="M973.92,505.49c-1.52,0-2.87.06-4.2-.06a1.63,1.63,0,0,1-.58-1.23c0-5.85,0-11.7,0-17.56,0-3.72-.06-7.44,0-11.16,0-1.35-.42-1.71-1.7-1.63-1.66.1-3.34,0-5.18,0,0-1.47,0-2.82,0-4.16a1,1,0,0,1,.77-0.64c3.31,0,6.62,0,9.93,0a1.41,1.41,0,0,1,.86.78,2.59,2.59,0,0,1,0,1.07q0,15.65,0,31.3C973.92,503.27,973.92,504.29,973.92,505.49Z" transform="translate(-144.62 -128.61)" fill="#c41a1a"/>
      <path d="M962.26,505.49c0-.75,0-1.33,0-1.91,0-6.81,0-13.62,0-20.43,0-1.36-.44-1.69-1.72-1.67-3.2.07-3.2,0-3.2-3.19,0-.49,0-1,0-1.55h9.41c0,0.4.09,0.74,0.09,1.09,0,8.72,0,17.43,0,26.15,0,1.21-.34,1.64-1.54,1.52C964.41,505.41,963.45,505.49,962.26,505.49Z" transform="translate(-144.62 -128.61)" fill="#c41a1a"/>
    </g>
  </g>
  <rect x="220.88" y="785.58" width="781.49" height="84.8" rx="42.4" ry="42.4" fill="#d9eef4"/>
  <rect x="476.79" y="362.98" width="22.1" height="35.81" rx="8.89" ry="8.89" transform="translate(831.05 633.16) rotate(-180)" fill="#dcbfb1"/>
  <rect x="591.15" y="361.68" width="17.25" height="44.73" rx="6.93" ry="6.93" transform="translate(1054.92 639.47) rotate(-180)" fill="#dcbfb1"/>
  <rect x="591.43" y="385.95" width="20.36" height="20.46" rx="8.18" ry="8.18" transform="translate(1058.6 663.75) rotate(180)" fill="#dcbfb1"/>
  <path d="M536,293.82H570.3a33.62,33.62,0,0,1,33.62,33.62v89.94A33.62,33.62,0,0,1,570.3,451H520.62A33.62,33.62,0,0,1,487,417.39V342.84a49,49,0,0,1,49-49Z" transform="translate(946.29 616.22) rotate(-180)" fill="#f7e6dd"/>
  <path d="M484.42,294.83a11.77,11.77,0,0,1,11.77-11.77l128-4.41-1.66,24c0,14.76-14.56,25.58-29.32,25.58H517.79s-8.61-.54-9.69,20.19c-0.19,3.73-1,12.08-1.54,17.86l-0.18,1.87a4.69,4.69,0,0,1-4.68,4.23h-8.39a8.89,8.89,0,0,1-8.89-8.89V294.83Z" transform="translate(-144.62 -128.61)" fill="#333a3f"/>
  <path d="M610.64,942.62L612.5,971H634v-9s23.75,9.67,34.42,3.67S682,950.79,682,950.79s4.61-9-10.05-8.42-23.64,6.42-23.64,6.42-2.39-1.55-5.69-6.27S610.64,942.62,610.64,942.62Z" transform="translate(-144.62 -128.61)" fill="#333a3f"/>
  <path d="M488.9,807.13l80,11.21A22.9,22.9,0,0,1,588.42,838l12.13,92.81a22.9,22.9,0,0,0,22.71,19.93h0a22.9,22.9,0,0,0,22.9-22.9V802.14A22.9,22.9,0,0,0,632,781L525.62,737.31a22.9,22.9,0,0,0-25.24,5.35l-24.84,26A22.9,22.9,0,0,0,488.9,807.13Z" transform="translate(-144.62 -128.61)" fill="#3c9bbc"/>
  <path d="M504.69,367.39" transform="translate(-144.62 -128.61)" fill="#c1a187"/>
  <path d="M508.82,394.13" transform="translate(-144.62 -128.61)" fill="#68513e"/>
  <polygon points="361.46 312.39 364.78 333.39 418.25 333.39 426.69 312.39 361.46 312.39" fill="#f7e6dd"/>
  <rect x="305.27" y="327.2" width="173.88" height="277.3" rx="27.65" ry="27.65" fill="#005faa"/>
  <rect x="396.83" y="439.36" width="54.71" height="195.23" rx="22" ry="22" transform="translate(359.32 -271.28) rotate(45)" fill="#005faa"/>
  <g>
    <path d="M745.92,572.07l14-9a6.25,6.25,0,0,1,6-.49L785,571.15c3.05,1.37,3.07,6.92,0,8.32L755.76,593l-22.42-13.79Z" transform="translate(-144.62 -128.61)" fill="#f7e6dd"/>
    <rect x="763.45" y="553.34" width="7.33" height="19.75" rx="3.67" ry="3.67" transform="translate(682.44 -515.18) rotate(57.33)" fill="#f7e6dd"/>
    <rect x="774.43" y="551.18" width="7.33" height="19.75" rx="3.67" ry="3.67" transform="translate(1345.15 -210.79) rotate(102.1)" fill="#f7e6dd"/>
    <rect x="772.34" y="558.03" width="7.33" height="19.75" rx="3.67" ry="3.67" transform="translate(690.48 -520.51) rotate(57.33)" fill="#f7e6dd"/>
    <rect x="783.32" y="555.86" width="7.33" height="19.75" rx="3.67" ry="3.67" transform="translate(1360.48 -213.82) rotate(102.1)" fill="#f7e6dd"/>
    <rect x="782.32" y="565.16" width="7.33" height="19.75" rx="3.67" ry="3.67" transform="translate(857.82 -503.1) rotate(66.65)" fill="#f7e6dd"/>
    <rect x="793.31" y="562.99" width="7.33" height="19.75" rx="3.67" ry="3.67" transform="translate(1379.53 -214.95) rotate(102.1)" fill="#f7e6dd"/>
  </g>
  <rect x="600.85" y="460.78" width="54.71" height="195.23" rx="22" ry="22" transform="translate(-314.48 166.08) rotate(-23.35)" fill="#005faa"/>
  <rect x="670.15" y="537.19" width="54.71" height="142.59" rx="22" ry="22" transform="translate(270.65 1361.41) rotate(-113.35)" fill="#005faa"/>
  <rect x="388.87" y="545.76" width="54.71" height="142.59" rx="22" ry="22" transform="translate(-472.44 468.43) rotate(-54.46)" fill="#005faa"/>
  <rect x="312.45" y="591.08" width="161.34" height="15.91" rx="6.4" ry="6.4" fill="#333a3f"/>
  <rect x="328.93" y="589.9" width="7.88" height="19.98" rx="2.33" ry="2.33" fill="#63b6db"/>
  <rect x="363.74" y="589.9" width="7.88" height="19.98" rx="2.33" ry="2.33" fill="#63b6db"/>
  <rect x="414.31" y="589.9" width="7.88" height="19.98" rx="2.33" ry="2.33" fill="#63b6db"/>
  <rect x="455.97" y="589.9" width="7.88" height="19.98" rx="2.33" ry="2.33" fill="#63b6db"/>
  <circle cx="413.04" cy="375.07" r="4.21" fill="#005faa"/>
  <path d="M553.26,281.09" transform="translate(-144.62 -128.61)" fill="#333a3f"/>
  <rect x="355.79" y="311.99" width="70.89" height="28.42" rx="10.92" ry="10.92" fill="#094d7c"/>
  <path d="M695.64,942.62L697.5,971H719v-9s23.75,9.67,34.42,3.67S767,950.79,767,950.79s4.61-9-10.05-8.42-23.64,6.42-23.64,6.42-2.39-1.55-5.69-6.27S695.64,942.62,695.64,942.62Z" transform="translate(-144.62 -128.61)" fill="#333a3f"/>
  <path d="M484.42,363.52L487,417.39s27,3.31,43,4,41.31,0,41.31,0L584,325.53,500.41,322Z" transform="translate(-144.62 -128.61)" fill="#333a3f"/>
  <path d="M573.93,359.74l14.74,22.47a8.39,8.39,0,0,0,7,3.79h0a8.39,8.39,0,0,0,8.39-8.32L604.45,332a8.39,8.39,0,0,0-9.81-8.34l-6.06,1a8.39,8.39,0,0,0-6.34,5.09L573.18,352A8.39,8.39,0,0,0,573.93,359.74Z" transform="translate(-144.62 -128.61)" fill="#333a3f"/>
  <rect x="573.89" y="362.98" width="22.1" height="35.81" rx="8.89" ry="8.89" transform="translate(1025.25 633.16) rotate(-180)" fill="#dcbfb1"/>
  <path d="M324,607H461.79a12,12,0,0,1,12,12v23.45a34.15,34.15,0,0,1-34.15,34.15H346.11A34.15,34.15,0,0,1,312,642.44V619A12,12,0,0,1,324,607Z" fill="#63b6db"/>
  <path d="M577.41,805.13l80,11.21A22.9,22.9,0,0,1,676.92,836l12.13,92.81a22.9,22.9,0,0,0,22.71,19.93h0a22.9,22.9,0,0,0,22.9-22.9V800.14A22.9,22.9,0,0,0,720.46,779L614.12,735.31a22.9,22.9,0,0,0-25.24,5.35l-24.84,26A22.9,22.9,0,0,0,577.41,805.13Z" transform="translate(-144.62 -128.61)" fill="#63b6db"/>
  <g>
    <rect x="297.58" y="698.03" width="45.6" height="87.55" fill="#237ca3"/>
    <path d="M271.8,325.4H369a70.89,70.89,0,0,1,70.89,70.89v165.1a45.43,45.43,0,0,1-45.43,45.43H246.33a45.43,45.43,0,0,1-45.43-45.43V396.29A70.89,70.89,0,0,1,271.8,325.4Z" fill="#54a1cc"/>
    <rect x="200.9" y="650.6" width="238.95" height="58.65" rx="18.32" ry="18.32" fill="#54a1cc"/>
    <rect x="200.9" y="785.58" width="238.95" height="22.12" rx="4.96" ry="4.96" fill="#237ca3"/>
    <circle cx="220.88" cy="833.76" r="19.98" fill="#146582"/>
    <rect x="260.58" y="563.04" width="45.6" height="87.55" fill="#237ca3"/>
    <circle cx="419.87" cy="833.76" r="19.98" fill="#146582"/>
    <rect x="305.95" y="813.78" width="28.11" height="39.96" rx="11.06" ry="11.06" fill="#146582"/>
    <rect x="292.81" y="767.34" width="55.13" height="12.97" rx="5.33" ry="5.33" fill="#146582"/>
    <rect x="292.81" y="744.24" width="55.13" height="12.97" rx="5.33" ry="5.33" fill="#146582"/>
    <rect x="292.81" y="721.13" width="55.13" height="12.97" rx="5.33" ry="5.33" fill="#146582"/>
    <rect x="213.18" y="650.6" width="214.4" height="44.57" rx="18.32" ry="18.32" fill="#4698bc"/>
  </g>
</svg>
