<svg id="Layer_2" data-name="Layer 2" xmlns="http://www.w3.org/2000/svg" xmlns:xlink="http://www.w3.org/1999/xlink" viewBox="0 0 1554.04 1075.93">
  <defs>
    <clipPath id="clip-path" transform="translate(-73.61 -76.43)">
      <rect x="201.17" y="562.5" width="211" height="177" transform="translate(-163.3 106.05) rotate(-15.55)" fill="none"/>
    </clipPath>
    <clipPath id="clip-path-3" transform="translate(-73.61 -76.43)">
      <rect x="442.18" y="534.2" width="140.13" height="203.6" transform="translate(-182.01 1066.01) rotate(-82.92)" fill="none"/>
    </clipPath>
  </defs>
  <title>10</title>
  <rect width="1526.39" height="1075.93" rx="12" ry="12" fill="#fafdff"/>
  <rect x="174.39" y="874.57" width="432" height="51.34" rx="25.67" ry="25.67" fill="#e2f0f7"/>
  <rect x="607.59" y="898.24" width="432" height="51.34" rx="25.67" ry="25.67" fill="#e2f0f7"/>
  <rect x="1122.04" y="898.24" width="432" height="51.34" rx="25.67" ry="25.67" fill="#e2f0f7"/>
  <g id="printer">
    <g clip-path="url(#clip-path)">
      <g clip-path="url(#clip-path)">
        <path d="M192.16,616.25l14.39-26.54a8.55,8.55,0,0,1,5.22-4.16L356.38,545.3a8.55,8.55,0,0,1,7.06,1.14l25.25,17Z" transform="translate(-73.61 -76.43)" fill="#615f68"/>
        <path d="M378.92,561.87L198.76,612a12,12,0,0,0-8.34,14.78L225.54,753a12,12,0,0,0,14.78,8.34l1.94-.54c0-.08-0.06-0.16-0.08-0.24l-24.4-87.67a11.82,11.82,0,0,1,8.41-14.54l153.18-42.63a11.82,11.82,0,0,1,14.71,8.1l24.4,87.67c0,0.08,0,.16.05,0.24l1.94-.54a12,12,0,0,0,8.34-14.78l-35.12-126.2a12,12,0,0,0-14.78-8.34" transform="translate(-73.61 -76.43)" fill="#868589"/>
        <path d="M394.08,623.82a11.82,11.82,0,0,0-14.71-8.1L226.19,658.34a11.82,11.82,0,0,0-8.41,14.54l24.4,87.67c0,0.08.06,0.16,0.08,0.24l176.28-49.05c0-.08,0-0.16-0.05-0.24Z" transform="translate(-73.61 -76.43)" fill="#403f48"/>
        <line x1="118.42" y1="556.13" x2="321.69" y2="499.56" fill="none" stroke="#5a5960" stroke-miterlimit="10" stroke-width="2"/>
        <line x1="124.05" y1="576.36" x2="327.32" y2="519.79" fill="none" stroke="#5a5960" stroke-miterlimit="10" stroke-width="2"/>
        <line x1="183.93" y1="537.9" x2="189.56" y2="558.13" fill="none" stroke="#5a5960" stroke-miterlimit="10" stroke-width="2"/>
        <line x1="255.22" y1="518.06" x2="260.85" y2="538.29" fill="none" stroke="#5a5960" stroke-miterlimit="10" stroke-width="2"/>
        <line x1="188.08" y1="552.83" x2="259.37" y2="532.99" fill="none" stroke="#5a5960" stroke-miterlimit="10"/>
        <polygon points="151.21 621.74 147.15 642.59 343.2 588.03 327.51 572.68 151.21 621.74" fill="#606068"/>
        <rect x="217.57" y="691.67" width="203.5" height="4" transform="translate(-247.89 34.57) rotate(-15.55)" fill="#56565e"/>
        <path d="M383.11,637.86L234.43,679.23a7.33,7.33,0,1,1-3.93-14.13l148.68-41.38a7.33,7.33,0,0,1,3.93,14.13" transform="translate(-73.61 -76.43)" fill="#36353d"/>
        <rect x="236.39" y="674.68" width="9.33" height="12" transform="translate(-247.27 13.11) rotate(-15.55)" fill="#323138"/>
        <rect x="374.15" y="636.34" width="9.33" height="12" transform="matrix(0.96, -0.27, 0.27, 0.96, -231.95, 48.64)" fill="#323138"/>
        <rect x="279.98" y="662.55" width="9.33" height="12" transform="matrix(0.96, -0.27, 0.27, 0.96, -242.42, 24.35)" fill="#323138"/>
        <rect x="330.08" y="648.6" width="9.33" height="12" transform="matrix(0.96, -0.27, 0.27, 0.96, -236.85, 37.27)" fill="#323138"/>
        <path d="M212.61,635.65a4,4,0,1,1-4.93-2.78,4,4,0,0,1,4.93,2.78" transform="translate(-73.61 -76.43)" fill="#4edd8c"/>
        <path d="M225.13,632.17a4,4,0,1,1-4.93-2.78,4,4,0,0,1,4.93,2.78" transform="translate(-73.61 -76.43)" fill="#28d7e0"/>
        <path d="M390.09,588.34a5.67,5.67,0,1,1-7-3.94,5.67,5.67,0,0,1,7,3.94" transform="translate(-73.61 -76.43)" fill="#403f48"/>
        <line x1="151.39" y1="674.62" x2="164.88" y2="670.87" fill="none" stroke="#5a5960" stroke-miterlimit="10" stroke-width="2"/>
        <line x1="341.18" y1="621.81" x2="354.67" y2="618.06" fill="none" stroke="#5a5960" stroke-miterlimit="10" stroke-width="2"/>
        <rect x="264.02" y="607.62" width="62.58" height="9.17" transform="translate(-226.93 25.15) rotate(-15.55)" fill="#5eefef"/>
      </g>
    </g>
  </g>
  <rect x="220.67" y="612.41" width="247.44" height="175.33" rx="12" ry="12" fill="#876a5f"/>
  <g>
    <rect x="193.39" y="636.46" width="221" height="151.28" rx="8.71" ry="8.71" fill="#bfa395"/>
    <polygon points="246.39 676.2 246.39 676.01 246.39 676.11 246.39 676.01 246.39 676.2 225.39 708.57 238.39 708.57 238.39 753.57 246.39 753.57 246.45 714.79 246.51 753.57 254.39 753.57 254.39 708.57 267.51 708.57 246.39 676.2" fill="#a5897c"/>
    <polygon points="359.39 676.2 359.39 676.01 359.39 676.11 359.39 676.01 359.39 676.2 338.39 708.57 351.39 708.57 351.39 753.57 359.39 753.57 359.45 714.79 359.51 753.57 367.39 753.57 367.39 708.57 380.51 708.57 359.39 676.2" fill="#a5897c"/>
  </g>
  <g id="monitor">
    <g clip-path="url(#clip-path-3)">
      <g clip-path="url(#clip-path-3)">
        <path d="M529.26,686.46l-15.12-1.88,3.85-31-15.12-1.88-3.85,31-15.12-1.88A10.81,10.81,0,0,0,472,690.48v0.06a10.76,10.76,0,0,0,9.23,12.21l45.35,5.63a10.7,10.7,0,0,0,11.93-9.52l0-.13a10.81,10.81,0,0,0-9.22-12.27" transform="translate(-73.61 -76.43)" fill="#333535"/>
        <path d="M602.43,687.61L412.18,664a5.94,5.94,0,0,1-5.16-6.63l12.11-97.54a5.94,5.94,0,0,1,6.63-5.16L616,578.27a5.94,5.94,0,0,1,5.16,6.63l-12.11,97.54a5.94,5.94,0,0,1-6.63,5.16" transform="translate(-73.61 -76.43)" fill="#444849"/>
        <rect x="464.77" y="525.94" width="98.64" height="190.4" transform="translate(-239.25 978.37) rotate(-82.92)" fill="#262626"/>
      </g>
    </g>
  </g>
  <g>
    <path d="M302.2,872.17l-27.87,48a9.32,9.32,0,0,0,8.06,14H525.54" transform="translate(-73.61 -76.43)" fill="#fff" stroke="#d3dbdd" stroke-linecap="round" stroke-miterlimit="10" stroke-width="8"/>
    <g>
      <path d="M605.63,639.59a6.67,6.67,0,0,1,6.24,9L531.73,859.88a6.71,6.71,0,0,1-6.24,4.31H279.17a6.7,6.7,0,0,1-6.25-4.33L193.56,648.61a6.67,6.67,0,0,1,6.25-9H605.63m0-10H199.8a16.67,16.67,0,0,0-15.61,22.54l79.36,211.25a16.67,16.67,0,0,0,15.61,10.81H525.49a16.67,16.67,0,0,0,15.59-10.76l80.14-211.25a16.67,16.67,0,0,0-15.59-22.59h0Z" transform="translate(-73.61 -76.43)" fill="#d3dbdd"/>
      <line x1="496.39" y1="559.57" x2="409.39" y2="792.57" fill="#fff" stroke="#d3dbdd" stroke-miterlimit="10" stroke-width="8"/>
      <line x1="448.39" y1="559.57" x2="361.39" y2="792.57" fill="#fff" stroke="#d3dbdd" stroke-miterlimit="10" stroke-width="8"/>
      <line x1="400.39" y1="559.57" x2="313.39" y2="792.57" fill="#fff" stroke="#d3dbdd" stroke-miterlimit="10" stroke-width="8"/>
      <line x1="354.39" y1="559.57" x2="267.39" y2="792.57" fill="#fff" stroke="#d3dbdd" stroke-miterlimit="10" stroke-width="8"/>
      <line x1="304.39" y1="559.57" x2="217.39" y2="792.57" fill="#fff" stroke="#d3dbdd" stroke-miterlimit="10" stroke-width="8"/>
      <line x1="255.39" y1="559.57" x2="182.59" y2="754.53" fill="#fff" stroke="#d3dbdd" stroke-miterlimit="10" stroke-width="8"/>
      <line x1="206.39" y1="559.57" x2="158.79" y2="687.03" fill="#fff" stroke="#d3dbdd" stroke-miterlimit="10" stroke-width="8"/>
      <line x1="157.39" y1="559.57" x2="134.13" y2="621.85" fill="#fff" stroke="#d3dbdd" stroke-miterlimit="10" stroke-width="8"/>
      <line x1="161.39" y1="559.57" x2="248.39" y2="792.57" fill="#fff" stroke="#d3dbdd" stroke-miterlimit="10" stroke-width="8"/>
      <line x1="209.39" y1="559.57" x2="296.39" y2="792.57" fill="#fff" stroke="#d3dbdd" stroke-miterlimit="10" stroke-width="8"/>
      <line x1="257.39" y1="559.57" x2="344.39" y2="792.57" fill="#fff" stroke="#d3dbdd" stroke-miterlimit="10" stroke-width="8"/>
      <line x1="303.39" y1="559.57" x2="390.39" y2="792.57" fill="#fff" stroke="#d3dbdd" stroke-miterlimit="10" stroke-width="8"/>
      <line x1="353.39" y1="559.57" x2="440.39" y2="792.57" fill="#fff" stroke="#d3dbdd" stroke-miterlimit="10" stroke-width="8"/>
      <line x1="402.39" y1="559.57" x2="474.88" y2="753.7" fill="#fff" stroke="#d3dbdd" stroke-miterlimit="10" stroke-width="8"/>
      <line x1="451.39" y1="559.57" x2="500.39" y2="690.8" fill="#fff" stroke="#d3dbdd" stroke-miterlimit="10" stroke-width="8"/>
      <line x1="500.39" y1="559.57" x2="524.89" y2="625.18" fill="#fff" stroke="#d3dbdd" stroke-miterlimit="10" stroke-width="8"/>
    </g>
    <path d="M189.33,651l-24.79-67.28A13.33,13.33,0,0,0,152,575H92" transform="translate(-73.61 -76.43)" fill="#fff" stroke="#d3dbdd" stroke-linecap="round" stroke-miterlimit="10" stroke-width="10"/>
    <ellipse cx="292.6" cy="964.08" rx="19.08" ry="11.9" transform="translate(-782.97 782.12) rotate(-67.1)" fill="#4a5051"/>
    <ellipse cx="512.24" cy="964.08" rx="19.08" ry="11.9" transform="translate(-648.78 984.46) rotate(-67.1)" fill="#4a5051"/>
  </g>
  <path d="M833.7,223.42H869A33.62,33.62,0,0,1,902.65,257v91.35A33.62,33.62,0,0,1,869,382H818.3a33.62,33.62,0,0,1-33.62-33.62V272.43a49,49,0,0,1,49-49Z" transform="translate(1613.73 528.99) rotate(-180)" fill="#f7e6dd"/>
  <path d="M782.08,224.43A11.88,11.88,0,0,1,794,212.55l129.17-4.45-1.67,24.26c0,14.89-14.69,25.81-29.58,25.81H815.76s-8.69-.54-9.78,20.37c-0.2,3.77-1,12.19-1.56,18l-0.19,1.88a4.73,4.73,0,0,1-4.72,4.27h-8.46a9,9,0,0,1-9-9v-69.3Z" transform="translate(-73.61 -76.43)" fill="#333a3f"/>
  <rect x="774.39" y="293.2" width="22.3" height="36.13" rx="8.89" ry="8.89" transform="translate(1497.46 546.08) rotate(-180)" fill="#dcbfb1"/>
  <path d="M802.54,297.64" transform="translate(-73.61 -76.43)" fill="#c1a187"/>
  <path d="M759.06,939.66c-7.87,18.18-19.73,25.57-25.67,28.27-1.28.41-2.56,0.87-3.85,1.37-18.8,7.34-31.46,21.52-28.27,31.66s21,12.42,39.81,5.08a61.78,61.78,0,0,0,20-12.27l1.87,5.61,22.86-3.91,2.63-47S769.92,914.57,759.06,939.66Z" transform="translate(-73.61 -76.43)" fill="#333a3f"/>
  <path d="M806.7,324.62" transform="translate(-73.61 -76.43)" fill="#68513e"/>
  <path d="M881.48,290.4c4.2,0,7.6,2.6,7.6,7.6H873.88C873.88,293,877.29,290.4,881.48,290.4Z" transform="translate(-73.61 -76.43)" fill="#333a3f"/>
  <path d="M915.88,936.86c7.87,18.18,19.73,25.57,25.67,28.27,1.28,0.41,2.56.87,3.85,1.37,18.8,7.34,31.46,21.52,28.27,31.66s-21,12.42-39.81,5.08a61.78,61.78,0,0,1-20-12.27l-1.87,5.61-22.86-3.91-2.63-47S905,911.78,915.88,936.86Z" transform="translate(-73.61 -76.43)" fill="#333a3f"/>
  <polygon points="842.09 574.58 866.66 882.57 810.21 882.57 760.66 631.14 716.32 882.57 668.43 882.57 684.21 571.74 842.09 574.58" fill="#63b6db"/>
  <polygon points="794.74 294.57 791.39 315.57 737.44 315.57 728.93 294.57 794.74 294.57" fill="#f7e6dd"/>
  <path d="M823.91,290.4c4.2,0,7.6,2.6,7.6,7.6H816.31C816.31,293,819.72,290.4,823.91,290.4Z" transform="translate(-73.61 -76.43)" fill="#333a3f"/>
  <rect x="843.87" y="289.95" width="17.4" height="45.13" rx="6.93" ry="6.93" transform="translate(1631.52 548.59) rotate(-180)" fill="#dcbfb1"/>
  <rect x="844.15" y="314.44" width="20.54" height="20.64" rx="8.18" ry="8.18" transform="translate(1635.23 573.09) rotate(-180)" fill="#dcbfb1"/>
  <rect x="749.61" y="385.84" width="175.44" height="279.78" rx="27.65" ry="27.65" transform="translate(1601.04 975.03) rotate(-180)" fill="#005faa"/>
  <rect x="907.01" y="381.01" width="55.2" height="196.97" rx="22" ry="22" transform="translate(1910.72 364.45) rotate(150.73)" fill="#005faa"/>
  <rect x="866.82" y="270.53" width="29.33" height="11.68" rx="4.65" ry="4.65" transform="translate(1689.36 476.3) rotate(-180)" fill="#333a3f"/>
  <rect x="809.25" y="270.53" width="29.33" height="11.68" rx="4.65" ry="4.65" transform="translate(1574.22 476.3) rotate(-180)" fill="#333a3f"/>
  <path d="M819.38,341.61c-0.58,3.55,6.14,7.61,15,9.07s16.55-.24,17.13-3.79" transform="translate(-73.61 -76.43)" fill="#dcbfb1"/>
  <rect x="691.74" y="365.26" width="55.2" height="196.97" rx="22" ry="22" transform="translate(781.02 1232.42) rotate(-131.9)" fill="#005faa"/>
  <rect x="658.15" y="481.07" width="55.2" height="143.86" rx="22" ry="22" transform="translate(1488.07 382.7) rotate(135)" fill="#005faa"/>
  <rect x="990.75" y="482.34" width="55.2" height="143.86" rx="22" ry="22" transform="translate(1696.9 -404.5) rotate(101.89)" fill="#005faa"/>
  <g>
    <rect x="1064.68" y="545.11" width="38.88" height="47.85" rx="12" ry="12" transform="translate(230.35 1436.26) rotate(-78.11)" fill="#f7e6dd"/>
    <circle cx="1077.09" cy="557.74" r="13.9" transform="translate(-203.38 602.55) rotate(-33.11)" fill="#f7e6dd"/>
    <rect x="1075.95" y="529.91" width="10.97" height="27.8" rx="4.37" ry="4.37" transform="translate(1143.11 1670.26) rotate(-123.11)" fill="#f7e6dd"/>
    <rect x="1100.96" y="564.62" width="8.29" height="41.64" rx="3.3" ry="3.3" transform="translate(499.62 1640.86) rotate(-92.74)" fill="#f7e6dd"/>
    <rect x="1106.49" y="559.22" width="8.29" height="41.64" rx="3.3" ry="3.3" transform="translate(240.64 1470.94) rotate(-78.11)" fill="#f7e6dd"/>
    <rect x="1109.35" y="549.05" width="8.29" height="41.64" rx="3.3" ry="3.3" transform="translate(252.87 1465.66) rotate(-78.11)" fill="#f7e6dd"/>
    <rect x="1110.07" y="538.1" width="8.29" height="41.64" rx="3.3" ry="3.3" transform="translate(264.16 1457.67) rotate(-78.11)" fill="#f7e6dd"/>
  </g>
  <polygon points="796.64 300.33 800.31 317.41 767.97 331.68 764.05 309.41 796.64 300.33" fill="#094d7c"/>
  <polygon points="731.34 300.33 727.67 317.41 760.01 331.68 763.93 309.41 731.34 300.33" fill="#094d7c"/>
  <rect x="755.01" y="652.08" width="162.78" height="16.05" rx="6.4" ry="6.4" transform="translate(1599.19 1243.78) rotate(180)" fill="#333a3f"/>
  <rect x="893.22" y="650.9" width="7.95" height="20.16" rx="2.33" ry="2.33" transform="translate(1720.78 1245.52) rotate(180)" fill="#63b6db"/>
  <rect x="858.09" y="650.9" width="7.95" height="20.16" rx="2.33" ry="2.33" transform="translate(1650.53 1245.52) rotate(180)" fill="#63b6db"/>
  <rect x="807.07" y="650.9" width="7.95" height="20.16" rx="2.33" ry="2.33" transform="translate(1548.49 1245.52) rotate(180)" fill="#63b6db"/>
  <rect x="765.05" y="650.9" width="7.95" height="20.16" rx="2.33" ry="2.33" transform="translate(1464.43 1245.52) rotate(180)" fill="#63b6db"/>
  <line x1="763.89" y1="330.57" x2="763.89" y2="575.57" fill="none" stroke="#005893" stroke-miterlimit="10" stroke-width="3"/>
  <circle cx="742.7" cy="357.71" r="4.25" fill="#005faa"/>
  <circle cx="742.7" cy="357.71" r="4.25" fill="none" stroke="#005893" stroke-miterlimit="10" stroke-width="3"/>
  <circle cx="742.7" cy="415.34" r="4.25" fill="none" stroke="#005893" stroke-miterlimit="10" stroke-width="3"/>
  <circle cx="742.7" cy="469.72" r="4.25" fill="none" stroke="#005893" stroke-miterlimit="10" stroke-width="3"/>
  <circle cx="742.7" cy="523.22" r="4.25" fill="none" stroke="#005893" stroke-miterlimit="10" stroke-width="3"/>
  <circle cx="1044.02" cy="576.73" r="4.25" transform="matrix(0.84, -0.55, 0.55, 0.84, -219.12, 587.57)" fill="none" stroke="#005893" stroke-miterlimit="10" stroke-width="3"/>
  <path d="M873.92,673.61s1,12.55,15.85,27.87c11.4,11.76,28,11.54,28,11.54" transform="translate(-73.61 -76.43)" fill="none" stroke="#4fa7c6" stroke-linecap="round" stroke-miterlimit="10" stroke-width="2"/>
  <polyline points="831.73 633.11 829.86 615.57 809.39 615.57" fill="none" stroke="#4fa7c6" stroke-linecap="round" stroke-miterlimit="10" stroke-width="2"/>
  <path d="M801.12,673.61s-1,12.55-15.85,27.87c-11.4,11.76-28,11.54-28,11.54" transform="translate(-73.61 -76.43)" fill="none" stroke="#4fa7c6" stroke-linecap="round" stroke-miterlimit="10" stroke-width="2"/>
  <polyline points="696.06 633.11 697.95 615.57 718.39 615.57" fill="none" stroke="#4fa7c6" stroke-linecap="round" stroke-miterlimit="10" stroke-width="2"/>
  <line x1="865.25" y1="865.79" x2="806.7" y2="865.76" fill="none" stroke="#4fa7c6" stroke-linecap="round" stroke-miterlimit="10" stroke-width="2"/>
  <line x1="719.63" y1="864.74" x2="669.41" y2="864.4" fill="none" stroke="#4fa7c6" stroke-linecap="round" stroke-miterlimit="10" stroke-width="2"/>
  <rect x="822.34" y="651.17" width="28.86" height="17.88" rx="4.88" ry="4.88" transform="translate(1599.93 1243.78) rotate(180)" fill="#e6e6e6"/>
  <path d="M851.54,210.57" transform="translate(-73.61 -76.43)" fill="#333a3f"/>
  <g>
    <rect x="723.03" y="579.79" width="38.88" height="47.85" rx="12" ry="12" transform="translate(-199.75 928.85) rotate(-63.93)" fill="#f7e6dd"/>
    <circle cx="738.42" cy="591.04" r="13.9" transform="translate(-225.4 195.04) rotate(-18.93)" fill="#f7e6dd"/>
    <rect x="753.64" y="607.96" width="8.29" height="41.64" rx="3.3" ry="3.3" transform="translate(-213.68 956.65) rotate(-63.93)" fill="#f7e6dd"/>
    <rect x="761.33" y="600.07" width="8.29" height="41.64" rx="3.3" ry="3.3" transform="translate(-202.27 959.14) rotate(-63.93)" fill="#f7e6dd"/>
    <rect x="766.6" y="590.9" width="8.29" height="41.64" rx="3.3" ry="3.3" transform="translate(-191.09 958.74) rotate(-63.93)" fill="#f7e6dd"/>
    <rect x="769.98" y="580.46" width="8.29" height="41.64" rx="3.3" ry="3.3" transform="translate(-179.82 955.92) rotate(-63.93)" fill="#f7e6dd"/>
    <polygon points="660.7 501.68 676.39 494.57 676.39 509.57 660.7 501.68" fill="#f7e6dd"/>
  </g>
  <path d="M1253.69,148h50.73A33.62,33.62,0,0,1,1338,181.6V273a33.62,33.62,0,0,1-33.62,33.62h-35.33a49,49,0,0,1-49-49V181.6A33.62,33.62,0,0,1,1253.69,148Z" fill="#f7e6dd"/>
  <path d="M1393.8,298.64" transform="translate(-73.61 -76.43)" fill="#c1a187"/>
  <path d="M1437.28,940.66c7.87,18.18,19.73,25.57,25.67,28.27,1.28,0.41,2.56.87,3.85,1.37,18.8,7.34,31.46,21.52,28.27,31.66s-21,12.42-39.81,5.08a61.78,61.78,0,0,1-20-12.27l-1.87,5.61-22.86-3.91-2.63-47S1426.42,915.57,1437.28,940.66Z" transform="translate(-73.61 -76.43)" fill="#333a3f"/>
  <path d="M1389.63,325.62" transform="translate(-73.61 -76.43)" fill="#68513e"/>
  <path d="M1314.85,291.4c-4.2,0-7.6,2.6-7.6,7.6h15.21C1322.46,294,1319.05,291.4,1314.85,291.4Z" transform="translate(-73.61 -76.43)" fill="#333a3f"/>
  <path d="M1280.46,937.86c-7.87,18.18-19.73,25.57-25.67,28.27-1.28.41-2.56,0.87-3.85,1.37-18.8,7.34-31.46,21.52-28.27,31.66s21,12.42,39.81,5.08a61.78,61.78,0,0,0,20-12.27l1.87,5.61,22.86-3.91,2.63-47S1291.32,912.78,1280.46,937.86Z" transform="translate(-73.61 -76.43)" fill="#333a3f"/>
  <polygon points="1207.02 575.58 1182.45 883.57 1238.91 883.57 1288.46 632.14 1332.79 883.57 1380.68 883.57 1364.9 572.74 1207.02 575.58" fill="#3c4c51"/>
  <polygon points="1254.38 295.57 1257.73 316.57 1311.67 316.57 1320.18 295.57 1254.38 295.57" fill="#f7e6dd"/>
  <path d="M1372.42,291.4c-4.2,0-7.6,2.6-7.6,7.6H1380C1380,294,1376.62,291.4,1372.42,291.4Z" transform="translate(-73.61 -76.43)" fill="#333a3f"/>
  <rect x="1261.46" y="214.51" width="17.4" height="45.13" rx="6.93" ry="6.93" fill="#dcbfb1"/>
  <rect x="1258.04" y="239.01" width="20.54" height="20.64" rx="8.18" ry="8.18" fill="#dcbfb1"/>
  <rect x="1197.68" y="310.41" width="175.44" height="279.78" rx="27.65" ry="27.65" fill="#afcbdd"/>
  <rect x="1234.12" y="382.01" width="55.2" height="196.97" rx="22" ry="22" transform="translate(322.35 -631.93) rotate(29.27)" fill="#afcbdd"/>
  <rect x="1300.19" y="271.53" width="29.33" height="9.31" rx="4.65" ry="4.65" transform="translate(-93.6 47.06) rotate(-5.34)" fill="#4d5459"/>
  <path d="M1368.37,347.26c0.07,6-7.16,10.9-16.16,11s-16.35-4.64-16.42-10.61" transform="translate(-73.61 -76.43)" fill="#dcbfb1"/>
  <rect x="1449.39" y="366.26" width="55.2" height="196.97" rx="22" ry="22" transform="translate(71.03 1177.19) rotate(-48.1)" fill="#afcbdd"/>
  <rect x="1482.98" y="482.07" width="55.2" height="143.86" rx="22" ry="22" transform="translate(760.57 -982.31) rotate(45)" fill="#afcbdd"/>
  <rect x="1150.38" y="483.34" width="55.2" height="143.86" rx="22" ry="22" transform="translate(1405.09 -788.26) rotate(78.11)" fill="#afcbdd"/>
  <g>
    <rect x="1092.78" y="546.11" width="38.88" height="47.85" rx="12" ry="12" transform="translate(709.9 1699.4) rotate(-101.89)" fill="#f7e6dd"/>
    <circle cx="1119.25" cy="558.74" r="13.9" transform="translate(-33.79 1114.55) rotate(-56.89)" fill="#f7e6dd"/>
    <rect x="1109.41" y="530.91" width="10.97" height="27.8" rx="4.37" ry="4.37" transform="translate(-24.1 1104.59) rotate(-56.89)" fill="#f7e6dd"/>
    <rect x="1087.09" y="565.76" width="8.29" height="41.64" rx="3.3" ry="3.3" transform="translate(431.04 1601.38) rotate(-90)" fill="#f7e6dd"/>
    <rect x="1081.56" y="560.22" width="8.29" height="41.64" rx="3.3" ry="3.3" transform="translate(667.16 1686.72) rotate(-101.89)" fill="#f7e6dd"/>
    <rect x="1078.7" y="550.05" width="8.29" height="41.64" rx="3.3" ry="3.3" transform="translate(673.66 1671.65) rotate(-101.89)" fill="#f7e6dd"/>
    <rect x="1077.98" y="539.1" width="8.29" height="41.64" rx="3.3" ry="3.3" transform="translate(683.51 1657.74) rotate(-101.89)" fill="#f7e6dd"/>
  </g>
  <polygon points="1252.48 301.33 1248.8 318.41 1281.15 332.68 1285.06 310.41 1252.48 301.33" fill="#8fb6cc"/>
  <polygon points="1317.77 301.33 1321.44 318.41 1289.1 332.68 1285.19 310.41 1317.77 301.33" fill="#8fb6cc"/>
  <rect x="1204.93" y="576.65" width="162.78" height="16.05" rx="6.4" ry="6.4" fill="#333a3f"/>
  <rect x="1221.55" y="575.47" width="7.95" height="20.16" rx="2.33" ry="2.33" fill="#3c4c51"/>
  <rect x="1256.68" y="575.47" width="7.95" height="20.16" rx="2.33" ry="2.33" fill="#3c4c51"/>
  <path d="M1411,229s-7.25-25.1-46.07-23.87-58.53,3.3-69.7,11.93-16.64,35.38-16.64,35.38l55.71-16.74L1328,252.41l59.27-10.08L1400,269v34l17.16-8s7.52-32.67,6.18-48S1411,229,1411,229Z" transform="translate(-73.61 -76.43)" fill="#4d5459"/>
  <rect x="1307.7" y="575.47" width="7.95" height="20.16" rx="2.33" ry="2.33" fill="#3c4c51"/>
  <rect x="1326.04" y="217.76" width="22.3" height="36.13" rx="8.89" ry="8.89" fill="#dcbfb1"/>
  <rect x="1349.73" y="575.47" width="7.95" height="20.16" rx="2.33" ry="2.33" fill="#3c4c51"/>
  <line x1="1283.89" y1="331.57" x2="1283.89" y2="576.57" fill="none" stroke="#83a6ba" stroke-miterlimit="10"/>
  <circle cx="1306.41" cy="416.34" r="4.25" fill="none" stroke="#83a6ba" stroke-miterlimit="10"/>
  <circle cx="1306.41" cy="470.72" r="4.25" fill="none" stroke="#83a6ba" stroke-miterlimit="10"/>
  <circle cx="1306.41" cy="524.22" r="4.25" fill="none" stroke="#83a6ba" stroke-miterlimit="10"/>
  <circle cx="1152.32" cy="577.73" r="4.25" transform="translate(-34.69 1150.86) rotate(-56.89)" fill="none" stroke="#83a6ba" stroke-miterlimit="10"/>
  <rect x="1271.53" y="575.73" width="28.86" height="17.88" rx="4.88" ry="4.88" fill="#e6e6e6"/>
  <path d="M1344.8,211.57" transform="translate(-73.61 -76.43)" fill="#333a3f"/>
  <g>
    <rect x="1434.43" y="580.79" width="38.88" height="47.85" rx="12" ry="12" transform="translate(1476.07 2099.99) rotate(-116.07)" fill="#f7e6dd"/>
    <circle cx="1457.91" cy="592.04" r="13.9" transform="translate(351.37 1702.66) rotate(-71.07)" fill="#f7e6dd"/>
    <rect x="1434.41" y="608.96" width="8.29" height="41.64" rx="3.3" ry="3.3" transform="translate(1431.52 2122.31) rotate(-116.07)" fill="#f7e6dd"/>
    <rect x="1426.72" y="601.07" width="8.29" height="41.64" rx="3.3" ry="3.3" transform="translate(1427.53 2104.03) rotate(-116.07)" fill="#f7e6dd"/>
    <rect x="1421.45" y="591.9" width="8.29" height="41.64" rx="3.3" ry="3.3" transform="translate(1428.18 2086.1) rotate(-116.07)" fill="#f7e6dd"/>
    <rect x="1418.07" y="581.46" width="8.29" height="41.64" rx="3.3" ry="3.3" transform="translate(1432.7 2068.04) rotate(-116.07)" fill="#f7e6dd"/>
    <polygon points="1388.08 502.68 1372.39 495.57 1372.39 510.57 1388.08 502.68" fill="#f7e6dd"/>
  </g>
  <rect x="1359.33" y="268.71" width="29.33" height="9.31" rx="4.65" ry="4.65" transform="translate(-35.79 -224.05) rotate(6.24)" fill="#4d5459"/>
  <circle cx="1306.41" cy="370.34" r="4.25" fill="none" stroke="#83a6ba" stroke-miterlimit="10"/>
  <polygon points="1285.19 310.41 1272.08 328.68 1281.15 332.68 1268.3 479.48 1283.89 500.61 1300.38 479.48 1289.1 332.68 1298.17 328.68 1285.19 310.41" fill="#343a3d"/>
</svg>
