<svg id="Layer_4" data-name="Layer 4" xmlns="http://www.w3.org/2000/svg" xmlns:xlink="http://www.w3.org/1999/xlink" viewBox="0 0 1294.44 929.95">
  <defs>
    <clipPath id="clip-path" transform="translate(-152.78 -148.02)">
      <polygon points="916.76 671.42 753 653.27 765.04 619.75 928.81 637.31 916.76 671.42" fill="none"/>
    </clipPath>
    <clipPath id="clip-path-5" transform="translate(-152.78 -148.02)">
      <rect x="567.73" y="492.59" width="288.27" height="198.41" fill="none"/>
    </clipPath>
  </defs>
  <title>6</title>
  <rect width="1294.44" height="929.95" rx="12" ry="12" fill="#fafdff"/>
  <line x1="749.22" y1="130.98" x2="749.22" y2="165.98" fill="none" stroke="#9bc1d1" stroke-miterlimit="10" stroke-width="10"/>
  <rect x="736.97" y="163.97" width="28.39" height="52.21" rx="12" ry="12" fill="#9bc1d1"/>
  <rect x="714.07" y="248.19" width="251.65" height="289.95" rx="93.02" ry="93.02" fill="#54a1cc"/>
  <path d="M782.94,106H832a33.62,33.62,0,0,1,33.62,33.62v89.1A33.62,33.62,0,0,1,832,262.36H798.33a49,49,0,0,1-49-49v-73.7A33.62,33.62,0,0,1,782.94,106Z" fill="#f7e6dd"/>
  <path d="M1021,255a11.71,11.71,0,0,0-11.71-11.71L881.91,239l1.65,23.91c0,14.68,14.48,25.45,29.16,25.45h75s8.57-.54,9.64,20.08c0.19,3.71,1,12,1.54,17.76l0.18,1.86a4.67,4.67,0,0,0,4.65,4.21h8.34a8.85,8.85,0,0,0,8.85-8.85V255Z" transform="translate(-152.78 -148.02)" fill="#333a3f"/>
  <rect x="853.78" y="174.81" width="21.98" height="35.61" rx="8.89" ry="8.89" fill="#dcbfb1"/>
  <path d="M1000.79,327.22" transform="translate(-152.78 -148.02)" fill="#c1a187"/>
  <path d="M1043.66,930.52c7.76,16.07,19.45,22.61,25.3,25q1.89,0.55,3.8,1.21c18.53,6.49,31,19,27.87,28s-20.71,11-39.24,4.49a62.43,62.43,0,0,1-19.77-10.85l-1.84,5-22.54-3.46-2.59-41.59S1033,908.34,1043.66,930.52Z" transform="translate(-152.78 -148.02)" fill="#333a3f"/>
  <path d="M996.69,353.81" transform="translate(-152.78 -148.02)" fill="#68513e"/>
  <path d="M923,320.5c-4.14,0-7.5,2.5-7.5,7.5h15C930.46,323,927.11,320.5,923,320.5Z" transform="translate(-152.78 -148.02)" fill="#333a3f"/>
  <path d="M889.06,928c-7.76,16.07-19.45,22.61-25.3,25q-1.89.55-3.8,1.21c-18.53,6.49-31,19-27.87,28s20.71,11,39.24,4.49a62.43,62.43,0,0,0,19.77-10.85l1.84,5,22.54-3.46,2.59-41.59S899.76,905.87,889.06,928Z" transform="translate(-152.78 -148.02)" fill="#333a3f"/>
  <polygon points="736.45 527.53 712.23 799.98 767.88 799.98 816.73 577.73 860.44 799.98 907.64 799.98 892.09 525.12 736.45 527.53" fill="#63b6db"/>
  <polygon points="783.13 250.98 786.44 272.98 839.62 272.98 848.01 250.98 783.13 250.98" fill="#f7e6dd"/>
  <path d="M979.72,320.5c-4.14,0-7.5,2.5-7.5,7.5h15C987.21,323,983.86,320.5,979.72,320.5Z" transform="translate(-152.78 -148.02)" fill="#333a3f"/>
  <rect x="790.11" y="171.61" width="17.15" height="44.49" rx="6.93" ry="6.93" fill="#dcbfb1"/>
  <rect x="786.74" y="195.75" width="20.25" height="20.35" rx="8.18" ry="8.18" fill="#dcbfb1"/>
  <rect x="727.24" y="266.15" width="172.95" height="275.81" rx="27.65" ry="27.65" fill="#005faa"/>
  <rect x="843.22" y="413.45" width="54.42" height="194.18" rx="22" ry="22" transform="translate(187.37 -496.03) rotate(27.91)" fill="#005faa"/>
  <rect x="755.73" y="152.46" width="28.91" height="11.51" rx="4.65" ry="4.65" fill="#333a3f"/>
  <rect x="812.48" y="152.46" width="28.91" height="11.51" rx="4.65" ry="4.65" fill="#333a3f"/>
  <path d="M985.27,371.05c0.94,5.72-5.39,11.53-14.15,13s-16.61-2-17.55-7.76" transform="translate(-152.78 -148.02)" fill="#dcbfb1"/>
  <rect x="631.73" y="367.52" width="54.42" height="141.82" rx="22" ry="22" fill="#005faa"/>
  <polygon points="781.26 257.19 777.64 274.03 809.52 288.1 813.38 266.14 781.26 257.19" fill="#094d7c"/>
  <polygon points="845.63 257.19 849.25 274.03 817.37 288.1 813.51 266.14 845.63 257.19" fill="#094d7c"/>
  <rect x="734.39" y="528.61" width="160.48" height="15.82" rx="6.4" ry="6.4" fill="#333a3f"/>
  <rect x="750.77" y="527.44" width="7.84" height="19.87" rx="2.33" ry="2.33" fill="#63b6db"/>
  <rect x="785.41" y="527.44" width="7.84" height="19.87" rx="2.33" ry="2.33" fill="#63b6db"/>
  <rect x="835.7" y="527.44" width="7.84" height="19.87" rx="2.33" ry="2.33" fill="#63b6db"/>
  <rect x="877.13" y="527.44" width="7.84" height="19.87" rx="2.33" ry="2.33" fill="#63b6db"/>
  <line x1="812.72" y1="286.98" x2="812.72" y2="528.98" fill="none" stroke="#005893" stroke-miterlimit="10" stroke-width="3"/>
  <circle cx="834.43" cy="313.76" r="4.19" fill="#005faa"/>
  <circle cx="834.43" cy="313.76" r="4.19" fill="none" stroke="#005893" stroke-miterlimit="10" stroke-width="3"/>
  <circle cx="834.43" cy="370.57" r="4.19" fill="none" stroke="#005893" stroke-miterlimit="10" stroke-width="3"/>
  <circle cx="834.43" cy="424.18" r="4.19" fill="none" stroke="#005893" stroke-miterlimit="10" stroke-width="3"/>
  <circle cx="834.43" cy="476.92" r="4.19" fill="none" stroke="#005893" stroke-miterlimit="10" stroke-width="3"/>
  <path d="M930.42,695.34s-1,11.09-15.63,24.63c-11.23,10.4-27.62,10.2-27.62,10.2" transform="translate(-152.78 -148.02)" fill="none" stroke="#4fa7c6" stroke-linecap="round" stroke-miterlimit="10" stroke-width="2"/>
  <polyline points="746.93 579.48 748.51 563.98 769.22 563.98" fill="none" stroke="#4fa7c6" stroke-linecap="round" stroke-miterlimit="10" stroke-width="2"/>
  <path d="M1002.2,695.34s1,11.09,15.63,24.63c11.23,10.4,27.62,10.2,27.62,10.2" transform="translate(-152.78 -148.02)" fill="none" stroke="#4fa7c6" stroke-linecap="round" stroke-miterlimit="10" stroke-width="2"/>
  <polyline points="880.82 579.48 878.54 563.98 859.22 563.98" fill="none" stroke="#4fa7c6" stroke-linecap="round" stroke-miterlimit="10" stroke-width="2"/>
  <line x1="713.62" y1="784.76" x2="771.34" y2="784.73" fill="none" stroke="#4fa7c6" stroke-linecap="round" stroke-miterlimit="10" stroke-width="2"/>
  <line x1="857.17" y1="783.83" x2="906.69" y2="783.53" fill="none" stroke="#4fa7c6" stroke-linecap="round" stroke-miterlimit="10" stroke-width="2"/>
  <rect x="800.04" y="527.71" width="28.45" height="17.62" rx="4.88" ry="4.88" fill="#e6e6e6"/>
  <path d="M952.49,241.38" transform="translate(-152.78 -148.02)" fill="#333a3f"/>
  <rect x="851.1" y="163.97" width="28.39" height="52.21" rx="12" ry="12" fill="#9bc1d1"/>
  <path d="M1019,313V243.37s3-12.37-11.21-12.37H913.1s-9.55-.42-9.55,9.18" transform="translate(-152.78 -148.02)" fill="none" stroke="#9bc1d1" stroke-miterlimit="10" stroke-width="10"/>
  <path d="M896.12,354.86s28.42,23.74,44.75,26.27" transform="translate(-152.78 -148.02)" fill="none" stroke="#689caf" stroke-linecap="round" stroke-miterlimit="10" stroke-width="5"/>
  <rect x="934.38" y="377.08" width="15.5" height="9.55" rx="4.78" ry="4.78" transform="translate(72.91 -487.38) rotate(23.13)" fill="#46707c"/>
  <path d="M1053,556.12l-56.66,35.74L975,600a12.87,12.87,0,0,0-8,9.11A78.81,78.81,0,0,0,965.26,621H1053V556.12Z" transform="translate(-152.78 -148.02)" fill="#005893"/>
  <g>
    <polygon points="1009.22 494.98 1009.22 794.98 924.22 879.48 924.22 565.98 1009.22 494.98" fill="#57aace"/>
    <rect x="251.02" y="568.58" width="673.2" height="311.39" fill="#69b7e2"/>
    <g>
      <path d="M1175,637.86L1068,718H389.17l0-1.39a6.77,6.77,0,0,0,6.82,7.39h659.81a49.68,49.68,0,0,0,30.78-10.69l87-68.65a5.91,5.91,0,0,0,1.51-7.6v0.8Z" transform="translate(-152.78 -148.02)" fill="#54a1cc"/>
      <path d="M393.07,711l10.73-5h-7.86a6.71,6.71,0,0,1-6.79-6.18l-0.56.2,0.54,16.58A6.58,6.58,0,0,1,393.07,711Z" transform="translate(-152.78 -148.02)" fill="#54a1cc"/>
      <path d="M1173.49,626.66L1164.2,634h5.59a5.82,5.82,0,0,1,5.21,3.06V624.91A6,6,0,0,1,1173.49,626.66Z" transform="translate(-152.78 -148.02)" fill="#54a1cc"/>
      <path d="M1068,718l107-80.14v-0.8a5.82,5.82,0,0,0-5.21-3.06h-5.59l-77.66,61.31A49.68,49.68,0,0,1,1055.75,706h-652l-10.73,5a6.58,6.58,0,0,0-3.94,5.63l0,1.39H1068Z" transform="translate(-152.78 -148.02)" fill="#54a1cc"/>
      <path d="M547.18,639.48A59,59,0,0,1,572,634h5.83L618,620h557v4.91a6,6,0,0,0-5.21-8.91H572a59,59,0,0,0-24.85,5.48L393.07,693a6.62,6.62,0,0,0-3.92,6.85l112.7-39.31Z" transform="translate(-152.78 -148.02)" fill="#81c3ef"/>
      <path d="M572,634a59,59,0,0,0-24.85,5.48l-45.34,21,76-26.51H572Z" transform="translate(-152.78 -148.02)" fill="#81c3ef"/>
      <path d="M395.94,706h7.86l98-45.49-112.7,39.31A6.71,6.71,0,0,0,395.94,706Z" transform="translate(-152.78 -148.02)" fill="#81c3ef"/>
      <path d="M618,620l-40.14,14H1164.2l9.29-7.34a6,6,0,0,0,1.51-1.75V620H618Z" transform="translate(-152.78 -148.02)" fill="#81c3ef"/>
      <path d="M501.85,660.51L403.8,706h652a49.68,49.68,0,0,0,30.78-10.69L1164.2,634H577.86Z" transform="translate(-152.78 -148.02)" fill="#81c3ef"/>
    </g>
  </g>
  <rect x="505.55" y="511.42" width="223.58" height="32.56" rx="12" ry="12" fill="#73ace0"/>
  <g id="keyboard">
    <g clip-path="url(#clip-path)">
      <g clip-path="url(#clip-path)">
        <path d="M771.9,620.47l150,16.09c3.79,0.41,6.25,2.49,5.49,4.63l-8.72,24.68c-0.76,2.14-4.44,3.53-8.23,3.1l-150-16.6c-3.79-.41-6.25-2.45-5.49-4.56l8.72-24.26c0.76-2.11,4.44-3.5,8.23-3.1" transform="translate(-152.78 -148.02)" fill="#373a3a"/>
        <path d="M771.32,622.11l150,16.12c3.79,0.41,6.25,2.49,5.49,4.63l-8.72,24.68c-0.76,2.14-4.44,3.53-8.23,3.1L759.86,654c-3.79-.41-6.25-2.45-5.49-4.56l8.72-24.26c0.76-2.11,4.44-3.49,8.23-3.09" transform="translate(-152.78 -148.02)" fill="#444849"/>
        <polygon points="750.68 511.64 760.73 512.77 758.72 518.44 748.67 517.32 750.68 511.64" fill="#6f7475"/>
        <polygon points="734.99 509.9 745.04 511.02 743.03 516.68 732.98 515.56 734.99 509.9" fill="#6f7475"/>
        <polygon points="719.3 508.16 729.35 509.28 727.34 514.93 717.29 513.81 719.3 508.16" fill="#6f7475"/>
        <polygon points="703.61 506.43 713.66 507.54 711.65 513.19 701.6 512.07 703.61 506.43" fill="#6f7475"/>
        <polygon points="687.92 504.7 697.97 505.81 695.96 511.45 685.91 510.34 687.92 504.7" fill="#6f7475"/>
        <polygon points="672.23 502.98 682.28 504.09 680.27 509.71 670.22 508.61 672.23 502.98" fill="#6f7475"/>
        <polygon points="656.54 501.27 666.59 502.37 664.58 507.99 654.53 506.88 656.54 501.27" fill="#6f7475"/>
        <polygon points="640.85 499.56 650.9 500.65 648.89 506.27 638.84 505.17 640.85 499.56" fill="#6f7475"/>
        <polygon points="625.16 497.86 635.21 498.95 633.2 504.55 623.15 503.46 625.16 497.86" fill="#6f7475"/>
        <polygon points="610.64 492.9 620.69 493.98 617.51 502.84 607.46 501.75 610.64 492.9" fill="#6f7475"/>
        <polygon points="753.62 503.34 763.67 504.45 761.66 510.13 751.61 509.02 753.62 503.34" fill="#6f7475"/>
        <polygon points="737.93 501.61 747.98 502.72 745.97 508.39 735.92 507.28 737.93 501.61" fill="#6f7475"/>
        <polygon points="722.24 499.89 732.29 500.99 730.28 506.65 720.23 505.54 722.24 499.89" fill="#6f7475"/>
        <polygon points="706.55 498.17 716.6 499.27 714.59 504.92 704.54 503.81 706.55 498.17" fill="#6f7475"/>
        <polygon points="690.86 496.46 700.91 497.55 698.9 503.2 688.85 502.09 690.86 496.46" fill="#6f7475"/>
        <polygon points="675.17 494.75 685.22 495.84 683.21 501.48 673.16 500.38 675.17 494.75" fill="#6f7475"/>
        <polygon points="659.48 493.05 669.53 494.14 667.52 499.76 657.47 498.67 659.48 493.05" fill="#6f7475"/>
        <polygon points="643.78 491.36 653.84 492.44 651.83 498.05 641.78 496.96 643.78 491.36" fill="#6f7475"/>
        <polygon points="620.49 488.85 638.15 490.75 636.14 496.35 618.48 494.44 620.49 488.85" fill="#6f7475"/>
        <polygon points="612.4 487.98 622.46 489.06 620.45 494.66 610.4 493.57 612.4 487.98" fill="#6f7475"/>
        <polygon points="756.55 495.04 766.61 496.14 764.6 501.82 754.55 500.71 756.55 495.04" fill="#6f7475"/>
        <polygon points="740.86 493.32 750.91 494.42 748.91 500.09 738.86 498.99 740.86 493.32" fill="#6f7475"/>
        <polygon points="725.17 491.61 735.23 492.7 733.22 498.37 723.17 497.27 725.17 491.61" fill="#6f7475"/>
        <polygon points="662.41 484.82 719.53 490.99 717.53 496.65 660.41 490.44 662.41 484.82" fill="#6f7475"/>
        <polygon points="646.72 483.14 656.77 484.22 654.77 489.84 644.72 488.75 646.72 483.14" fill="#6f7475"/>
        <polygon points="631.03 481.47 641.08 482.54 639.08 488.15 629.02 487.07 631.03 481.47" fill="#6f7475"/>
        <polygon points="615.34 479.8 625.39 480.87 623.39 486.47 613.34 485.39 615.34 479.8" fill="#6f7475"/>
      </g>
    </g>
  </g>
  <g id="monitor">
    <g clip-path="url(#clip-path-5)">
      <g clip-path="url(#clip-path-5)">
        <path d="M847.59,648.59H576.15a8.41,8.41,0,0,1-8.41-8.41V501a8.41,8.41,0,0,1,8.41-8.41H847.59A8.41,8.41,0,0,1,856,501V640.17a8.41,8.41,0,0,1-8.41,8.41" transform="translate(-152.78 -148.02)" fill="#444849"/>
        <rect x="424.3" y="352.73" width="269.58" height="139.66" fill="#444"/>
        <path d="M730.58,659.73H709V615.52H687.44v44.21H665.88c-8.54,0-15.1,7.1-15.1,15.64v0.09A15.23,15.23,0,0,0,665.88,691h64.7a15.15,15.15,0,0,0,15.1-15.46v-0.18c0-8.54-6.56-15.64-15.1-15.64" transform="translate(-152.78 -148.02)" fill="#333535"/>
        <rect x="410.88" y="195.31" width="8.67" height="46" rx="4.33" ry="4.33" fill="#333535"/>
      </g>
    </g>
  </g>
  <rect x="484.88" y="387.98" width="123.73" height="88.91" rx="12" ry="12" fill="#3c3d3d"/>
  <rect x="493.2" y="443.26" width="4.42" height="24.71" rx="2.21" ry="2.21" fill="#333535"/>
  <rect x="505.55" y="443.26" width="4.42" height="24.71" rx="2.21" ry="2.21" fill="#333535"/>
  <rect x="518.69" y="443.26" width="4.42" height="24.71" rx="2.21" ry="2.21" fill="#333535"/>
  <rect x="532.04" y="443.26" width="4.42" height="24.71" rx="2.21" ry="2.21" fill="#333535"/>
  <rect x="546.75" y="443.26" width="4.42" height="24.71" rx="2.21" ry="2.21" fill="#333535"/>
  <rect x="559.1" y="443.26" width="4.42" height="24.71" rx="2.21" ry="2.21" fill="#333535"/>
  <rect x="572.24" y="443.26" width="4.42" height="24.71" rx="2.21" ry="2.21" fill="#333535"/>
  <rect x="585.59" y="443.26" width="4.42" height="24.71" rx="2.21" ry="2.21" fill="#333535"/>
  <rect x="1042.85" y="407.02" width="54.42" height="194.18" rx="22" ry="22" transform="translate(-251.56 537.66) rotate(-34.06)" fill="#005faa"/>
  <rect x="1045.52" y="516.9" width="54.42" height="141.82" rx="22" ry="22" transform="translate(806.23 -778.14) rotate(55.94)" fill="#005faa"/>
  <g>
    <path d="M1007.21,627.56l3.51,2.42c6.82,4.61,9.13,13.44,4.84,19.73l-11.79,16.21c-4.86,6.28-14.94,7.64-22.19,3l-3.74-2.42a13.16,13.16,0,0,1-3-19.73l12.52-16.21A14.24,14.24,0,0,1,1007.21,627.56Z" transform="translate(-152.78 -148.02)" fill="#444849"/>
    <polygon points="836.51 502.59 841.89 506.16 832.69 517.85 827.21 514.28 836.51 502.59" fill="#6f7475"/>
  </g>
  <g>
    <rect x="998.92" y="605.7" width="38.32" height="47.18" rx="12" ry="12" transform="translate(879.75 1678.05) rotate(-122.41)" fill="#f7e6dd"/>
    <circle cx="1018.66" cy="617.43" r="13.7" transform="translate(41.3 1329.03) rotate(-77.41)" fill="#f7e6dd"/>
    <rect x="1000.72" y="599.3" width="10.82" height="27.41" rx="4.37" ry="4.37" transform="translate(571.96 1609.05) rotate(-107.53)" fill="#f7e6dd"/>
    <rect x="988.32" y="618.66" width="8.17" height="22.64" rx="3.3" ry="3.3" transform="translate(1039.33 1640.35) rotate(-132.19)" fill="#f7e6dd"/>
    <rect x="978.03" y="631.68" width="8.17" height="22.64" rx="3.3" ry="3.3" transform="translate(1358.38 1542.89) rotate(-150)" fill="#f7e6dd"/>
    <rect x="995.49" y="626.08" width="8.17" height="22.64" rx="3.3" ry="3.3" transform="translate(1045.83 1658.05) rotate(-132.19)" fill="#f7e6dd"/>
    <rect x="985.2" y="639.09" width="8.17" height="22.64" rx="3.3" ry="3.3" transform="translate(1368.05 1560.31) rotate(-150)" fill="#f7e6dd"/>
    <rect x="1005.59" y="631.9" width="8.17" height="22.64" rx="3.3" ry="3.3" transform="translate(1058.4 1675.27) rotate(-132.19)" fill="#f7e6dd"/>
    <rect x="994.31" y="643.92" width="8.17" height="22.64" rx="3.3" ry="3.3" transform="translate(1192 1650.07) rotate(-140.14)" fill="#f7e6dd"/>
    <rect x="1012.48" y="636.47" width="8.17" height="22.64" rx="3.3" ry="3.3" transform="translate(1141.97 1672.66) rotate(-135.85)" fill="#f7e6dd"/>
    <rect x="1001.05" y="647.12" width="8.17" height="22.64" rx="3.3" ry="3.3" transform="translate(1097.5 1686.74) rotate(-135)" fill="#f7e6dd"/>
  </g>
  <path d="M897.22,399.34L842,410.57V240a12.12,12.12,0,0,0-12.1-12H432a12,12,0,0,0-12,12V451a12,12,0,0,0,12,12H829.9A12.12,12.12,0,0,0,842,451V437.8Z" transform="translate(-152.78 -148.02)" fill="#4793c6"/>
  <g>
    <path d="M528.5,276.8v27H525v-24H512.5v24H509v-27H528.5Z" transform="translate(-152.78 -148.02)" fill="#fff"/>
    <path d="M552,293.92c0,7.16-5,10.28-9.64,10.28-5.24,0-9.28-3.84-9.28-10,0-6.48,4.24-10.28,9.6-10.28C548.22,284,552,288,552,293.92Zm-15.36.2c0,4.24,2.44,7.44,5.88,7.44s5.88-3.16,5.88-7.52c0-3.28-1.64-7.44-5.8-7.44S536.62,290.44,536.62,294.12Z" transform="translate(-152.78 -148.02)" fill="#fff"/>
    <path d="M571.14,284.4v16.72l2,0-0.2,8.76h-2.76L570,303.76h-13.4l-0.16,6.16H553.7l-0.16-8.76,1.64,0a15.1,15.1,0,0,0,1.92-4,25.55,25.55,0,0,0,1.12-7.72v-5h12.92Zm-9.8,5.88a25.66,25.66,0,0,1-1,7.2,18.41,18.41,0,0,1-1.56,3.6h8.92v-14h-6.36v3.2Z" transform="translate(-152.78 -148.02)" fill="#fff"/>
    <path d="M580.82,284.4v8.4h0.84l7.28-8.4h4.28l-8.44,8.76c3.12,0.32,5,2.4,6.52,5.88a40.86,40.86,0,0,0,2.08,4.72H589.7a25.73,25.73,0,0,1-1.8-4c-1.32-3.12-3.12-4.56-6.4-4.56h-0.68v8.52h-3.48V284.4h3.48Z" transform="translate(-152.78 -148.02)" fill="#fff"/>
    <path d="M612.1,284.4v19.36h-3.48v-16.6H602v5c0,5.44-.52,9.08-3,10.72a5.65,5.65,0,0,1-3.84,1.2l-0.36-2.76a4.36,4.36,0,0,0,1.92-.8c1.8-1.32,2-4,2-8.36v-7.8H612.1Z" transform="translate(-152.78 -148.02)" fill="#fff"/>
    <path d="M621.22,284.4v8.16h3.32c0.6-5.12,4-8.6,8.6-8.6,5,0,8.48,4,8.48,10,0,6.28-3.84,10.28-8.72,10.28-4.64,0-8-3.44-8.44-9h-3.24v8.52h-3.44V284.4h3.44ZM638.1,294c0-3.64-1.64-7.4-5.08-7.4s-5.2,3.68-5.2,7.6c0,3.76,1.72,7.4,5.12,7.4C636.5,301.6,638.1,297.68,638.1,294Z" transform="translate(-152.78 -148.02)" fill="#fff"/>
    <path d="M648.86,284.4v6.36c0,2.44.92,4.12,4,4.12a7.28,7.28,0,0,0,4.16-1.36V284.4h3.48v19.36H657V296h-0.08a10.17,10.17,0,0,1-5.24,1.48c-3.68,0-6.36-1.88-6.36-6.32V284.4h3.52Z" transform="translate(-152.78 -148.02)" fill="#fff"/>
    <path d="M669.5,284.4v8.16c0,3.08,0,5-.2,7.76l0.12,0c1.16-2.36,1.84-3.72,3.12-6l6-10h4.12v19.36h-3.36v-8.2c0-3.16.08-4.8,0.24-7.92h-0.12c-1.24,2.48-2.08,4-3.2,6-1.84,3-4,6.72-6,10.12h-4V284.4h3.32Z" transform="translate(-152.78 -148.02)" fill="#fff"/>
    <path d="M703.1,284.4v19.36h-3.48v-16.6H693v5c0,5.44-.52,9.08-3,10.72a5.65,5.65,0,0,1-3.84,1.2l-0.36-2.76a4.36,4.36,0,0,0,1.92-.8c1.8-1.32,2-4,2-8.36v-7.8H703.1Z" transform="translate(-152.78 -148.02)" fill="#fff"/>
    <path d="M722.66,303a13,13,0,0,1-5.56,1.12c-5.84,0-9.64-4-9.64-9.88S711.54,284,717.86,284a11.76,11.76,0,0,1,4.88,1l-0.8,2.72a8.16,8.16,0,0,0-4.08-.92c-4.44,0-6.84,3.28-6.84,7.32,0,4.48,2.88,7.24,6.72,7.24a10,10,0,0,0,4.32-1Z" transform="translate(-152.78 -148.02)" fill="#fff"/>
    <path d="M741.26,303.76h-3.48v-8.12h-2.6a4.57,4.57,0,0,0-3.24,1.08c-1.44,1.16-2,3.56-2.72,5.44a11.88,11.88,0,0,1-.8,1.6h-3.76a12.6,12.6,0,0,0,1.2-2.2c0.84-1.88,1.32-4.4,3-5.84a4.62,4.62,0,0,1,2.2-1.12v-0.12c-2.52-.28-5.12-1.84-5.12-4.8a4.66,4.66,0,0,1,2.56-4.2,13.55,13.55,0,0,1,6.48-1.32,53.86,53.86,0,0,1,6.24.4v19.2Zm-3.48-17a19.63,19.63,0,0,0-2.92-.2c-2.4,0-5.24.68-5.24,3.36,0,2.48,3.08,3.36,5.16,3.36h3v-6.52Z" transform="translate(-152.78 -148.02)" fill="#fff"/>
    <path d="M746.14,301.68a2.36,2.36,0,0,1,2.4-2.52A2.52,2.52,0,1,1,746.14,301.68Z" transform="translate(-152.78 -148.02)" fill="#fff"/>
    <path d="M754.42,301.68a2.36,2.36,0,0,1,2.4-2.52A2.52,2.52,0,1,1,754.42,301.68Z" transform="translate(-152.78 -148.02)" fill="#fff"/>
    <path d="M762.7,301.68a2.36,2.36,0,0,1,2.4-2.52A2.52,2.52,0,1,1,762.7,301.68Z" transform="translate(-152.78 -148.02)" fill="#fff"/>
    <path d="M473.34,324.8v27h-3.48v-24H457.34v24h-3.48v-27h19.48Z" transform="translate(-152.78 -148.02)" fill="#fff"/>
    <path d="M479.3,338.72c0-2.48-.08-4.48-0.16-6.32h3.16l0.16,3.32h0.08a7.61,7.61,0,0,1,6.88-3.76c4.68,0,8.2,4,8.2,9.84,0,7-4.24,10.4-8.8,10.4a6.79,6.79,0,0,1-6-3h-0.08v10.52H479.3v-21Zm3.48,5.16a7.92,7.92,0,0,0,.16,1.44,5.43,5.43,0,0,0,5.28,4.12c3.72,0,5.88-3,5.88-7.48,0-3.88-2-7.2-5.76-7.2a5.62,5.62,0,0,0-5.32,4.36,5.72,5.72,0,0,0-.24,1.44v3.32Z" transform="translate(-152.78 -148.02)" fill="#fff"/>
    <path d="M505.3,332.4v8.16c0,3.08,0,5-.2,7.76l0.12,0c1.16-2.36,1.84-3.72,3.12-6l6-10h4.12v19.36h-3.36v-8.2c0-3.16.08-4.8,0.24-7.92h-0.12c-1.24,2.48-2.08,4-3.2,6-1.84,3-4,6.72-6,10.12h-4V332.4h3.32Z" transform="translate(-152.78 -148.02)" fill="#fff"/>
    <path d="M527.62,332.4v7.8h9.2v-7.8h3.48v19.36h-3.48V343h-9.2v8.76h-3.48V332.4h3.48Z" transform="translate(-152.78 -148.02)" fill="#fff"/>
    <path d="M560.34,351.76h-3.48v-8.12h-2.6a4.57,4.57,0,0,0-3.24,1.08c-1.44,1.16-2,3.56-2.72,5.44a11.88,11.88,0,0,1-.8,1.6h-3.76a12.6,12.6,0,0,0,1.2-2.2c0.84-1.88,1.32-4.4,3-5.84a4.62,4.62,0,0,1,2.2-1.12v-0.12c-2.52-.28-5.12-1.84-5.12-4.8a4.66,4.66,0,0,1,2.56-4.2,13.55,13.55,0,0,1,6.48-1.32,53.86,53.86,0,0,1,6.24.4v19.2Zm-3.48-17a19.63,19.63,0,0,0-2.92-.2c-2.4,0-5.24.68-5.24,3.36,0,2.48,3.08,3.36,5.16,3.36h3v-6.52Z" transform="translate(-152.78 -148.02)" fill="#fff"/>
    <path d="M580.74,332.4v19.36h-3.48v-16.6h-6.64v5c0,5.44-.52,9.08-3,10.72a5.65,5.65,0,0,1-3.84,1.2l-0.36-2.76a4.36,4.36,0,0,0,1.92-.8c1.8-1.32,2-4,2-8.36v-7.8h13.44Z" transform="translate(-152.78 -148.02)" fill="#fff"/>
    <path d="M596.26,332.4l4.24,11.44c0.44,1.28.92,2.8,1.24,4h0.08c0.36-1.16.76-2.64,1.24-4l3.84-11.36h3.72l-5.28,13.8c-2.52,6.64-4.24,10-6.64,12.12a9.53,9.53,0,0,1-4.32,2.28l-0.88-3a9.3,9.3,0,0,0,3.08-1.72,10.67,10.67,0,0,0,3-3.92,2.52,2.52,0,0,0,.28-0.84,3.07,3.07,0,0,0-.24-0.92l-7.16-17.84h3.84Z" transform="translate(-152.78 -148.02)" fill="#fff"/>
    <path d="M629.74,332.4v19.36h-3.52V335.2h-9v16.56h-3.48V332.4h16Z" transform="translate(-152.78 -148.02)" fill="#fff"/>
    <path d="M635.46,338.72c0-2.48-.08-4.48-0.16-6.32h3.16l0.16,3.32h0.08a7.61,7.61,0,0,1,6.88-3.76c4.68,0,8.2,4,8.2,9.84,0,7-4.24,10.4-8.8,10.4a6.79,6.79,0,0,1-6-3h-0.08v10.52h-3.48v-21Zm3.48,5.16a7.92,7.92,0,0,0,.16,1.44,5.43,5.43,0,0,0,5.28,4.12c3.72,0,5.88-3,5.88-7.48,0-3.88-2-7.2-5.76-7.2a5.62,5.62,0,0,0-5.32,4.36,5.72,5.72,0,0,0-.24,1.44v3.32Z" transform="translate(-152.78 -148.02)" fill="#fff"/>
    <path d="M668.94,351.76l-0.28-2.44h-0.12a7.21,7.21,0,0,1-5.92,2.88,5.51,5.51,0,0,1-5.92-5.56c0-4.68,4.16-7.24,11.64-7.2V339c0-1.6-.44-4.48-4.4-4.48a9.64,9.64,0,0,0-5,1.44l-0.8-2.32a12,12,0,0,1,6.36-1.72c5.92,0,7.36,4,7.36,7.92v7.24a27.22,27.22,0,0,0,.32,4.64h-3.2Zm-0.52-9.88c-3.84-.08-8.2.6-8.2,4.36a3.11,3.11,0,0,0,3.32,3.36,4.82,4.82,0,0,0,4.68-3.24,3.69,3.69,0,0,0,.2-1.12v-3.36Z" transform="translate(-152.78 -148.02)" fill="#fff"/>
    <path d="M677.42,332.64a41.21,41.21,0,0,1,6.16-.44c3.24,0,8.6.52,8.6,4.84,0,2.4-1.84,3.88-4,4.36v0.08c2.84,0.4,4.92,2,4.92,4.8,0,5.08-6.4,5.72-10.2,5.72-2.16,0-4.4-.16-5.44-0.24V332.64Zm3.32,16.8a21.28,21.28,0,0,0,2.84.16c2.36,0,5.88-.56,5.88-3.36s-2.8-3.4-6.16-3.4h-2.56v6.6Zm0-8.92h2.64c2.6,0,5.28-.76,5.28-3,0-1.92-1.68-2.84-5.2-2.84a24.89,24.89,0,0,0-2.72.16v5.72Z" transform="translate(-152.78 -148.02)" fill="#fff"/>
    <path d="M712.29,332.4v19.36h-3.48v-16.6h-6.64v5c0,5.44-.52,9.08-3,10.72a5.65,5.65,0,0,1-3.84,1.2l-0.36-2.76a4.36,4.36,0,0,0,1.92-.8c1.8-1.32,2-4,2-8.36v-7.8h13.44Z" transform="translate(-152.78 -148.02)" fill="#fff"/>
    <path d="M720,342.72c0.08,4.76,3.12,6.72,6.64,6.72a12.73,12.73,0,0,0,5.36-1l0.6,2.52a15.68,15.68,0,0,1-6.44,1.2c-6,0-9.52-3.92-9.52-9.76S720.1,332,725.74,332c6.32,0,8,5.56,8,9.12a13.28,13.28,0,0,1-.12,1.64H720Zm10.32-2.52c0-2.24-.92-5.72-4.88-5.72-3.56,0-5.12,3.28-5.4,5.72h10.28Z" transform="translate(-152.78 -148.02)" fill="#fff"/>
    <path d="M741.5,332.4v7.8h9.2v-7.8h3.48v19.36h-3.48V343h-9.2v8.76H738V332.4h3.48Z" transform="translate(-152.78 -148.02)" fill="#fff"/>
    <path d="M763.18,332.4v8.16c0,3.08,0,5-.2,7.76l0.12,0c1.16-2.36,1.84-3.72,3.12-6l6-10h4.12v19.36H773v-8.2c0-3.16.08-4.8,0.24-7.92h-0.12c-1.24,2.48-2.08,4-3.2,6-1.84,3-4,6.72-6,10.12h-4V332.4h3.32Z" transform="translate(-152.78 -148.02)" fill="#fff"/>
    <path d="M784.05,342.72c0.08,4.76,3.12,6.72,6.64,6.72a12.73,12.73,0,0,0,5.36-1l0.6,2.52a15.68,15.68,0,0,1-6.44,1.2c-6,0-9.52-3.92-9.52-9.76S784.13,332,789.77,332c6.32,0,8,5.56,8,9.12a13.26,13.26,0,0,1-.12,1.64h-13.6Zm10.32-2.52c0-2.24-.92-5.72-4.88-5.72-3.56,0-5.12,3.28-5.4,5.72h10.28Z" transform="translate(-152.78 -148.02)" fill="#fff"/>
    <path d="M801.3,349.68a2.36,2.36,0,0,1,2.4-2.52A2.52,2.52,0,1,1,801.3,349.68Z" transform="translate(-152.78 -148.02)" fill="#fff"/>
    <path d="M809.58,349.68a2.36,2.36,0,0,1,2.4-2.52A2.52,2.52,0,1,1,809.58,349.68Z" transform="translate(-152.78 -148.02)" fill="#fff"/>
    <path d="M817.85,349.68a2.36,2.36,0,0,1,2.4-2.52A2.52,2.52,0,1,1,817.85,349.68Z" transform="translate(-152.78 -148.02)" fill="#fff"/>
    <path d="M480.14,373.12a40.35,40.35,0,0,1,6.68-.52c3.44,0,6,.8,7.56,2.24a7.25,7.25,0,0,1,2.36,5.64,7.94,7.94,0,0,1-2.08,5.76c-1.84,2-4.84,3-8.24,3a12,12,0,0,1-2.8-.24v10.8h-3.48V373.12Zm3.48,13a11.66,11.66,0,0,0,2.88.28c4.2,0,6.76-2,6.76-5.76,0-3.56-2.52-5.28-6.36-5.28a14.58,14.58,0,0,0-3.28.28v10.48Z" transform="translate(-152.78 -148.02)" fill="#fff"/>
    <path d="M502.14,390.72c0.08,4.76,3.12,6.72,6.64,6.72a12.73,12.73,0,0,0,5.36-1l0.6,2.52a15.68,15.68,0,0,1-6.44,1.2c-6,0-9.52-3.92-9.52-9.76S502.22,380,507.86,380c6.32,0,8,5.56,8,9.12a13.28,13.28,0,0,1-.12,1.64h-13.6Zm10.32-2.52c0-2.24-.92-5.72-4.88-5.72-3.56,0-5.12,3.28-5.4,5.72h10.28Z" transform="translate(-152.78 -148.02)" fill="#fff"/>
    <path d="M523.58,380.4V397h6.76V380.4h3.44V397h6.76V380.4H544v19.36H520.14V380.4h3.44Z" transform="translate(-152.78 -148.02)" fill="#fff"/>
    <path d="M560.46,399.76l-0.28-2.44h-0.12a7.21,7.21,0,0,1-5.92,2.88,5.51,5.51,0,0,1-5.92-5.56c0-4.68,4.16-7.24,11.64-7.2V387c0-1.6-.44-4.48-4.4-4.48a9.64,9.64,0,0,0-5,1.44l-0.8-2.32A12,12,0,0,1,556,380c5.92,0,7.36,4,7.36,7.92v7.24a27.22,27.22,0,0,0,.32,4.64h-3.2Zm-0.52-9.88c-3.84-.08-8.2.6-8.2,4.36a3.11,3.11,0,0,0,3.32,3.36,4.82,4.82,0,0,0,4.68-3.24,3.69,3.69,0,0,0,.2-1.12v-3.36Z" transform="translate(-152.78 -148.02)" fill="#fff"/>
    <path d="M572.38,380.4v8.16h3.32c0.6-5.12,4-8.6,8.6-8.6,5,0,8.48,4,8.48,10,0,6.28-3.84,10.28-8.72,10.28-4.64,0-8-3.44-8.44-9h-3.24v8.52h-3.44V380.4h3.44Zm16.88,9.6c0-3.64-1.64-7.4-5.08-7.4s-5.2,3.68-5.2,7.6c0,3.76,1.72,7.4,5.12,7.4C587.66,397.6,589.26,393.68,589.26,390Z" transform="translate(-152.78 -148.02)" fill="#fff"/>
    <path d="M621.62,380.4v19.36H618.1V383.2h-9v16.56h-3.48V380.4h16Z" transform="translate(-152.78 -148.02)" fill="#fff"/>
    <path d="M627.34,386.72c0-2.48-.08-4.48-0.16-6.32h3.16l0.16,3.32h0.08a7.61,7.61,0,0,1,6.88-3.76c4.68,0,8.2,4,8.2,9.84,0,7-4.24,10.4-8.8,10.4a6.79,6.79,0,0,1-6-3h-0.08v10.52h-3.48v-21Zm3.48,5.16a7.92,7.92,0,0,0,.16,1.44,5.43,5.43,0,0,0,5.28,4.12c3.72,0,5.88-3,5.88-7.48,0-3.88-2-7.2-5.76-7.2a5.62,5.62,0,0,0-5.32,4.36,5.72,5.72,0,0,0-.24,1.44v3.32Z" transform="translate(-152.78 -148.02)" fill="#fff"/>
    <path d="M667.61,389.92c0,7.16-5,10.28-9.64,10.28-5.24,0-9.28-3.84-9.28-10,0-6.48,4.24-10.28,9.6-10.28C663.85,380,667.61,384,667.61,389.92Zm-15.36.2c0,4.24,2.44,7.44,5.88,7.44S664,394.4,664,390c0-3.28-1.64-7.44-5.8-7.44S652.26,386.44,652.26,390.12Z" transform="translate(-152.78 -148.02)" fill="#fff"/>
    <path d="M686.69,373.84a26.42,26.42,0,0,1-4,.88c-3.12.48-5.4,1.52-6.88,3.64a13.82,13.82,0,0,0-2.12,6.4h0.12a7.33,7.33,0,0,1,6.72-4.36c4.76,0,8.24,3.4,8.24,9.56,0,6.32-3.28,10.24-9,10.24-6.8,0-9-6.52-9-13,0-4.4.92-8,3-10.72,1.88-2.68,4.56-3.92,8.32-4.56a28.21,28.21,0,0,0,4.8-1ZM679.78,383a4.7,4.7,0,0,0-4.36,2.64,8.47,8.47,0,0,0-1,4.12c0,3.2,1.56,7.8,5.4,7.8s5.32-3.76,5.32-7.32C685.17,387.08,683.94,383,679.78,383Z" transform="translate(-152.78 -148.02)" fill="#fff"/>
    <path d="M707.85,380.4v19.36h-3.48v-16.6h-6.64v5c0,5.44-.52,9.08-3,10.72a5.65,5.65,0,0,1-3.84,1.2l-0.36-2.76a4.36,4.36,0,0,0,1.92-.8c1.8-1.32,2-4,2-8.36v-7.8h13.44Z" transform="translate(-152.78 -148.02)" fill="#fff"/>
    <path d="M715.58,390.72c0.08,4.76,3.12,6.72,6.64,6.72a12.73,12.73,0,0,0,5.36-1l0.6,2.52a15.68,15.68,0,0,1-6.44,1.2c-6,0-9.52-3.92-9.52-9.76S715.66,380,721.3,380c6.32,0,8,5.56,8,9.12a13.28,13.28,0,0,1-.12,1.64h-13.6Zm10.32-2.52c0-2.24-.92-5.72-4.88-5.72-3.56,0-5.12,3.28-5.4,5.72H725.9Z" transform="translate(-152.78 -148.02)" fill="#fff"/>
    <path d="M733.86,380.4h4.32l3.52,9.76c0.48,1.44,1.32,3.8,1.76,5.32h0.08c0.44-1.44,1.52-4.52,2.28-6.64l3.12-8.44h4.36l1.36,19.36h-3.36l-0.44-9.24c-0.12-2.08-.28-4.56-0.36-6.92h-0.12c-0.52,1.76-1,3.32-2.12,6.28l-3.72,9.76H742l-3.44-9.56c-0.6-1.84-1.44-4.64-1.92-6.44h-0.16c-0.08,2.28-.2,4.84-0.32,7l-0.48,9.16h-3.24Z" transform="translate(-152.78 -148.02)" fill="#fff"/>
    <path d="M760.3,380.4l4.24,11.44c0.44,1.28.92,2.8,1.24,4h0.08c0.36-1.16.76-2.64,1.24-4l3.84-11.36h3.72l-5.28,13.8c-2.52,6.64-4.24,10-6.64,12.12a9.54,9.54,0,0,1-4.32,2.28l-0.88-3a9.3,9.3,0,0,0,3.08-1.72,10.67,10.67,0,0,0,3-3.92,2.52,2.52,0,0,0,.28-0.84,3.07,3.07,0,0,0-.24-0.92l-7.16-17.84h3.84Z" transform="translate(-152.78 -148.02)" fill="#fff"/>
    <path d="M775,397.68a2.36,2.36,0,0,1,2.4-2.52A2.52,2.52,0,1,1,775,397.68Z" transform="translate(-152.78 -148.02)" fill="#fff"/>
    <path d="M783.3,397.68a2.36,2.36,0,0,1,2.4-2.52A2.52,2.52,0,1,1,783.3,397.68Z" transform="translate(-152.78 -148.02)" fill="#fff"/>
    <path d="M791.58,397.68a2.36,2.36,0,0,1,2.4-2.52A2.52,2.52,0,1,1,791.58,397.68Z" transform="translate(-152.78 -148.02)" fill="#fff"/>
  </g>
</svg>
