<svg id="Layer_2" data-name="Layer 2" xmlns="http://www.w3.org/2000/svg" viewBox="0 0 1294.44 929.95">
  <title>2</title>
  <rect width="1294.44" height="929.95" rx="12" ry="12" fill="#fafdff"/>
  <path d="M621.49,771.39h455.4a59,59,0,0,1,59,59v0a59,59,0,0,1-59,59H527.95a12.23,12.23,0,0,1-12.23-12.23v0A105.77,105.77,0,0,1,621.49,771.39Z" fill="#f0faff"/>
  <g>
    <polygon points="516.72 850.39 547.71 809.39 869.38 809.39 900.87 850.39 516.72 850.39" fill="#3094bf"/>
    <polygon points="544.47 442.58 601.04 376.39 823.38 376.39 876.46 444.91 544.47 442.58" fill="#54a1cc"/>
    <rect x="540.38" y="439.39" width="338" height="424" rx="12" ry="12" fill="#81c3ef"/>
    <rect x="513.38" y="846.39" width="391" height="36" rx="12" ry="12" fill="#54a1cc"/>
  </g>
  <path d="M650.47,955.54c8.38,17.35,21,24.41,27.32,27q2,0.59,4.1,1.31c20,7,33.49,20.54,30.09,30.22s-22.36,11.85-42.37,4.85a67.41,67.41,0,0,1-21.34-11.72l-2,5.35L622,1008.79l-2.8-44.9S638.91,931.59,650.47,955.54Z" transform="translate(-159.62 -154.61)" fill="#333a3f"/>
  <g>
    <polygon points="516.72 850.39 547.71 809.39 869.38 809.39 900.87 850.39 516.72 850.39" fill="#3094bf"/>
    <polygon points="544.47 442.58 601.04 376.39 823.38 376.39 876.46 444.91 544.47 442.58" fill="#54a1cc"/>
    <rect x="540.38" y="439.39" width="338" height="424" rx="12" ry="12" fill="#81c3ef"/>
    <rect x="513.38" y="846.39" width="391" height="36" rx="12" ry="12" fill="#54a1cc"/>
  </g>
  <polygon points="813.38 429.39 864.38 429.39 823.13 376.39 780.38 377.15 780.38 429.39 813.38 429.39" fill="#2584a5"/>
  <g>
    <path d="M754.81,410.62L778.63,386a9.71,9.71,0,0,1,7-3H956.07a9.71,9.71,0,0,1,7.37,3.4l22.46,26.25Z" transform="translate(-159.62 -154.61)" fill="#615f68"/>
    <g>
      <path d="M975.68,408H763.32A13.39,13.39,0,0,0,750,421.61V570.37A13.41,13.41,0,0,0,763.32,584h2.29a1,1,0,0,0,.39-0.28V480.38A13.11,13.11,0,0,1,779.22,467H959.78A13.11,13.11,0,0,1,973,480.38V583.72a1,1,0,0,0,.39.28h2.29A13.41,13.41,0,0,0,989,570.37V421.61A13.39,13.39,0,0,0,975.68,408Z" transform="translate(-159.62 -154.61)" fill="#868589"/>
      <path d="M973,480.38A13.11,13.11,0,0,0,959.78,467H779.22A13.11,13.11,0,0,0,766,480.38V583.72a1,1,0,0,1-.39.28H973.39a1,1,0,0,1-.39-0.28V480.38Z" transform="translate(-159.62 -154.61)" fill="#403f48"/>
    </g>
    <line x1="590.38" y1="273.39" x2="829.38" y2="273.39" fill="none" stroke="#5a5960" stroke-miterlimit="10" stroke-width="2"/>
    <line x1="590.38" y1="297.39" x2="829.38" y2="297.39" fill="none" stroke="#5a5960" stroke-miterlimit="10" stroke-width="2"/>
    <line x1="667.38" y1="273.39" x2="667.38" y2="297.39" fill="none" stroke="#5a5960" stroke-miterlimit="10" stroke-width="2"/>
    <line x1="751.38" y1="273.39" x2="751.38" y2="297.39" fill="none" stroke="#5a5960" stroke-miterlimit="10" stroke-width="2"/>
    <line x1="667.38" y1="291.89" x2="751.38" y2="291.89" fill="none" stroke="#5a5960" stroke-miterlimit="10"/>
    <polygon points="605.97 355.39 595.18 377.39 826.28 377.39 813.78 355.39 605.97 355.39" fill="#606068"/>
    <rect x="595.18" y="377.15" width="231.09" height="4.54" fill="#56565e"/>
    <rect x="613.92" y="321.13" width="191.92" height="16.66" rx="7.33" ry="7.33" fill="#36353d"/>
    <rect x="623.76" y="334.57" width="10.6" height="13.63" fill="#323138"/>
    <rect x="786.15" y="334.57" width="10.6" height="13.63" fill="#323138"/>
    <rect x="675.15" y="334.57" width="10.6" height="13.63" fill="#323138"/>
    <rect x="734.2" y="334.57" width="10.6" height="13.63" fill="#323138"/>
    <circle cx="607.11" cy="283.46" r="4.54" fill="#4edd8c"/>
    <circle cx="621.87" cy="283.46" r="4.54" fill="#28d7e0"/>
    <circle cx="813.78" cy="285.73" r="6.44" fill="#403f48"/>
    <line x1="590.38" y1="413.39" x2="606.38" y2="413.39" fill="none" stroke="#5a5960" stroke-miterlimit="10" stroke-width="2"/>
    <line x1="813.38" y1="413.39" x2="829.38" y2="413.39" fill="none" stroke="#5a5960" stroke-miterlimit="10" stroke-width="2"/>
    <rect x="673.73" y="277.79" width="71.07" height="10.41" fill="#5eefef"/>
  </g>
  <rect x="533.38" y="837.39" width="352" height="9" fill="#3094bf"/>
  <line x1="540.38" y1="747.89" x2="878.38" y2="747.89" fill="none" stroke="#65aad1" stroke-miterlimit="10" stroke-width="3"/>
  <line x1="540.38" y1="761.89" x2="878.38" y2="761.89" fill="none" stroke="#65aad1" stroke-miterlimit="10" stroke-width="3"/>
  <path d="M371.63,70.53H430a33.62,33.62,0,0,1,33.62,33.62V205.71A33.62,33.62,0,0,1,430,239.33H387a49,49,0,0,1-49-49V104.15A33.62,33.62,0,0,1,371.63,70.53Z" fill="#f7e6dd"/>
  <path d="M626,226.22a12.64,12.64,0,0,0-12.64-12.64l-137.49-4.73,1.78,25.82c0,15.85,15.64,27.47,31.49,27.47h81s9.25-.58,10.41,21.68c0.21,4,1.05,13,1.66,19.18l0.2,2a5,5,0,0,0,5,4.54h9A9.55,9.55,0,0,0,626,300V226.22Z" transform="translate(-159.62 -154.61)" fill="#333a3f"/>
  <rect x="450.8" y="144.8" width="23.73" height="38.45" rx="8.89" ry="8.89" fill="#dcbfb1"/>
  <path d="M604.19,304.15" transform="translate(-159.62 -154.61)" fill="#c1a187"/>
  <path d="M599.76,332.86" transform="translate(-159.62 -154.61)" fill="#68513e"/>
  <path d="M520.16,296.91c-4.47,0-8.09,2.09-8.09,8.09h16.19C528.25,299,524.63,296.91,520.16,296.91Z" transform="translate(-159.62 -154.61)" fill="#333a3f"/>
  <path d="M483.55,952.87c-8.38,17.35-21,24.41-27.32,27q-2,.59-4.1,1.31c-20,7-33.49,20.54-30.09,30.22s22.36,11.85,42.37,4.85a67.41,67.41,0,0,0,21.34-11.72l2,5.35,24.34-3.73,2.8-44.9S495.11,928.92,483.55,952.87Z" transform="translate(-159.62 -154.61)" fill="#333a3f"/>
  <polygon points="324.11 525.93 297.96 820.39 358.06 820.39 410.8 580.42 457.99 820.39 508.96 820.39 492.17 523.47 324.11 525.93" fill="#63b6db"/>
  <polygon points="374.52 227.39 378.09 250.39 435.51 250.39 444.57 227.39 374.52 227.39" fill="#f7e6dd"/>
  <path d="M581.44,296.91c-4.47,0-8.09,2.09-8.09,8.09h16.19C589.53,299,585.91,296.91,581.44,296.91Z" transform="translate(-159.62 -154.61)" fill="#333a3f"/>
  <rect x="382.06" y="141.34" width="18.52" height="48.04" rx="6.93" ry="6.93" fill="#dcbfb1"/>
  <rect x="378.41" y="167.42" width="21.86" height="21.97" rx="8.18" ry="8.18" fill="#dcbfb1"/>
  <rect x="314.18" y="243.42" width="186.73" height="297.8" rx="27.65" ry="27.65" fill="#005faa"/>
  <rect x="418.96" y="381.44" width="58.76" height="209.66" rx="22" ry="22" transform="translate(315.54 -329.21) rotate(45)" fill="#005faa"/>
  <rect x="344.93" y="120.67" width="31.22" height="12.43" rx="4.65" ry="4.65" fill="#333a3f"/>
  <rect x="406.21" y="120.67" width="31.22" height="12.43" rx="4.65" ry="4.65" fill="#333a3f"/>
  <path d="M586.26,350.95c0.62,3.78-6.54,8.1-16,9.66s-17.62-.25-18.24-4" transform="translate(-159.62 -154.61)" fill="#dcbfb1"/>
  <rect x="644.85" y="386.4" width="58.76" height="209.66" rx="22" ry="22" transform="translate(-319.07 307.19) rotate(-34.06)" fill="#005faa"/>
  <rect x="330.78" y="429.69" width="58.76" height="153.13" rx="22" ry="22" transform="translate(813.18 454.95) rotate(135)" fill="#005faa"/>
  <g>
    <rect x="288.06" y="430.74" width="41.38" height="50.94" rx="12" ry="12" transform="translate(-391.78 197.33) rotate(-45)" fill="#f7e6dd"/>
    <circle cx="163.29" cy="301.29" r="14.8" fill="#f7e6dd"/>
    <rect x="167.34" y="274.52" width="11.68" height="29.59" rx="4.37" ry="4.37" fill="#f7e6dd"/>
    <rect x="273.82" y="427.28" width="8.82" height="44.32" rx="3.3" ry="3.3" transform="translate(-395.93 173.77) rotate(-45)" fill="#f7e6dd"/>
    <rect x="279.12" y="416.81" width="8.82" height="44.32" rx="3.3" ry="3.3" transform="translate(-386.98 174.44) rotate(-45)" fill="#f7e6dd"/>
    <rect x="286.53" y="408.34" width="8.82" height="44.32" rx="3.3" ry="3.3" transform="translate(-378.82 177.2) rotate(-45)" fill="#f7e6dd"/>
    <rect x="295.87" y="401.33" width="8.82" height="44.32" rx="3.3" ry="3.3" transform="translate(-371.13 181.76) rotate(-45)" fill="#f7e6dd"/>
  </g>
  <polygon points="372.5 233.75 368.59 251.93 403.01 267.12 407.18 243.42 372.5 233.75" fill="#094d7c"/>
  <polygon points="442 233.75 445.91 251.93 411.48 267.12 407.31 243.42 442 233.75" fill="#094d7c"/>
  <rect x="321.89" y="526.8" width="173.27" height="17.08" rx="6.4" ry="6.4" fill="#333a3f"/>
  <rect x="339.58" y="525.54" width="8.46" height="21.46" rx="2.33" ry="2.33" fill="#63b6db"/>
  <rect x="376.97" y="525.54" width="8.46" height="21.46" rx="2.33" ry="2.33" fill="#63b6db"/>
  <rect x="431.28" y="525.54" width="8.46" height="21.46" rx="2.33" ry="2.33" fill="#63b6db"/>
  <rect x="476.01" y="525.54" width="8.46" height="21.46" rx="2.33" ry="2.33" fill="#63b6db"/>
  <line x1="406.88" y1="266.39" x2="406.88" y2="526.39" fill="none" stroke="#005893" stroke-miterlimit="10" stroke-width="3"/>
  <circle cx="429.91" cy="294.83" r="4.52" fill="#005faa"/>
  <circle cx="429.91" cy="294.83" r="4.52" fill="none" stroke="#005893" stroke-miterlimit="10" stroke-width="3"/>
  <circle cx="429.91" cy="356.16" r="4.52" fill="none" stroke="#005893" stroke-miterlimit="10" stroke-width="3"/>
  <circle cx="429.91" cy="414.05" r="4.52" fill="none" stroke="#005893" stroke-miterlimit="10" stroke-width="3"/>
  <circle cx="429.91" cy="471" r="4.52" fill="none" stroke="#005893" stroke-miterlimit="10" stroke-width="3"/>
  <circle cx="165.59" cy="341.81" r="4.52" fill="none" stroke="#005893" stroke-miterlimit="10" stroke-width="3"/>
  <path d="M528.21,701.61s-1.08,12-16.88,26.6c-12.13,11.23-29.82,11-29.82,11" transform="translate(-159.62 -154.61)" fill="none" stroke="#4fa7c6" stroke-linecap="round" stroke-miterlimit="10" stroke-width="2"/>
  <polyline points="335.37 581.13 337.13 564.39 359.38 564.39" fill="none" stroke="#4fa7c6" stroke-linecap="round" stroke-miterlimit="10" stroke-width="2"/>
  <path d="M605.71,701.61s1.08,12,16.88,26.6c12.13,11.23,29.82,11,29.82,11" transform="translate(-159.62 -154.61)" fill="none" stroke="#4fa7c6" stroke-linecap="round" stroke-miterlimit="10" stroke-width="2"/>
  <polygon points="501.38 429.51 442.38 466.39 445.91 506.06 501.38 483.39 501.38 429.51" fill="#09578c"/>
  <path d="M660,546.12L612.36,575.9A24.17,24.17,0,0,0,601,596.4v19.94L660,608V546.12Z" transform="translate(-159.62 -154.61)" fill="#09578c"/>
  <rect x="647.73" y="505.04" width="58.76" height="153.13" rx="22" ry="22" transform="matrix(0.56, 0.83, -0.83, 0.56, 620.17, -459.69)" fill="#005faa"/>
  <polyline points="478.85 581.13 477.54 564.39 454.38 564.39" fill="none" stroke="#4fa7c6" stroke-linecap="round" stroke-miterlimit="10" stroke-width="2"/>
  <line x1="299.47" y1="803.37" x2="361.79" y2="803.34" fill="none" stroke="#4fa7c6" stroke-linecap="round" stroke-miterlimit="10" stroke-width="2"/>
  <line x1="454.46" y1="802.37" x2="507.92" y2="802.05" fill="none" stroke="#4fa7c6" stroke-linecap="round" stroke-miterlimit="10" stroke-width="2"/>
  <rect x="392.78" y="525.83" width="30.71" height="19.03" rx="4.88" ry="4.88" fill="#e6e6e6"/>
  <path d="M552,211.47" transform="translate(-159.62 -154.61)" fill="#333a3f"/>
  <g>
    <rect x="601.83" y="600.15" width="11.68" height="29.59" rx="4.37" ry="4.37" transform="translate(219.32 1294.07) rotate(-120)" fill="#e5c6b7"/>
    <rect x="602.8" y="603.23" width="41.38" height="50.94" rx="12" ry="12" transform="translate(417.1 1358.3) rotate(-132.21)" fill="#f7e6dd"/>
    <circle cx="624.49" cy="614.91" r="14.8" transform="translate(-179.7 1054.12) rotate(-87.21)" fill="#f7e6dd"/>
    <rect x="590.09" y="621.63" width="8.82" height="24.74" rx="3.3" ry="3.3" transform="translate(255.3 1329.76) rotate(-124.92)" fill="#f7e6dd"/>
    <rect x="579.89" y="634.71" width="8.82" height="24.74" rx="3.3" ry="3.3" transform="translate(737.88 1306.12) rotate(-158.97)" fill="#f7e6dd"/>
    <rect x="597.34" y="633.02" width="8.82" height="24.74" rx="3.3" ry="3.3" transform="translate(257.35 1353.63) rotate(-124.92)" fill="#f7e6dd"/>
    <rect x="586.14" y="647.11" width="8.82" height="24.74" rx="3.3" ry="3.3" transform="matrix(-0.93, -0.36, 0.36, -0.93, 745.51, 1332.33)" fill="#f7e6dd"/>
    <rect x="608.5" y="638.95" width="8.82" height="24.74" rx="3.3" ry="3.3" transform="translate(270.03 1372.09) rotate(-124.92)" fill="#f7e6dd"/>
    <rect x="598.29" y="652.03" width="8.82" height="24.74" rx="3.3" ry="3.3" transform="translate(767.24 1346.21) rotate(-158.97)" fill="#f7e6dd"/>
    <rect x="617.6" y="644.43" width="7.21" height="20.22" rx="3.16" ry="3.16" transform="translate(616.14 1389) rotate(-146.36)" fill="#f7e6dd"/>
    <rect x="613.75" y="657.43" width="7.21" height="20.22" rx="3.16" ry="3.16" transform="translate(1079.88 1176) rotate(179.59)" fill="#f7e6dd"/>
  </g>
</svg>
