<svg id="Layer_3" data-name="Layer 3" xmlns="http://www.w3.org/2000/svg" viewBox="0 0 1405.77 1041.76">
  <title>9</title>
  <rect width="1405.77" height="1041.76" rx="12" ry="12" fill="#fafdff"/>
  <rect x="709.59" y="931.15" width="649.72" height="81.55" rx="40.77" ry="40.77" fill="#d7f3ff"/>
  <rect x="61.38" y="841.33" width="649.72" height="81.55" rx="40.77" ry="40.77" fill="#d7f3ff"/>
  <rect x="616.57" y="298.5" width="202.49" height="266.99" rx="12" ry="12" fill="#d3dee2"/>
  <path d="M154.32,66.17H617a12,12,0,0,1,12,12V837.9a1.24,1.24,0,0,1-1.24,1.24H142.9a0.58,0.58,0,0,1-.58-0.58V78.17a12,12,0,0,1,12-12Z" fill="#81c3ef"/>
  <path d="M183.05,90.81H588.27a12,12,0,0,1,12,12V837.9a1.24,1.24,0,0,1-1.24,1.24H171.63a0.58,0.58,0,0,1-.58-0.58V102.81A12,12,0,0,1,183.05,90.81Z" fill="#ccefff"/>
  <rect x="117.24" y="837.15" width="538" height="27.16" rx="12" ry="12" fill="#6ba2c1"/>
  <rect x="100.66" y="862.31" width="575.56" height="27.16" rx="12" ry="12" fill="#5c8a9e"/>
  <g>
    <circle cx="550.49" cy="437.76" r="27.88" fill="#87bfd8"/>
    <rect x="468.83" y="457.01" width="97.08" height="26.24" rx="12" ry="12" fill="#6ba2c1"/>
    <rect x="535.74" y="431.99" width="30.17" height="51.26" rx="12" ry="12" fill="#6ba2c1"/>
  </g>
  <g>
    <rect x="665.77" y="317.01" width="110.97" height="143.97" rx="12" ry="12" fill="#85a3b8"/>
    <rect x="675.16" y="326.8" width="91.19" height="46.02" rx="12" ry="12" fill="#b2d7ed"/>
    <rect x="675.16" y="380.14" width="25.93" height="20.22" rx="10.11" ry="10.11" fill="#b2d7ed"/>
    <rect x="708.3" y="380.14" width="25.93" height="20.22" rx="10.11" ry="10.11" fill="#b2d7ed"/>
    <rect x="741.45" y="380.14" width="25.93" height="20.22" rx="10.11" ry="10.11" fill="#b2d7ed"/>
    <rect x="675.16" y="405.95" width="25.93" height="20.22" rx="10.11" ry="10.11" fill="#b2d7ed"/>
    <rect x="708.3" y="405.95" width="25.93" height="20.22" rx="10.11" ry="10.11" fill="#b2d7ed"/>
    <rect x="741.45" y="405.95" width="25.93" height="20.22" rx="10.11" ry="10.11" fill="#b2d7ed"/>
    <rect x="675.16" y="431.32" width="25.93" height="20.22" rx="10.11" ry="10.11" fill="#b2d7ed"/>
    <rect x="708.3" y="431.32" width="25.93" height="20.22" rx="10.11" ry="10.11" fill="#b2d7ed"/>
    <rect x="741.45" y="431.32" width="25.93" height="20.22" rx="10.11" ry="10.11" fill="#b2d7ed"/>
    <g>
      <path d="M792.86,420.91h-0.08l-4.67,2.52-0.7-2.77,5.86-3.14h3.1v26.84h-3.51V420.91Z" transform="translate(-105.52 -81)" fill="#59829b"/>
      <path d="M806.16,444.36v-2.23l2.85-2.77c6.85-6.52,10-10,10-14,0-2.73-1.32-5.24-5.33-5.24a9.14,9.14,0,0,0-5.7,2.27l-1.16-2.56a11.78,11.78,0,0,1,7.6-2.73c5.78,0,8.22,4,8.22,7.8,0,5-3.59,9-9.25,14.41l-2.15,2v0.08H823.3v3H806.16Z" transform="translate(-105.52 -81)" fill="#59829b"/>
      <path d="M843.36,420.58H833.12l-1,6.9a14.36,14.36,0,0,1,2.19-.17,11.34,11.34,0,0,1,5.78,1.44,7.65,7.65,0,0,1,3.84,6.9c0,5.24-4.17,9.17-10,9.17a13.14,13.14,0,0,1-6.69-1.65l0.91-2.77a12,12,0,0,0,5.74,1.49c3.43,0,6.36-2.23,6.36-5.82s-2.35-5.95-7.72-5.95a27.74,27.74,0,0,0-3.72.29l1.73-12.88h12.84v3.06Z" transform="translate(-105.52 -81)" fill="#59829b"/>
      <path d="M848.53,444.36v-2.23l2.85-2.77c6.85-6.52,10-10,10-14,0-2.73-1.32-5.24-5.33-5.24a9.14,9.14,0,0,0-5.7,2.27l-1.16-2.56a11.78,11.78,0,0,1,7.6-2.73c5.78,0,8.22,4,8.22,7.8,0,5-3.59,9-9.25,14.41l-2.15,2v0.08h12.06v3H848.53Z" transform="translate(-105.52 -81)" fill="#59829b"/>
    </g>
    <path d="M793.37,467.68h0l-1.75.94-0.26-1,2.2-1.18h1.16v10.07h-1.32v-8.8Z" transform="translate(-105.52 -81)" fill="#59829b"/>
    <path d="M794.62,502.29v-2.74h-4.68v-0.9l4.49-6.43h1.47v6.26h1.41v1.07h-1.41v2.74h-1.29Zm0-3.81v-3.36q0-.79,0-1.58h0c-0.31.59-.56,1-0.84,1.49l-2.46,3.42v0h3.3Z" transform="translate(-105.52 -81)" fill="#59829b"/>
    <path d="M796.95,517v0.9L792.56,527h-1.41l4.37-8.91v0H790.6V517h6.35Z" transform="translate(-105.52 -81)" fill="#59829b"/>
    <path d="M823.54,476.48v-0.84l1.07-1c2.57-2.45,3.73-3.75,3.75-5.27a1.8,1.8,0,0,0-2-2,3.43,3.43,0,0,0-2.14.85l-0.43-1a4.42,4.42,0,0,1,2.85-1,2.83,2.83,0,0,1,3.08,2.93c0,1.86-1.35,3.36-3.47,5.41l-0.81.74v0H830v1.13h-6.43Z" transform="translate(-105.52 -81)" fill="#59829b"/>
    <path d="M829.55,493.37h-3.84L825.33,496a5.41,5.41,0,0,1,.82-0.06,4.25,4.25,0,0,1,2.17.54,2.87,2.87,0,0,1,1.44,2.59,3.49,3.49,0,0,1-3.75,3.44,4.92,4.92,0,0,1-2.51-.62l0.34-1a4.51,4.51,0,0,0,2.15.56,2.22,2.22,0,0,0,2.39-2.18c0-1.3-.88-2.23-2.9-2.23a10.41,10.41,0,0,0-1.39.11l0.65-4.83h4.82v1.15Z" transform="translate(-105.52 -81)" fill="#59829b"/>
    <path d="M823.42,524.47a2.88,2.88,0,0,1,2-2.69l0,0a2.49,2.49,0,0,1-1.6-2.26,2.82,2.82,0,0,1,3.11-2.68c2,0,2.93,1.22,2.93,2.48a2.56,2.56,0,0,1-1.66,2.35v0a2.79,2.79,0,0,1,2,2.6c0,1.75-1.5,2.93-3.42,2.93C824.69,527.19,823.42,525.94,823.42,524.47Zm5.42-.06c0-1.22-.85-1.81-2.21-2.2a2.19,2.19,0,0,0-1.81,2.08,1.86,1.86,0,0,0,2,1.92A1.82,1.82,0,0,0,828.84,524.4Zm-3.75-5c0,1,.76,1.55,1.92,1.86a2,2,0,0,0,1.53-1.83,1.56,1.56,0,0,0-1.7-1.64A1.6,1.6,0,0,0,825.09,519.37Z" transform="translate(-105.52 -81)" fill="#59829b"/>
    <path d="M857.13,474.92a4.55,4.55,0,0,0,2.23.64,2,2,0,0,0,2.28-2c0-1.41-1.29-2-2.6-2h-0.76v-1H859c1,0,2.25-.51,2.25-1.7a1.52,1.52,0,0,0-1.77-1.52,3.69,3.69,0,0,0-2,.67l-0.36-1a4.78,4.78,0,0,1,2.63-.77c2,0,2.88,1.18,2.88,2.4A2.5,2.5,0,0,1,860.8,471v0a2.62,2.62,0,0,1,2.25,2.59c0,1.61-1.25,3-3.67,3a5.12,5.12,0,0,1-2.62-.68Z" transform="translate(-105.52 -81)" fill="#59829b"/>
    <path d="M862.55,493.18a4.94,4.94,0,0,0-1,.06,4.09,4.09,0,0,0-3.5,3.58h0a3.07,3.07,0,0,1,5.47,2.09,3.37,3.37,0,0,1-3.35,3.55c-2.15,0-3.56-1.67-3.56-4.29a6.33,6.33,0,0,1,1.7-4.54,5.48,5.48,0,0,1,3.22-1.49,6.52,6.52,0,0,1,1-.08v1.11ZM862.17,499a2,2,0,0,0-2.08-2.31,2.24,2.24,0,0,0-2,1.24,1.15,1.15,0,0,0-.16.6c0,1.66.79,2.88,2.21,2.88C861.38,501.41,862.17,500.43,862.17,499Z" transform="translate(-105.52 -81)" fill="#59829b"/>
    <path d="M857.6,526.06a5.67,5.67,0,0,0,1.1,0,3.8,3.8,0,0,0,2.11-1,4.42,4.42,0,0,0,1.33-2.68h0a3,3,0,0,1-2.37,1.08,2.92,2.92,0,0,1-3-3.08,3.45,3.45,0,0,1,3.44-3.58c2.06,0,3.33,1.67,3.33,4.24a6.36,6.36,0,0,1-1.73,4.72,5,5,0,0,1-2.93,1.35,6.35,6.35,0,0,1-1.25.08v-1.12Zm0.5-5.79a1.94,1.94,0,0,0,1.94,2.14,2.25,2.25,0,0,0,2-1.05,0.89,0.89,0,0,0,.12-0.5c0-1.72-.63-3-2.06-3C858.92,517.82,858.09,518.84,858.09,520.27Z" transform="translate(-105.52 -81)" fill="#59829b"/>
  </g>
  <rect x="691.11" y="474.25" width="60.63" height="77.39" rx="12" ry="12" fill="#eaf4f9"/>
  <rect x="698.16" y="480.3" width="46.53" height="65.13" rx="12" ry="12" fill="#eaf4f9" stroke="#bfcbd1" stroke-miterlimit="10"/>
  <circle cx="706.9" cy="489.78" r="3.37" fill="#e23030"/>
  <circle cx="642.7" cy="312.49" r="4.52" fill="#677477"/>
  <circle cx="799.81" cy="312.49" r="4.52" fill="#677477"/>
  <circle cx="642.7" cy="551.64" r="4.52" fill="#677477"/>
  <circle cx="799.81" cy="551.64" r="4.52" fill="#677477"/>
  <path d="M983.78,275.76h59.05a33.62,33.62,0,0,1,33.62,33.62V411.92a33.62,33.62,0,0,1-33.62,33.62H999.17a49,49,0,0,1-49-49V309.38A33.62,33.62,0,0,1,983.78,275.76Z" fill="#f7e6dd"/>
  <path d="M1184.75,357.84A12.72,12.72,0,0,0,1172,345.13l-138.29-4.76,1.79,26c0,15.94,15.73,27.63,31.67,27.63h81.49s9.3-.58,10.47,21.8c0.21,4,1.06,13,1.67,19.29l0.2,2a5.07,5.07,0,0,0,5.05,4.57h9.06a9.61,9.61,0,0,0,9.61-9.61v-74.2Z" transform="translate(-105.52 -81)" fill="#333a3f"/>
  <rect x="1063.61" y="350.46" width="23.87" height="38.68" rx="8.89" ry="8.89" fill="#dcbfb1"/>
  <path d="M1162.85,436.22" transform="translate(-105.52 -81)" fill="#c1a187"/>
  <path d="M1324.43,1024.33c18.14-6.83,32.23-3.21,38.61-.71q1.9,1,3.9,1.89c19.44,8.77,38.64,8.26,42.88-1.14s-8.07-24.14-27.51-32.92a67.8,67.8,0,0,0-23.67-6.27l2.26-5.28-20.32-14.16-33.18,30.77S1299.4,1033.76,1324.43,1024.33Z" transform="translate(-105.52 -81)" fill="#333a3f"/>
  <path d="M1158.39,465.1" transform="translate(-105.52 -81)" fill="#68513e"/>
  <path d="M1078.33,428.86c-4.5,0-8.14,2.14-8.14,8.14h16.28C1086.47,431,1082.83,428.86,1078.33,428.86Z" transform="translate(-105.52 -81)" fill="#333a3f"/>
  <path d="M912.6,1012.46c-8.43,17.45-21.12,24.55-27.48,27.14q-2.05.6-4.13,1.32c-20.13,7-33.68,20.66-30.27,30.39s22.49,11.92,42.62,4.87a67.8,67.8,0,0,0,21.46-11.78l2,5.38,24.48-3.75,2.82-45.16S924.23,988.38,912.6,1012.46Z" transform="translate(-105.52 -81)" fill="#333a3f"/>
  <polygon points="986.88 434 990.47 457 1048.22 457 1057.33 434 986.88 434" fill="#f7e6dd"/>
  <path d="M1140,428.86c-4.5,0-8.14,2.14-8.14,8.14h16.28C1148.11,431,1144.46,428.86,1140,428.86Z" transform="translate(-105.52 -81)" fill="#333a3f"/>
  <rect x="994.46" y="346.98" width="18.63" height="48.32" rx="6.93" ry="6.93" fill="#dcbfb1"/>
  <rect x="990.8" y="373.2" width="21.99" height="22.09" rx="8.18" ry="8.18" fill="#dcbfb1"/>
  <rect x="926.18" y="449.65" width="187.82" height="299.53" rx="27.65" ry="27.65" fill="#005faa"/>
  <rect x="972.83" y="512.68" width="59.1" height="210.88" rx="22" ry="22" transform="translate(625.15 -608.75) rotate(45)" fill="#005faa"/>
  <path d="M1216.54,603.21L1092.09,710.76a10,10,0,0,1-12,.84l-43.62-28.15a10,10,0,0,1-4.57-8.62l0.86-37.93a10,10,0,0,1,7.15-9.35l41,9.62L1207.17,578a10,10,0,0,1,12.83,9.58v8.12A10,10,0,0,1,1216.54,603.21Z" transform="translate(-105.52 -81)" fill="#005b99"/>
  <rect x="957.12" y="326.19" width="31.4" height="12.5" rx="4.65" ry="4.65" fill="#333a3f"/>
  <rect x="1018.75" y="326.19" width="31.4" height="12.5" rx="4.65" ry="4.65" fill="#333a3f"/>
  <polygon points="898.29 505.34 927.48 535 976.48 569 1053.95 495.33 1058.68 473.93 973.89 539.61 898.29 505.34" fill="#005b99"/>
  <path d="M1144.82,483.29c0.62,3.8-6.58,8.15-16.08,9.71s-17.72-.25-18.34-4.06" transform="translate(-105.52 -81)" fill="#dcbfb1"/>
  <rect x="1010.91" y="564.15" width="59.1" height="154.02" rx="22" ry="22" transform="translate(2010.44 -20.33) rotate(120)" fill="#005faa"/>
  <path d="M907.85,561.49h9a28.09,28.09,0,0,1,28.09,28.09V693.51a22,22,0,0,1-22,22h-15.1a22,22,0,0,1-22-22v-110a22,22,0,0,1,22-22Z" transform="translate(1908.66 361.7) rotate(135)" fill="#005faa"/>
  <g>
    <rect x="844.89" y="563.55" width="41.62" height="51.23" rx="12" ry="12" transform="translate(-268.56 703.7) rotate(-45)" fill="#f7e6dd"/>
    <circle cx="774.42" cy="507.86" r="14.88" fill="#f7e6dd"/>
    <rect x="879.77" y="561.93" width="11.75" height="29.76" rx="4.37" ry="4.37" transform="translate(-244.09 234.92) rotate(-18.79)" fill="#f7e6dd"/>
    <rect x="830.57" y="560.07" width="8.87" height="44.58" rx="3.3" ry="3.3" transform="translate(-272.74 680) rotate(-45)" fill="#f7e6dd"/>
    <rect x="835.89" y="549.53" width="8.87" height="44.58" rx="3.3" ry="3.3" transform="translate(-263.73 680.68) rotate(-45)" fill="#f7e6dd"/>
    <rect x="843.34" y="541.02" width="8.87" height="44.58" rx="3.3" ry="3.3" transform="translate(-255.53 683.46) rotate(-45)" fill="#f7e6dd"/>
    <rect x="852.74" y="533.97" width="8.87" height="44.58" rx="3.3" ry="3.3" transform="translate(-247.79 688.04) rotate(-45)" fill="#f7e6dd"/>
  </g>
  <polygon points="984.85 439.93 980.91 458.21 1015.54 473.49 1019.73 449.65 984.85 439.93" fill="#094d7c"/>
  <polygon points="1054.75 439.93 1058.68 458.21 1024.06 473.49 1019.87 449.65 1054.75 439.93" fill="#094d7c"/>
  <path d="M1044.55,833.1L910,857.26a19.05,19.05,0,0,0-15.68,18.2l-4,136.73a19.05,19.05,0,0,0,17.49,19.54l22.68,1.86a19.05,19.05,0,0,0,20.3-15.55L968.12,924a19.05,19.05,0,0,1,17.16-15.55l107-8.9a19.05,19.05,0,0,1,20.52,16.94l12.8,118.44a19.05,19.05,0,0,0,21.13,16.88l169.44-19.59a19.05,19.05,0,0,0,16.86-18.93v-16a19.05,19.05,0,0,0-19.33-19.05l-97.29,1.4a19.05,19.05,0,0,1-19.18-21.42l16.53-131.8-166.54,6.35A19.05,19.05,0,0,0,1044.55,833.1Z" transform="translate(-105.52 -81)" fill="#63b6db"/>
  <rect x="933.94" y="734.67" width="174.27" height="17.18" rx="6.4" ry="6.4" fill="#333a3f"/>
  <rect x="951.74" y="733.41" width="8.51" height="21.58" rx="2.33" ry="2.33" fill="#63b6db"/>
  <rect x="989.35" y="733.41" width="8.51" height="21.58" rx="2.33" ry="2.33" fill="#63b6db"/>
  <rect x="1043.97" y="733.41" width="8.51" height="21.58" rx="2.33" ry="2.33" fill="#63b6db"/>
  <rect x="1088.96" y="733.41" width="8.51" height="21.58" rx="2.33" ry="2.33" fill="#63b6db"/>
  <line x1="1018.98" y1="472" x2="1018.98" y2="734" fill="none" stroke="#005893" stroke-miterlimit="10" stroke-width="3"/>
  <circle cx="1042.59" cy="501.36" r="4.55" fill="#005faa"/>
  <circle cx="1042.59" cy="501.36" r="4.55" fill="none" stroke="#005893" stroke-miterlimit="10" stroke-width="3"/>
  <circle cx="1042.59" cy="563.05" r="4.55" fill="none" stroke="#005893" stroke-miterlimit="10" stroke-width="3"/>
  <circle cx="1042.59" cy="621.28" r="4.55" fill="none" stroke="#005893" stroke-miterlimit="10" stroke-width="3"/>
  <circle cx="1042.59" cy="678.55" r="4.55" fill="none" stroke="#005893" stroke-miterlimit="10" stroke-width="3"/>
  <circle cx="776.74" cy="548.61" r="4.55" fill="none" stroke="#005893" stroke-miterlimit="10" stroke-width="3"/>
  <path d="M1160.47,834.75s1.09,12,17,26.75c12.2,11.29,30,11.08,30,11.08" transform="translate(-105.52 -81)" fill="none" stroke="#4fa7c6" stroke-linecap="round" stroke-miterlimit="10" stroke-width="2"/>
  <polyline points="1089.5 789.84 1087.59 773 1065.48 773" fill="none" stroke="#4fa7c6" stroke-linecap="round" stroke-miterlimit="10" stroke-width="2"/>
  <g>
    <rect x="953.15" y="577.2" width="15.99" height="45.09" rx="7.24" ry="7.24" transform="translate(393.12 -515.46) rotate(33.94)" fill="#0d6a7f"/>
    <rect x="966.41" y="573.25" width="18.53" height="9.81" rx="4.45" ry="4.45" transform="translate(383.54 -527.25) rotate(33.94)" fill="#0d6a7f"/>
    <rect x="991.05" y="524.24" width="3.68" height="58.07" rx="1.67" ry="1.67" transform="translate(372.58 -541.1) rotate(33.94)" fill="#ccdadd"/>
    <polygon points="904.93 442.8 899.58 450.74 902.9 452.98 908.25 445.04 909.35 439.82 904.93 442.8" fill="#ccdadd"/>
  </g>
  <rect x="1110.42" y="510.68" width="59.1" height="210.88" rx="22" ry="22" transform="translate(735.89 -725.83) rotate(48.29)" fill="#005faa"/>
  <line x1="1210.62" y1="951.2" x2="1203.99" y2="898.1" fill="none" stroke="#4fa7c6" stroke-linecap="round" stroke-miterlimit="10" stroke-width="2"/>
  <line x1="785.95" y1="927.74" x2="846.61" y2="931.51" fill="none" stroke="#4fa7c6" stroke-linecap="round" stroke-miterlimit="10" stroke-width="2"/>
  <rect x="1005.24" y="733.7" width="30.89" height="19.14" rx="4.88" ry="4.88" fill="#e6e6e6"/>
  <path d="M1110.39,343" transform="translate(-105.52 -81)" fill="#333a3f"/>
  <g>
    <rect x="949.94" y="577.91" width="41.62" height="51.23" rx="12" ry="12" transform="translate(-167.87 1011.73) rotate(-57.21)" fill="#f7e6dd"/>
    <circle cx="984.6" cy="600.22" r="14.88" transform="translate(-210.18 140.79) rotate(-12.21)" fill="#f7e6dd"/>
    <rect x="985.91" y="571.46" width="11.75" height="29.76" rx="4.37" ry="4.37" transform="translate(-207.08 141.99) rotate(-12.21)" fill="#f7e6dd"/>
    <rect x="951.32" y="591.3" width="8.87" height="44.58" rx="3.3" ry="3.3" transform="matrix(0.54, -0.84, 0.84, 0.54, -183.2, 1003.73)" fill="#f7e6dd"/>
    <rect x="954.3" y="579.88" width="8.87" height="44.58" rx="3.3" ry="3.3" transform="translate(-172.23 1001) rotate(-57.21)" fill="#f7e6dd"/>
    <rect x="959.78" y="569.98" width="8.87" height="44.58" rx="3.3" ry="3.3" transform="matrix(0.54, -0.84, 0.84, 0.54, -161.39, 1001.07)" fill="#f7e6dd"/>
    <rect x="967.47" y="561.1" width="8.87" height="44.58" rx="3.3" ry="3.3" transform="translate(-150.4 1003.47) rotate(-57.21)" fill="#f7e6dd"/>
  </g>
</svg>
