<svg id="Layer_1" data-name="Layer 1" xmlns="http://www.w3.org/2000/svg" viewBox="0 0 1506.69 1082.44">
  <title>3</title>
  <rect width="1506.69" height="1082.44" rx="12" ry="12" fill="#fafdff"/>
  <path d="M570.65,925.57c11.71,24.25,29.35,34.11,38.19,37.71q2.85,0.83,5.73,1.83c28,9.79,46.8,28.7,42.06,42.24s-31.25,16.57-59.22,6.77c-12-4.21-22.33-10-29.83-16.37l-2.78,7.48-34-5.21-3.92-62.76S554.49,892.1,570.65,925.57Z" transform="translate(-71.91 -61.78)" fill="#333a3f"/>
  <path d="M463.36,147.62h92.87a33.62,33.62,0,0,1,33.62,33.62V349.94a33.62,33.62,0,0,1-33.62,33.62H448a33.62,33.62,0,0,1-33.62-33.62V196.64a49,49,0,0,1,49-49Z" transform="translate(932.29 469.4) rotate(-180)" fill="#f7e6dd"/>
  <path d="M410.48,149.13a17.67,17.67,0,0,1,17.67-17.67l192.17-6.62-2.49,36.09c0,22.15-21.86,38.4-44,38.4H460.57s-12.93-.81-14.54,30.3c-0.29,5.6-1.47,18.13-2.32,26.81l-0.28,2.8a7,7,0,0,1-7,6.35H423.83a13.35,13.35,0,0,1-13.35-13.35V149.13Z" transform="translate(-71.91 -61.78)" fill="#333a3f"/>
  <rect x="399.03" y="251.44" width="33.17" height="53.74" rx="8.89" ry="8.89" transform="translate(759.31 494.83) rotate(-180)" fill="#dcbfb1"/>
  <path d="M440.91,258" transform="translate(-71.91 -61.78)" fill="#c1a187"/>
  <path d="M447.11,298.18" transform="translate(-71.91 -61.78)" fill="#68513e"/>
  <path d="M558.36,246.69c6.25,0,11.31,3.31,11.31,11.31H547C547,250,552.11,246.69,558.36,246.69Z" transform="translate(-71.91 -61.78)" fill="#333a3f"/>
  <polygon points="466.9 306.22 461.92 337.22 381.66 337.22 369 306.22 466.9 306.22" fill="#f7e6dd"/>
  <path d="M472.71,246.69C479,246.69,484,250,484,258H461.4C461.4,250,466.46,246.69,472.71,246.69Z" transform="translate(-71.91 -61.78)" fill="#333a3f"/>
  <rect x="502.39" y="246.6" width="25.89" height="67.15" rx="6.93" ry="6.93" transform="translate(958.77 498.57) rotate(180)" fill="#dcbfb1"/>
  <rect x="502.82" y="283.04" width="30.55" height="30.7" rx="8.18" ry="8.18" transform="translate(964.28 535.01) rotate(180)" fill="#dcbfb1"/>
  <rect x="362.16" y="389.27" width="261" height="416.23" rx="27.65" ry="27.65" transform="translate(913.41 1132.99) rotate(-180)" fill="#005faa"/>
  <rect x="633.68" y="369.08" width="82.13" height="293.04" rx="22" ry="22" transform="translate(1444.54 341.29) rotate(135)" fill="#005faa"/>
  <rect x="536.54" y="217.71" width="43.63" height="17.37" rx="4.65" ry="4.65" transform="translate(1044.81 391.01) rotate(-180)" fill="#333a3f"/>
  <rect x="450.9" y="217.71" width="43.63" height="17.37" rx="4.65" ry="4.65" transform="translate(873.51 391.01) rotate(-180)" fill="#333a3f"/>
  <path d="M466,323.46c-0.87,5.28,9.14,11.33,22.35,13.5s24.62-.35,25.49-5.64" transform="translate(-71.91 -61.78)" fill="#dcbfb1"/>
  <path d="M430.38,649.48L362,610.05v94.83l27.32,15.72a22.11,22.11,0,0,0,30.09-8.05l19-33A22.07,22.07,0,0,0,430.38,649.48Z" transform="translate(-71.91 -61.78)" fill="#005b99"/>
  <rect x="286.31" y="384.6" width="82.13" height="293.04" rx="22" ry="22" transform="translate(229.26 1092.69) rotate(-145.94)" fill="#005faa"/>
  <path d="M313.24,549.52h38.13a22,22,0,0,1,22,22V714.58a49,49,0,0,1-49,49H313.24a22,22,0,0,1-22-22v-170a22,22,0,0,1,22-22Z" transform="translate(995.12 635.24) rotate(120)" fill="#005faa"/>
  <rect x="756.94" y="436.52" width="82.13" height="214.03" rx="22" ry="22" transform="translate(546.16 -466.85) rotate(45)" fill="#005faa"/>
  <rect x="840.93" y="437.99" width="57.84" height="71.19" rx="12" ry="12" transform="translate(1078.13 1361.75) rotate(-135)" fill="#f7e6dd"/>
  <circle cx="778.14" cy="411.38" r="20.68" fill="#f7e6dd"/>
  <rect x="828.06" y="435.74" width="16.33" height="41.36" rx="4.37" ry="4.37" transform="translate(1600.54 851.05) rotate(-180)" fill="#f7e6dd"/>
  <polygon points="469.74 313.98 475.2 339.39 427.08 360.62 421.25 327.49 469.74 313.98" fill="#094d7c"/>
  <polygon points="372.59 313.98 367.13 339.39 415.25 360.62 421.07 327.49 372.59 313.98" fill="#094d7c"/>
  <rect x="370.2" y="785.35" width="242.18" height="23.88" rx="6.4" ry="6.4" transform="translate(910.67 1532.81) rotate(180)" fill="#333a3f"/>
  <rect x="575.82" y="783.6" width="11.83" height="29.99" rx="2.33" ry="2.33" transform="translate(1091.56 1535.41) rotate(180)" fill="#63b6db"/>
  <rect x="523.56" y="783.6" width="11.83" height="29.99" rx="2.33" ry="2.33" transform="translate(987.04 1535.41) rotate(180)" fill="#63b6db"/>
  <rect x="447.66" y="783.6" width="11.83" height="29.99" rx="2.33" ry="2.33" transform="translate(835.23 1535.41) rotate(180)" fill="#63b6db"/>
  <rect x="385.13" y="783.6" width="11.83" height="29.99" rx="2.33" ry="2.33" transform="translate(710.18 1535.41) rotate(180)" fill="#63b6db"/>
  <line x1="421.59" y1="358.22" x2="421.59" y2="724.22" fill="none" stroke="#005893" stroke-miterlimit="10" stroke-width="3"/>
  <circle cx="389.49" cy="399.35" r="6.32" fill="#005faa"/>
  <circle cx="389.49" cy="399.35" r="6.32" fill="none" stroke="#005893" stroke-miterlimit="10" stroke-width="3"/>
  <circle cx="389.49" cy="485.08" r="6.32" fill="none" stroke="#005893" stroke-miterlimit="10" stroke-width="3"/>
  <circle cx="389.49" cy="565.99" r="6.32" fill="none" stroke="#005893" stroke-miterlimit="10" stroke-width="3"/>
  <circle cx="389.49" cy="645.58" r="6.32" fill="none" stroke="#005893" stroke-miterlimit="10" stroke-width="3"/>
  <circle cx="774.93" cy="468.01" r="6.32" fill="none" stroke="#005893" stroke-miterlimit="10" stroke-width="3"/>
  <rect x="290.27" y="747.45" width="245.11" height="84.15" rx="12" ry="12" fill="#62a1b7"/>
  <rect x="470.37" y="784" width="42.93" height="26.6" rx="4.88" ry="4.88" transform="translate(911.76 1532.81) rotate(180)" fill="#e6e6e6"/>
  <path d="M513.81,128.52" transform="translate(-71.91 -61.78)" fill="#333a3f"/>
  <rect x="347.55" y="709.79" width="125.85" height="367.19" rx="62.92" ry="62.92" transform="translate(-644.32 807.86) rotate(-63.94)" fill="#63b6db"/>
  <path d="M502.6,1024.13c-30.54,3.57-47.76,18.93-54.94,27.11q-2,2.77-4.12,5.5c-21,26.52-48.44,39.77-61.27,29.6s-6.2-39.9,14.81-66.42c9-11.39,19.08-20.37,28.8-26.06l-7-5.79,18.33-34.75,69.16,19.21S544.74,1019.2,502.6,1024.13Z" transform="translate(-71.91 -61.78)" fill="#333a3f"/>
  <rect x="529.16" y="737.89" width="125.85" height="337.42" rx="62.92" ry="62.92" transform="translate(88.75 1837.98) rotate(-123.37)" fill="#4bafd1"/>
  <g>
    <polygon points="500.21 566.13 482.95 622.13 621.25 631.2 639.99 575.31 500.21 566.13" fill="#37869b"/>
    <polygon points="516.79 567.22 499.54 623.21 637.83 632.29 656.57 576.4 516.79 567.22" fill="#5d9aaf"/>
    <rect x="538.12" y="685.34" width="194.5" height="48" transform="translate(-24.08 -101.87) rotate(3.76)" fill="#64b2dd"/>
    <polygon points="335.13 656.52 464.86 665.03 468 617.13 336.09 626.62 335.13 656.52" fill="#82c9e8"/>
    <rect x="550.64" y="689.86" width="5.5" height="33" rx="2.75" ry="2.75" transform="translate(-24.46 -96.51) rotate(3.76)" fill="#4ba2c9"/>
    <rect x="563.61" y="690.71" width="5.5" height="33" rx="2.75" ry="2.75" transform="translate(-24.37 -97.36) rotate(3.76)" fill="#4ba2c9"/>
    <rect x="576.58" y="691.56" width="5.5" height="33" rx="2.75" ry="2.75" transform="translate(-24.29 -98.21) rotate(3.76)" fill="#4ba2c9"/>
    <rect x="593.23" y="698.34" width="8.5" height="8.5" rx="4.25" ry="4.25" transform="translate(-24.61 -99.41) rotate(3.76)" fill="#4ba2c9"/>
    <rect x="609.2" y="699.39" width="8.5" height="8.5" rx="4.25" ry="4.25" transform="translate(-24.5 -100.45) rotate(3.76)" fill="#4ba2c9"/>
    <rect x="625.16" y="700.44" width="8.5" height="8.5" rx="4.25" ry="4.25" transform="translate(-24.4 -101.49) rotate(3.76)" fill="#4ba2c9"/>
    <rect x="599.36" y="711.77" width="8.5" height="8.5" rx="4.25" ry="4.25" transform="matrix(1, 0.07, -0.07, 1, -23.71, -99.78)" fill="#4ba2c9"/>
    <rect x="617.33" y="712.95" width="8.5" height="8.5" rx="4.25" ry="4.25" transform="translate(-23.6 -100.95) rotate(3.76)" fill="#4ba2c9"/>
  </g>
  <g>
    <rect x="387.84" y="679.94" width="57.84" height="71.19" rx="12" ry="12" transform="translate(-483.21 655) rotate(-59.87)" fill="#f7e6dd"/>
    <circle cx="412.09" cy="696.3" r="20.68" transform="translate(-236.78 67.27) rotate(-14.87)" fill="#f7e6dd"/>
    <rect x="418.56" y="658.95" width="16.33" height="41.36" rx="4.37" ry="4.37" transform="translate(-192.57 1204.68) rotate(-104.87)" fill="#f7e6dd"/>
    <rect x="455.71" y="709.43" width="12.33" height="61.95" rx="3.3" ry="3.3" transform="translate(-350.43 1140.5) rotate(-90)" fill="#f7e6dd"/>
    <rect x="448.91" y="722.64" width="12.33" height="61.95" rx="3.3" ry="3.3" transform="translate(-441.61 999.67) rotate(-79.34)" fill="#f7e6dd"/>
    <rect x="465.79" y="694.24" width="12.33" height="61.95" rx="3.3" ry="3.3" transform="translate(-325.17 1135.39) rotate(-90)" fill="#f7e6dd"/>
    <rect x="465.31" y="678.85" width="12.33" height="61.95" rx="3.3" ry="3.3" transform="translate(-310.25 1119.51) rotate(-90)" fill="#f7e6dd"/>
  </g>
  <g>
    <rect x="805.07" y="365.14" width="70.63" height="70.63" rx="27.94" ry="27.94" transform="translate(-127.47 591.44) rotate(-41.23)" fill="#64b2dd"/>
    <rect x="853.93" y="387.99" width="35.31" height="149.72" transform="translate(-160.86 627.48) rotate(-41.23)" fill="#64b2dd"/>
    <rect x="898.89" y="472.19" width="70.63" height="70.63" rx="27.94" ry="27.94" transform="translate(-174.76 679.83) rotate(-41.23)" fill="#64b2dd"/>
    <rect x="836.7" y="365.25" width="28.66" height="51.21" rx="12" ry="12" transform="translate(-118.5 596.08) rotate(-41.23)" fill="#9ad8f4"/>
    <rect x="930.65" y="472.45" width="28.66" height="51.21" rx="12" ry="12" transform="translate(-165.86 684.59) rotate(-41.23)" fill="#9ad8f4"/>
    <polygon points="791.45 365.34 771.9 382.47 796.72 371.35 791.45 365.34" fill="#4098bf"/>
    <circle cx="931.66" cy="492.91" r="3.75" transform="translate(-165.78 674.54) rotate(-41.23)" fill="#64b2dd"/>
    <circle cx="942.19" cy="483.68" r="3.75" transform="translate(-157.08 679.19) rotate(-41.23)" fill="#64b2dd"/>
    <circle cx="945.5" cy="498.07" r="3.75" transform="translate(-165.75 684.93) rotate(-41.23)" fill="#64b2dd"/>
    <circle cx="948.14" cy="511.71" r="3.75" transform="translate(-174.08 690.06) rotate(-41.23)" fill="#64b2dd"/>
    <circle cx="958.67" cy="502.48" r="3.75" transform="translate(-165.39 694.71) rotate(-41.23)" fill="#64b2dd"/>
  </g>
  <rect x="898.36" y="452.41" width="12.33" height="39.38" rx="3.3" ry="3.3" transform="translate(1138.38 1383.75) rotate(-135)" fill="#f7e6dd"/>
  <rect x="889.64" y="439.09" width="12.33" height="39.38" rx="3.3" ry="3.3" transform="translate(1132.92 1354.84) rotate(-135)" fill="#f7e6dd"/>
  <rect x="879.02" y="427.52" width="12.33" height="39.38" rx="3.3" ry="3.3" transform="translate(1122.96 1327.58) rotate(-135)" fill="#f7e6dd"/>
  <rect x="866.55" y="417.13" width="12.33" height="39.38" rx="3.3" ry="3.3" transform="translate(1109.03 1301.03) rotate(-135)" fill="#f7e6dd"/>
  <rect x="737.73" y="837.48" width="738.62" height="98.48" rx="49.24" ry="49.24" fill="#f0faff"/>
  <g>
    <rect x="896.98" y="824.22" width="394.22" height="68" rx="12" ry="12" fill="#5e8faa"/>
    <rect x="720.87" y="824.22" width="394.22" height="68" rx="12" ry="12" fill="#81c3ef"/>
    <rect x="728.93" y="832.27" width="378.11" height="51.89" rx="12" ry="12" fill="#64b2dd" stroke="#0c85af" stroke-miterlimit="10" stroke-width="2"/>
    <g>
      <polygon points="1052.09 856.22 1043.09 856.22 1043.09 869.22 1076.09 869.22 1076.09 868.7 1052.09 846.7 1052.09 856.22" fill="#2a7393"/>
      <polygon points="1066.09 856.22 1066.09 846.22 1059.59 846.22 1052.09 846.22 1052.09 846.7 1076.09 868.7 1076.09 856.22 1066.09 856.22" fill="#11637f"/>
    </g>
    <g>
      <polygon points="1003.09 856.22 994.09 856.22 994.09 869.22 1027.09 869.22 1027.09 868.7 1003.09 846.7 1003.09 856.22" fill="#2a7393"/>
      <polygon points="1017.09 856.22 1017.09 846.22 1010.59 846.22 1003.09 846.22 1003.09 846.7 1027.09 868.7 1027.09 856.22 1017.09 856.22" fill="#11637f"/>
    </g>
    <g>
      <polygon points="954.09 856.22 945.09 856.22 945.09 869.22 978.09 869.22 978.09 868.7 954.09 846.7 954.09 856.22" fill="#2a7393"/>
      <polygon points="968.09 856.22 968.09 846.22 961.59 846.22 954.09 846.22 954.09 846.7 978.09 868.7 978.09 856.22 968.09 856.22" fill="#11637f"/>
    </g>
    <g>
      <polygon points="905.09 856.22 896.09 856.22 896.09 869.22 929.09 869.22 929.09 868.7 905.09 846.7 905.09 856.22" fill="#2a7393"/>
      <polygon points="919.09 856.22 919.09 846.22 912.59 846.22 905.09 846.22 905.09 846.7 929.09 868.7 929.09 856.22 919.09 856.22" fill="#11637f"/>
    </g>
    <g>
      <polygon points="855.09 856.22 846.09 856.22 846.09 869.22 879.09 869.22 879.09 868.7 855.09 846.7 855.09 856.22" fill="#2a7393"/>
      <polygon points="869.09 856.22 869.09 846.22 862.59 846.22 855.09 846.22 855.09 846.7 879.09 868.7 879.09 856.22 869.09 856.22" fill="#11637f"/>
    </g>
    <g>
      <polygon points="806.09 856.22 797.09 856.22 797.09 869.22 830.09 869.22 830.09 868.7 806.09 846.7 806.09 856.22" fill="#2a7393"/>
      <polygon points="820.09 856.22 820.09 846.22 813.59 846.22 806.09 846.22 806.09 846.7 830.09 868.7 830.09 856.22 820.09 856.22" fill="#11637f"/>
    </g>
    <rect x="749.09" y="842.22" width="29" height="32" fill="#64b2dd" stroke="#0c85af" stroke-miterlimit="10" stroke-width="2"/>
    <rect x="756.34" y="850.22" width="14.5" height="16" fill="#64b2dd" stroke="#0c85af" stroke-miterlimit="10"/>
    <line x1="1197.59" y1="850.22" x2="1197.59" y2="884.22" fill="#64b2dd" stroke="#004051" stroke-linecap="round" stroke-miterlimit="10" stroke-width="3"/>
    <line x1="1209.59" y1="850.22" x2="1209.59" y2="884.22" fill="#64b2dd" stroke="#004051" stroke-linecap="round" stroke-miterlimit="10" stroke-width="3"/>
    <line x1="1221.59" y1="850.22" x2="1221.59" y2="884.22" fill="#64b2dd" stroke="#004051" stroke-linecap="round" stroke-miterlimit="10" stroke-width="3"/>
    <line x1="1233.59" y1="850.22" x2="1233.59" y2="884.22" fill="#64b2dd" stroke="#004051" stroke-linecap="round" stroke-miterlimit="10" stroke-width="3"/>
    <line x1="1245.59" y1="850.22" x2="1245.59" y2="884.22" fill="#64b2dd" stroke="#004051" stroke-linecap="round" stroke-miterlimit="10" stroke-width="3"/>
    <line x1="1257.59" y1="850.22" x2="1257.59" y2="884.22" fill="#64b2dd" stroke="#004051" stroke-linecap="round" stroke-miterlimit="10" stroke-width="3"/>
    <line x1="1269.59" y1="850.22" x2="1269.59" y2="884.22" fill="#64b2dd" stroke="#004051" stroke-linecap="round" stroke-miterlimit="10" stroke-width="3"/>
    <line x1="1281.59" y1="850.22" x2="1281.59" y2="884.22" fill="#64b2dd" stroke="#004051" stroke-linecap="round" stroke-miterlimit="10" stroke-width="3"/>
  </g>
  <path d="M701.1,716.53S710.42,984.42,835.5,921" transform="translate(-71.91 -61.78)" fill="none" stroke="#2a7393" stroke-miterlimit="10" stroke-width="6"/>
  <path d="M869,668c0,4.19-6.41,7.58-14.31,7.58s-7.9-15.16,0-15.16S869,663.84,869,668Z" transform="translate(-71.91 -61.78)" fill="none" stroke="#2a7393" stroke-miterlimit="10" stroke-width="6"/>
  <line x1="791.03" y1="612.22" x2="776.75" y2="624.22" fill="none" stroke="#2a7393" stroke-miterlimit="10" stroke-width="6"/>
  <path d="M850.66,686c0,4.19-6.41,7.58-14.31,7.58s-7.9-15.16,0-15.16S850.66,681.81,850.66,686Z" transform="translate(-71.91 -61.78)" fill="none" stroke="#2a7393" stroke-miterlimit="10" stroke-width="6"/>
  <path d="M822.72,703.61c-1.14,4-8.23,5.55-15.83,3.41s-3.49-16.74,4.12-14.59S823.85,699.58,822.72,703.61Z" transform="translate(-71.91 -61.78)" fill="none" stroke="#2a7393" stroke-miterlimit="10" stroke-width="6"/>
  <line x1="743.35" y1="645.93" x2="726.35" y2="653.6" fill="none" stroke="#2a7393" stroke-miterlimit="10" stroke-width="6"/>
  <path d="M800.19,715.92c-1.14,4-8.23,5.55-15.83,3.41s-3.49-16.74,4.12-14.59S801.32,711.89,800.19,715.92Z" transform="translate(-71.91 -61.78)" fill="none" stroke="#2a7393" stroke-miterlimit="10" stroke-width="6"/>
  <line x1="764.28" y1="631.51" x2="749.09" y2="641.58" fill="none" stroke="#2a7393" stroke-miterlimit="10" stroke-width="6"/>
  <path d="M938.66,580.28c1.54,3.89-3.17,9.41-10.51,12.31s-12.93-11.19-5.58-14.1S937.12,576.39,938.66,580.28Z" transform="translate(-71.91 -61.78)" fill="none" stroke="#2a7393" stroke-miterlimit="10" stroke-width="6"/>
  <line x1="863.32" y1="526.28" x2="854.46" y2="542.69" fill="none" stroke="#2a7393" stroke-miterlimit="10" stroke-width="6"/>
  <path d="M928.23,603.74c1.54,3.89-3.17,9.41-10.51,12.31s-12.93-11.19-5.58-14.1S926.69,599.84,928.23,603.74Z" transform="translate(-71.91 -61.78)" fill="none" stroke="#2a7393" stroke-miterlimit="10" stroke-width="6"/>
  <path d="M908.72,630.39c0.42,4.17-5.6,8.19-13.47,9s-9.4-14.28-1.54-15.08S908.3,626.23,908.72,630.39Z" transform="translate(-71.91 -61.78)" fill="none" stroke="#2a7393" stroke-miterlimit="10" stroke-width="6"/>
  <line x1="831.39" y1="575.17" x2="818.41" y2="588.55" fill="none" stroke="#2a7393" stroke-miterlimit="10" stroke-width="6"/>
  <path d="M892.3,650.13c0.42,4.17-5.6,8.19-13.47,9s-9.4-14.28-1.54-15.08S891.88,646,892.3,650.13Z" transform="translate(-71.91 -61.78)" fill="none" stroke="#2a7393" stroke-miterlimit="10" stroke-width="6"/>
  <line x1="845.55" y1="554.06" x2="835.13" y2="569.01" fill="none" stroke="#2a7393" stroke-miterlimit="10" stroke-width="6"/>
  <line x1="859.75" y1="478.75" x2="866.76" y2="518.5" fill="none" stroke="#2a7393" stroke-miterlimit="10" stroke-width="6"/>
  <line x1="712.45" y1="657.55" x2="660.78" y2="649.76" fill="none" stroke="#2a7393" stroke-miterlimit="10" stroke-width="6"/>
  <line x1="796.62" y1="608.22" x2="809.55" y2="596.22" fill="none" stroke="#2a7393" stroke-miterlimit="10" stroke-width="6"/>
</svg>
