<svg id="Layer_3" data-name="Layer 3" xmlns="http://www.w3.org/2000/svg" viewBox="0 0 1430.44 1027.66">
  <title>4</title>
  <rect width="1430.44" height="1027.66" rx="12" ry="12" fill="#fafdff"/>
  <path d="M662.61,51.23h97.79A33.62,33.62,0,0,1,794,84.85V239.47a33.62,33.62,0,0,1-33.62,33.62H678a49,49,0,0,1-49-49V84.85A33.62,33.62,0,0,1,662.61,51.23Z" fill="#f7e6dd"/>
  <path d="M894.44,137a16.62,16.62,0,0,0-16.62-16.62l-180.7-6.22,2.34,33.93c0,20.83,20.55,36.11,41.38,36.11H847.33s12.16-.76,13.68,28.49c0.27,5.27,1.38,17,2.18,25.21l0.26,2.63a6.62,6.62,0,0,0,6.6,6h11.84a12.55,12.55,0,0,0,12.55-12.55V137Z" transform="translate(-96.78 -84.31)" fill="#333a3f"/>
  <rect x="777.24" y="148.85" width="31.19" height="50.54" rx="8.89" ry="8.89" fill="#dcbfb1"/>
  <path d="M865.82,239.38" transform="translate(-96.78 -84.31)" fill="#c1a187"/>
  <path d="M860,277.11" transform="translate(-96.78 -84.31)" fill="#68513e"/>
  <path d="M755.38,229.36c-5.87,0-10.64,2.64-10.64,10.64H766C766,232,761.26,229.36,755.38,229.36Z" transform="translate(-96.78 -84.31)" fill="#333a3f"/>
  <polygon points="676.98 256.69 681.67 286.69 757.14 286.69 769.05 256.69 676.98 256.69" fill="#f7e6dd"/>
  <path d="M835.92,229.36c-5.87,0-10.64,2.64-10.64,10.64h21.27C846.56,232,841.79,229.36,835.92,229.36Z" transform="translate(-96.78 -84.31)" fill="#333a3f"/>
  <rect x="686.89" y="144.3" width="24.34" height="63.14" rx="6.93" ry="6.93" fill="#dcbfb1"/>
  <rect x="682.1" y="178.57" width="28.73" height="28.87" rx="8.18" ry="8.18" fill="#dcbfb1"/>
  <rect x="597.67" y="278.46" width="245.43" height="391.4" rx="27.65" ry="27.65" fill="#005faa"/>
  <rect x="603.77" y="347.37" width="77.23" height="275.56" rx="22" ry="22" transform="translate(434.42 -396.45) rotate(45)" fill="#005faa"/>
  <rect x="638.09" y="117.13" width="41.03" height="16.34" rx="4.65" ry="4.65" fill="#333a3f"/>
  <rect x="718.63" y="117.13" width="41.03" height="16.34" rx="4.65" ry="4.65" fill="#333a3f"/>
  <path d="M842.26,300.89c0.82,5-8.59,10.65-21,12.69s-23.15-.33-24-5.3" transform="translate(-96.78 -84.31)" fill="#dcbfb1"/>
  <rect x="935.98" y="360.25" width="77.23" height="275.56" rx="22" ry="22" transform="translate(-208.53 546.87) rotate(-34.06)" fill="#005faa"/>
  <polygon points="674.32 265.76 669.18 289.65 714.43 309.61 719.91 278.46 674.32 265.76" fill="#094d7c"/>
  <polygon points="765.67 265.76 770.81 289.65 725.56 309.61 720.09 278.46 765.67 265.76" fill="#094d7c"/>
  <rect x="607.81" y="650.91" width="227.73" height="22.46" rx="6.4" ry="6.4" fill="#333a3f"/>
  <rect x="631.06" y="649.26" width="11.12" height="28.2" rx="2.33" ry="2.33" fill="#63b6db"/>
  <rect x="680.21" y="649.26" width="11.12" height="28.2" rx="2.33" ry="2.33" fill="#63b6db"/>
  <rect x="751.58" y="649.26" width="11.12" height="28.2" rx="2.33" ry="2.33" fill="#63b6db"/>
  <rect x="810.38" y="649.26" width="11.12" height="28.2" rx="2.33" ry="2.33" fill="#63b6db"/>
  <line x1="719.72" y1="308.69" x2="719.72" y2="649.69" fill="none" stroke="#005893" stroke-miterlimit="10" stroke-width="3"/>
  <circle cx="749.78" cy="346.03" r="5.94" fill="#005faa"/>
  <circle cx="749.78" cy="346.03" r="5.94" fill="none" stroke="#005893" stroke-miterlimit="10" stroke-width="3"/>
  <circle cx="749.78" cy="426.64" r="5.94" fill="none" stroke="#005893" stroke-miterlimit="10" stroke-width="3"/>
  <circle cx="749.78" cy="502.73" r="5.94" fill="none" stroke="#005893" stroke-miterlimit="10" stroke-width="3"/>
  <circle cx="749.78" cy="577.57" r="5.94" fill="none" stroke="#005893" stroke-miterlimit="10" stroke-width="3"/>
  <path d="M766,761.78s-1.42,15.74-22.18,35c-15.94,14.76-39.2,14.48-39.2,14.48" transform="translate(-96.78 -84.31)" fill="none" stroke="#4fa7c6" stroke-linecap="round" stroke-miterlimit="10" stroke-width="2"/>
  <polyline points="625.1 723.69 627.84 701.69 656.22 701.69" fill="none" stroke="#4fa7c6" stroke-linecap="round" stroke-miterlimit="10" stroke-width="2"/>
  <path d="M867.82,761.78s1.42,15.74,22.18,35c15.94,14.76,39.2,14.48,39.2,14.48" transform="translate(-96.78 -84.31)" fill="none" stroke="#4fa7c6" stroke-linecap="round" stroke-miterlimit="10" stroke-width="2"/>
  <polyline points="814.74 723.69 812.38 701.69 783.22 701.69" fill="none" stroke="#4fa7c6" stroke-linecap="round" stroke-miterlimit="10" stroke-width="2"/>
  <rect x="700.98" y="649.64" width="40.37" height="25.01" rx="4.88" ry="4.88" fill="#e6e6e6"/>
  <path d="M797.27,117.57" transform="translate(-96.78 -84.31)" fill="#333a3f"/>
  <g>
    <g>
      <polygon points="381.5 862.69 1052.22 862.69 1052.22 733.69 380.21 733.69 381.5 862.69" fill="#0a728e"/>
      <polygon points="1094.42 1001.47 1052.22 862.23 1052.22 697.07 1105.22 732.77 1105.22 1001.58 1094.42 1001.47" fill="#1c81a5"/>
      <polygon points="339.02 1001.47 381.22 862.23 381.22 697.07 328.22 732.77 328.22 1001.58 339.02 1001.47" fill="#1c81a5"/>
      <rect x="1095.46" y="722.88" width="20.64" height="278.7" fill="#3191bc"/>
      <rect x="316.98" y="722.88" width="20.64" height="278.7" fill="#3191bc"/>
      <path d="M1238,788h-8l-69.46-126.81a17.46,17.46,0,0,0-15.09-9.19H466.25a17.46,17.46,0,0,0-15.74,10.5L394.95,788h-6.78l0.09,17.07A17.18,17.18,0,0,0,405.4,824h815.38c9.37,0,16.28-7,17.15-16H1238V788Z" transform="translate(-96.78 -84.31)" fill="#54a1cc"/>
      <path d="M1220.78,804.61H405.4a17.22,17.22,0,0,1-15.74-24.2l60.85-137.17A17.22,17.22,0,0,1,466.25,633h679.24a17.22,17.22,0,0,1,15.09,8.93l75.29,137.17A17.22,17.22,0,0,1,1220.78,804.61Z" transform="translate(-96.78 -84.31)" fill="#81c3ef"/>
    </g>
    <rect x="317.22" y="739.69" width="799" height="262" fill="#4092b5"/>
  </g>
  <rect x="938.98" y="523.04" width="77.23" height="201.26" rx="22" ry="22" transform="matrix(0.61, 0.79, -0.79, 0.61, 777.28, -615.61)" fill="#005faa"/>
  <g>
    <rect x="710.22" y="508.02" width="12" height="31.33" rx="6" ry="6" fill="#5a5e60"/>
    <rect x="710.22" y="387.41" width="12" height="125.95" rx="6" ry="6" fill="#818384"/>
    <rect x="767.22" y="508.02" width="12" height="31.33" rx="6" ry="6" fill="#5a5e60"/>
    <rect x="767.22" y="387.41" width="12" height="125.95" rx="6" ry="6" fill="#818384"/>
    <path d="M735.8,666l-37.34,56.83A9.79,9.79,0,0,0,706.65,738H920.33a9.79,9.79,0,0,0,7.81-15.7L885.58,666H735.8Z" transform="translate(-96.78 -84.31)" fill="#4f575b"/>
    <rect x="649.22" y="508.02" width="12" height="31.33" rx="6" ry="6" fill="#5a5e60"/>
    <polygon points="600.06 595.69 600.19 645.69 833.22 645.69 833.36 595.69 600.06 595.69" fill="#4f575b"/>
    <path d="M735.8,618l-37.34,56.83A9.79,9.79,0,0,0,706.65,690H920.33a9.79,9.79,0,0,0,7.81-15.7L885.58,618H735.8Z" transform="translate(-96.78 -84.31)" fill="#666b6e"/>
    <circle cx="625.72" cy="627.94" r="5.75" fill="#4caddf"/>
    <circle cx="649.22" cy="627.94" r="5.75" fill="#4caddf"/>
    <circle cx="672.54" cy="627.94" r="5.75" fill="#4caddf"/>
    <circle cx="695.22" cy="627.94" r="5.75" fill="#42c1f4"/>
    <circle cx="716.71" cy="627.94" r="5.75" fill="#42c1f4"/>
    <circle cx="739.22" cy="627.94" r="5.75" fill="#666b6e"/>
    <line x1="801.72" y1="627.94" x2="801.72" y2="645.69" fill="none" stroke="#898989" stroke-linecap="round" stroke-miterlimit="10" stroke-width="5"/>
    <line x1="813.22" y1="633.69" x2="813.22" y2="645.69" fill="none" stroke="#898989" stroke-linecap="round" stroke-miterlimit="10" stroke-width="5"/>
    <line x1="790.72" y1="639.44" x2="790.72" y2="645.44" fill="none" stroke="#898989" stroke-linecap="round" stroke-miterlimit="10" stroke-width="5"/>
    <line x1="622.22" y1="590.02" x2="808.56" y2="590.02" fill="none" stroke="#5a5e60" stroke-miterlimit="10"/>
    <line x1="632.95" y1="575.69" x2="797.83" y2="575.69" fill="none" stroke="#5a5e60" stroke-miterlimit="10"/>
    <line x1="639.16" y1="562.69" x2="792.72" y2="562.69" fill="none" stroke="#5a5e60" stroke-miterlimit="10"/>
    <rect x="649.22" y="387.41" width="12" height="125.95" rx="6" ry="6" fill="#818384"/>
  </g>
  <rect x="581.6" y="497.54" width="77.23" height="201.26" rx="22" ry="22" transform="translate(-335.69 580) rotate(-48.37)" fill="#005faa"/>
  <g>
    <rect x="661.5" y="629.31" width="54.39" height="66.95" rx="12" ry="12" transform="translate(-363.23 614.16) rotate(-46.04)" fill="#f7e6dd"/>
    <circle cx="688.75" cy="644.16" r="19.45" transform="translate(-108.38 -71.68) rotate(-1.04)" fill="#f7e6dd"/>
    <rect x="693.35" y="614.83" width="13.73" height="32.83" rx="4.37" ry="4.37" transform="matrix(-0.02, -1, 1, -0.02, -14.97, 1258.51)" fill="#f7e6dd"/>
    <rect x="692.51" y="673.6" width="11.59" height="58.25" rx="3.3" ry="3.3" transform="translate(-389.04 633.3) rotate(-46.04)" fill="#f7e6dd"/>
    <rect x="706.15" y="666.39" width="11.59" height="58.25" rx="3.3" ry="3.3" transform="translate(-379.68 640.92) rotate(-46.04)" fill="#f7e6dd"/>
    <rect x="717.1" y="656.45" width="11.59" height="58.25" rx="3.3" ry="3.3" transform="translate(-369.18 645.76) rotate(-46.04)" fill="#f7e6dd"/>
    <rect x="726.09" y="644.01" width="11.59" height="58.25" rx="3.3" ry="3.3" transform="translate(-357.47 648.42) rotate(-46.04)" fill="#f7e6dd"/>
    <rect x="714.02" y="624.8" width="14.97" height="28.02" rx="4.37" ry="4.37" transform="translate(-332.07 669.34) rotate(-48.37)" fill="#f7e6dd"/>
  </g>
  <path d="M696.84,718s-86.5-.51-161.17-32.42S414,690,414,690s-35,22.18-39.67,65.26S370,829.33,388.16,882.5,414,1048.33,414,1048.33" transform="translate(-96.78 -84.31)" fill="none" stroke="#383838" stroke-linecap="round" stroke-miterlimit="10" stroke-width="6"/>
  <path d="M928.14,722.31S985,666.77,1043,661.88s134.33,10.57,134.33,10.57" transform="translate(-96.78 -84.31)" fill="none" stroke="#383838" stroke-linecap="round" stroke-miterlimit="10" stroke-width="6"/>
  <g>
    <polygon points="1084.33 615.52 971.91 683.52 919.24 630.28 1031.66 562.36 1084.33 615.52" fill="#2f9263"/>
    <polygon points="912.22 622.69 916.22 622.69 983.22 690.69 983.22 708.69 980.22 710.71 915.22 634.69 912.22 622.69" fill="#969696"/>
    <polygon points="912.22 622.69 912.22 639.69 980.22 710.71 980.22 692.19 912.22 622.69" fill="#adadad"/>
    <polygon points="996.72 597.19 996.72 617.19 1024.72 617.19 1024.72 624.19 1007.72 624.19 1007.72 629.19 1034.72 629.19 1034.72 611.19 1045.72 611.19 1045.72 600.19 1054.72 600.19 1054.72 592.19 1034.72 592.19 1034.72 601.19 1017.72 601.19 1017.72 587.19 1033.72 587.19 1033.72 582.19 1005.72 582.19 1005.72 597.19 996.72 597.19" fill="none" stroke="#24774d" stroke-miterlimit="10"/>
    <polygon points="949.72 622.19 949.72 642.19 977.72 642.19 977.72 649.19 960.72 649.19 960.72 654.19 987.72 654.19 987.72 636.19 998.72 636.19 998.72 625.19 1007.72 625.19 1007.72 617.19 987.72 617.19 987.72 626.19 970.72 626.19 970.72 612.19 986.72 612.19 986.72 607.19 958.72 607.19 958.72 622.19 949.72 622.19" fill="none" stroke="#24774d" stroke-miterlimit="10"/>
    <circle cx="959.53" cy="630.69" r="4.25" fill="none" stroke="#24774d" stroke-miterlimit="10"/>
    <circle cx="978.53" cy="634.69" r="4.25" fill="none" stroke="#24774d" stroke-miterlimit="10"/>
    <circle cx="996.72" cy="645.85" r="4.25" fill="none" stroke="#24774d" stroke-miterlimit="10"/>
    <circle cx="974.28" cy="670.95" r="4.25" fill="none" stroke="#24774d" stroke-miterlimit="10"/>
    <polygon points="1018.22 654.19 1025.72 661.19 1090.72 622.69 1083.22 614.69 1018.22 654.19" fill="#edc77c"/>
    <ellipse cx="923.72" cy="642.6" rx="3.5" ry="5.75" fill="#7a7a7a"/>
    <ellipse cx="933.72" cy="654.19" rx="3.5" ry="5.75" fill="#7a7a7a"/>
  </g>
  <path d="M1069.82,666.47s-53.86-38.77-51.71-19.58,102,9.38,106.46,27.67S1069.82,666.47,1069.82,666.47Z" transform="translate(-96.78 -84.31)" fill="none" stroke="#383838" stroke-miterlimit="10" stroke-width="3"/>
  <path d="M1068.23,671.62s-34.95-56.42-40.3-37.86,90.67,47.66,87.79,66.28S1068.23,671.62,1068.23,671.62Z" transform="translate(-96.78 -84.31)" fill="none" stroke="#383838" stroke-miterlimit="10" stroke-width="3"/>
  <g>
    <polygon points="422.22 658.59 373.22 680.69 397.72 692.69 449.31 672.92 422.22 658.59" fill="#a7b9d6"/>
    <polygon points="422.22 634.59 373.22 656.69 397.72 668.69 449.31 648.92 422.22 634.59" fill="#a7b9d6"/>
    <polygon points="373.22 656.69 373.22 680.69 397.68 692.69 449.22 672.92 449.22 648.69 397.72 668.69 373.22 656.69" fill="#849bbc"/>
    <polygon points="407.47 650.7 388.69 659.17 398.08 663.77 417.85 656.2 407.47 650.7" fill="#a7b9d6"/>
    <polygon points="407.47 641.5 388.69 649.97 398.08 654.57 417.85 647 407.47 641.5" fill="#97adcc"/>
    <polygon points="389.22 649.97 389.22 659.17 398.03 663.77 417.22 656.2 417.22 646.91 398.05 654.57 389.22 649.97" fill="#849bbc"/>
    <polygon points="409.22 645.18 431.51 631.58 437.46 636.34 415.17 648.69 409.22 645.18" fill="#7190b5"/>
  </g>
  <g>
    <polygon points="491.22 672.59 442.22 694.69 466.72 706.69 518.31 686.92 491.22 672.59" fill="#a7b9d6"/>
    <polygon points="491.22 648.59 442.22 670.69 466.72 682.69 518.31 662.92 491.22 648.59" fill="#a7b9d6"/>
    <polygon points="442.22 670.69 442.22 694.69 466.68 706.69 518.22 686.92 518.22 662.69 466.72 682.69 442.22 670.69" fill="#849bbc"/>
    <polygon points="476.47 664.7 457.69 673.17 467.08 677.77 486.85 670.2 476.47 664.7" fill="#a7b9d6"/>
    <polygon points="476.47 655.5 457.69 663.97 467.08 668.57 486.85 661 476.47 655.5" fill="#97adcc"/>
    <polygon points="458.22 663.97 458.22 673.17 467.03 677.77 486.22 670.2 486.22 660.91 467.05 668.57 458.22 663.97" fill="#849bbc"/>
    <polygon points="478.22 659.18 500.51 645.58 506.46 650.34 484.17 662.69 478.22 659.18" fill="#7190b5"/>
  </g>
</svg>
