<svg id="Layer_1" data-name="Layer 1" xmlns="http://www.w3.org/2000/svg" viewBox="0 0 1350.75 970.41">
  <title>11</title>
  <rect width="1350.75" height="970.41" rx="12" ry="12" fill="#fafdff"/>
  <path d="M797.35,656.23c-204.72,0-370.68,32.33-370.68,72.21,0,7.16,5.35,14.07,15.31,20.6,45.52-29.84,187.4-51.6,355.37-51.6,135.35,0,253.75,14.13,318.45,35.24q25.74-.09,51.47.36a14.92,14.92,0,0,0,.75-4.59C1168,688.55,1002.07,656.23,797.35,656.23Z" transform="translate(-124.63 -96.79)" fill="#97b8cc"/>
  <path d="M1433.84,745.79c0-84.94-285-153.79-636.49-153.79S160.86,660.86,160.86,745.79c0,1,.05,2,0.14,3,0.06,0.69.13,1.38,0.23,2.07,97.73-3,195.47,5.16,293.76,5.25A105.24,105.24,0,0,1,442,749c-10-6.53-15.31-13.44-15.31-20.6,0-39.88,166-72.21,370.68-72.21S1168,688.55,1168,728.43a14.92,14.92,0,0,1-.75,4.59c88.69,1.5,177.33,7.46,266.43,15.69,0.07-.9.12-1.8,0.12-2.7C1433.83,745.94,1433.84,745.87,1433.84,745.79Z" transform="translate(-124.63 -96.79)" fill="#b5cfe2"/>
  <path d="M831,749c-103,7-206,4-309,3-2,0-4,3-6,3-20.36.85-40.7,1.17-61,1.15,55.8,26.12,188.07,44.49,342.36,44.49,168,0,309.85-21.76,355.37-51.6-8.84-5.79-21.33-11.28-36.92-16.37-61.14.21-122.35,2.75-183.8,8.33C898,744,865,747,831,749Z" transform="translate(-124.63 -96.79)" fill="none"/>
  <path d="M442,749a105.24,105.24,0,0,0,13,7.12c20.31,0,40.65-.3,61-1.15,2,0,4-3,6-3,103,1,206,4,309-3,34-2,67-5,101-8,61.45-5.59,122.67-8.12,183.8-8.33-64.7-21.1-183.1-35.24-318.45-35.24C629.38,697.43,487.51,719.19,442,749Z" transform="translate(-124.63 -96.79)" fill="none"/>
  <path d="M1115.8,732.67c15.59,5.08,28.08,10.57,36.92,16.37,7.81-5.12,12.77-10.48,14.56-16Q1141.54,732.59,1115.8,732.67Z" transform="translate(-124.63 -96.79)" fill="#97b8cc"/>
  <path d="M161,748.84v2.07h0.23C161.13,750.22,161.06,749.53,161,748.84Z" transform="translate(-124.63 -96.79)" fill="#97b8cc"/>
  <path d="M1433.83,746c0,0.9-.05,1.8-0.12,2.7l0.29,0V746h-0.17Z" transform="translate(-124.63 -96.79)" fill="#97b8cc"/>
  <path d="M603.25,112.13h99.1A33.62,33.62,0,0,1,736,145.75V302.12a33.62,33.62,0,0,1-33.62,33.62h-83.7a49,49,0,0,1-49-49v-141A33.62,33.62,0,0,1,603.25,112.13Z" fill="#f7e6dd"/>
  <path d="M864.27,210.35a16.75,16.75,0,0,0-16.75-16.75l-182.13-6.27,2.36,34.2c0,21,20.72,36.4,41.71,36.4H816.79s12.25-.77,13.78,28.72c0.28,5.31,1.39,17.18,2.2,25.41l0.26,2.65a6.68,6.68,0,0,0,6.65,6h11.93a12.65,12.65,0,0,0,12.65-12.65V210.35Z" transform="translate(-124.63 -96.79)" fill="#333a3f"/>
  <rect x="719.06" y="210.52" width="31.44" height="50.94" rx="8.89" ry="8.89" fill="#dcbfb1"/>
  <path d="M835.42,313.58" transform="translate(-124.63 -96.79)" fill="#c1a187"/>
  <path d="M829.55,351.62" transform="translate(-124.63 -96.79)" fill="#68513e"/>
  <path d="M724.11,303.28A10.67,10.67,0,0,0,713.38,314h21.44A10.67,10.67,0,0,0,724.11,303.28Z" transform="translate(-124.63 -96.79)" fill="#333a3f"/>
  <polygon points="618 319.21 622.73 350.21 698.8 350.21 710.8 319.21 618 319.21" fill="#f7e6dd"/>
  <path d="M805.28,303.28A10.67,10.67,0,0,0,794.56,314H816A10.67,10.67,0,0,0,805.28,303.28Z" transform="translate(-124.63 -96.79)" fill="#333a3f"/>
  <rect x="627.99" y="205.94" width="24.53" height="63.64" rx="6.93" ry="6.93" fill="#dcbfb1"/>
  <rect x="623.16" y="240.48" width="28.96" height="29.1" rx="8.18" ry="8.18" fill="#dcbfb1"/>
  <g>
    <polygon points="783.39 536 781.07 553.85 900.08 569.28 926.54 528.49 927.72 519.42 783.39 536" fill="#7f96a0"/>
    <polygon points="842.72 485.21 831.79 507.32 783.06 535.96 904.37 551.69 927.72 519.42 930.67 496.61 842.72 485.21" fill="#a1b6c0"/>
    <polygon points="847.17 489.98 840.12 508.06 918.79 518.26 921.24 499.42 847.17 489.98" fill="#cadde6"/>
    <g>
      <polygon points="830.69 516.43 851.22 519.78 858.37 513.19 839.24 510 830.69 516.43" fill="#cadde6"/>
      <polygon points="857.7 520.84 877.26 524.02 882.67 517.22 864.41 514.19 857.7 520.84" fill="#cadde6"/>
      <polygon points="888.81 518.24 883.84 525.08 905.05 528.51 908.62 521.51 888.81 518.24" fill="#cadde6"/>
      <polygon points="817.5 526.04 840.12 529.63 848.1 522.6 826.97 519.18 817.5 526.04" fill="#cadde6"/>
      <polygon points="847.24 530.76 868.77 534.17 874.88 526.92 854.75 523.68 847.24 530.76" fill="#cadde6"/>
      <polygon points="876 535.31 899.3 538.98 903.45 531.51 881.64 528.01 876 535.31" fill="#cadde6"/>
      <polygon points="804.5 535.14 829.12 538.96 837.41 531.97 814.29 528.32 804.5 535.14" fill="#cadde6"/>
      <polygon points="836.87 540.16 860.26 543.78 866.68 536.57 844.69 533.12 836.87 540.16" fill="#cadde6"/>
      <polygon points="868.11 545 893.41 548.9 897.87 541.46 874.07 537.73 868.11 545" fill="#cadde6"/>
    </g>
  </g>
  <rect x="538.06" y="341.16" width="247.37" height="394.5" rx="27.65" ry="27.65" fill="#005faa"/>
  <rect x="576.69" y="417.54" width="77.84" height="277.74" rx="22" ry="22" transform="translate(449.12 -369.12) rotate(45)" fill="#005faa"/>
  <rect x="578.8" y="178.55" width="41.35" height="16.46" rx="4.65" ry="4.65" fill="#333a3f"/>
  <rect x="659.98" y="178.55" width="41.35" height="16.46" rx="4.65" ry="4.65" fill="#333a3f"/>
  <path d="M811.67,375.58c0.82,5-8.66,10.74-21.18,12.79S767.15,388,766.33,383" transform="translate(-124.63 -96.79)" fill="#dcbfb1"/>
  <rect x="892.92" y="451.26" width="77.84" height="277.74" rx="22" ry="22" transform="translate(-295.77 495.44) rotate(-32.46)" fill="#005faa"/>
  <polygon points="615.32 328.36 610.14 352.44 655.75 372.56 661.27 341.16 615.32 328.36" fill="#094d7c"/>
  <polygon points="707.39 328.36 712.57 352.44 666.97 372.56 661.45 341.16 707.39 328.36" fill="#094d7c"/>
  <rect x="548.28" y="716.56" width="229.53" height="22.63" rx="6.4" ry="6.4" fill="#333a3f"/>
  <rect x="571.72" y="714.9" width="11.21" height="28.43" rx="2.33" ry="2.33" fill="#63b6db"/>
  <rect x="621.25" y="714.9" width="11.21" height="28.43" rx="2.33" ry="2.33" fill="#63b6db"/>
  <rect x="693.19" y="714.9" width="11.21" height="28.43" rx="2.33" ry="2.33" fill="#63b6db"/>
  <rect x="752.45" y="714.9" width="11.21" height="28.43" rx="2.33" ry="2.33" fill="#63b6db"/>
  <line x1="660.87" y1="372.21" x2="660.87" y2="717.21" fill="none" stroke="#005893" stroke-miterlimit="10" stroke-width="3"/>
  <circle cx="691.38" cy="409.27" r="5.99" fill="#005faa"/>
  <circle cx="691.38" cy="409.27" r="5.99" fill="none" stroke="#005893" stroke-miterlimit="10" stroke-width="3"/>
  <circle cx="691.38" cy="490.52" r="5.99" fill="none" stroke="#005893" stroke-miterlimit="10" stroke-width="3"/>
  <circle cx="691.38" cy="567.21" r="5.99" fill="none" stroke="#005893" stroke-miterlimit="10" stroke-width="3"/>
  <circle cx="691.38" cy="642.64" r="5.99" fill="none" stroke="#005893" stroke-miterlimit="10" stroke-width="3"/>
  <circle cx="349.48" cy="634.95" r="5.99" fill="none" stroke="#005893" stroke-miterlimit="10" stroke-width="3"/>
  <g>
    <polygon points="181.49 612.27 168.24 550.16 313 528.21 325.49 581.56 181.49 612.27" fill="#aa3a38"/>
    <polygon points="133.5 596.21 168.24 550.56 176.89 591.1 133.5 596.21" fill="#732b2a"/>
    <g>
      <path d="M341.34,670.4L331.62,672l1.46,9,10.83-1.76,0.44,2.71-14.05,2.28-4.05-25,13.5-2.19,0.44,2.71-10.27,1.67,1.28,7.9,9.71-1.58Z" transform="translate(-124.63 -96.79)" fill="#fff"/>
      <path d="M354.17,668.81l0.39,2.41-9.16,1.49L345,670.3Z" transform="translate(-124.63 -96.79)" fill="#fff"/>
      <path d="M357.68,666.34c-0.3-1.85-.58-3.37-0.94-4.83l2.86-.46,0.62,2.87,0.11,0a6.27,6.27,0,0,1,5.1-4.21,5.38,5.38,0,0,1,5.66,2.77h0.07a7.5,7.5,0,0,1,1.62-2.66,6.21,6.21,0,0,1,3.76-1.9c2.37-.38,6.15.6,7.16,6.83l1.71,10.57-3.19.52-1.65-10.16c-0.56-3.45-2.16-5.32-4.79-4.89a4.28,4.28,0,0,0-3.38,3.59,5.46,5.46,0,0,0,0,1.67l1.8,11.09-3.19.52-1.74-10.75c-0.46-2.86-2.06-4.73-4.54-4.32a4.52,4.52,0,0,0-3.51,3.92,4.58,4.58,0,0,0,0,1.64L363,678.91l-3.19.52Z" transform="translate(-124.63 -96.79)" fill="#fff"/>
      <path d="M400.67,672.8L400,670.58l-0.11,0a6.77,6.77,0,0,1-5.05,3.56,5.18,5.18,0,0,1-6.32-4.26c-0.7-4.34,2.77-7.34,9.71-8.42l-0.06-.37c-0.24-1.48-1.08-4.09-4.75-3.49A9.07,9.07,0,0,0,389,659.7l-1.09-2a11.29,11.29,0,0,1,5.64-2.55c5.49-.89,7.43,2.64,8,6.24l1.09,6.71a25.64,25.64,0,0,0,1,4.25Zm-2-9.08c-3.57.5-7.51,1.79-6.95,5.27a2.93,2.93,0,0,0,3.58,2.62,4.52,4.52,0,0,0,3.85-3.71,3.44,3.44,0,0,0,0-1.07Z" transform="translate(-124.63 -96.79)" fill="#fff"/>
      <path d="M408.5,647.93a2,2,0,0,1-4,.66,2,2,0,0,1,1.71-2.37A2,2,0,0,1,408.5,647.93Zm0.09,23.58-2.91-17.95L409,653,411.86,671Z" transform="translate(-124.63 -96.79)" fill="#fff"/>
      <path d="M413,643.78l3.26-.53,4.27,26.33-3.26.53Z" transform="translate(-124.63 -96.79)" fill="#fff"/>
    </g>
  </g>
  <path d="M734.77,840.12s-1.43,15.87-22.36,35.23c-16.07,14.87-39.51,14.59-39.51,14.59" transform="translate(-124.63 -96.79)" fill="none" stroke="#4fa7c6" stroke-linecap="round" stroke-miterlimit="10" stroke-width="2"/>
  <polyline points="566.35 789.39 568.48 767.21 598.38 767.21" fill="none" stroke="#4fa7c6" stroke-linecap="round" stroke-miterlimit="10" stroke-width="2"/>
  <path d="M837.43,840.12s1.43,15.87,22.36,35.23c16.07,14.87,39.51,14.59,39.51,14.59" transform="translate(-124.63 -96.79)" fill="none" stroke="#4fa7c6" stroke-linecap="round" stroke-miterlimit="10" stroke-width="2"/>
  <polyline points="757.5 789.39 754.47 767.21 726.38 767.21" fill="none" stroke="#4fa7c6" stroke-linecap="round" stroke-miterlimit="10" stroke-width="2"/>
  <g>
    <polygon points="944.1 548.31 952.44 501.46 1143.04 516.81 1136.94 566.26 944.1 548.31" fill="#d5c073"/>
    <g>
      <path d="M1093.18,615l-6.35-.56,0.2-2.29,15.46,1.37-0.2,2.29-6.38-.56-1.64,18.59-2.73-.24Z" transform="translate(-124.63 -96.79)" fill="#fcfcfc"/>
      <path d="M1114.66,625.77l-8.12-.72-0.66,7.53,9,0.8-0.2,2.26-11.75-1,1.84-20.89,11.28,1-0.2,2.26-8.58-.76-0.58,6.6,8.12,0.72Z" transform="translate(-124.63 -96.79)" fill="#fcfcfc"/>
      <path d="M1134.6,616.35l-1.84,20.89L1130,637l1.64-18.63-6.91-.61-0.56,6.32c-0.4,4.52-1,9.56-4.15,11.28a6.31,6.31,0,0,1-3.28.71l-0.15-2.2a4.8,4.8,0,0,0,2.3-.92c1.82-1.5,2.33-5.54,2.63-8.89l0.78-8.8Z" transform="translate(-124.63 -96.79)" fill="#fcfcfc"/>
      <path d="M1149.13,628.81l-8.12-.72-0.66,7.53,9,0.8-0.2,2.26-11.75-1,1.84-20.89,11.28,1-0.2,2.26-8.58-.76-0.58,6.6,8.12,0.72Z" transform="translate(-124.63 -96.79)" fill="#fcfcfc"/>
      <path d="M1164.81,618.17l-0.16,1.86c4.38,0.57,8.55,3.63,8,10.2s-5.2,8.69-9.66,8.55l-0.17,2-2.6-.23,0.17-2c-4.35-.66-8.57-3.38-8-10,0.6-6.85,5.66-8.87,9.71-8.76l0.16-1.86Zm-2.94,3.58c-2.74-.09-6.22,1.51-6.7,6.94-0.44,5,2.35,7.36,5.39,7.94Zm1.26,15.1c3,0,6.24-1.73,6.7-6.91,0.47-5.36-2.39-7.55-5.39-8Z" transform="translate(-124.63 -96.79)" fill="#fcfcfc"/>
      <path d="M1194,631.9c-0.63,7.19-5.34,10.62-10.67,10.15-5.52-.49-9-5.11-8.46-11.43,0.58-6.63,5.09-10.61,10.67-10.12S1194.51,625.7,1194,631.9Zm-16.24-1.09c-0.39,4.46,1.67,8.67,5.92,9s7-3.35,7.46-8.09c0.37-4.15-1.42-8.68-5.91-9.08S1178.13,626.22,1177.72,630.81Z" transform="translate(-124.63 -96.79)" fill="#fcfcfc"/>
      <path d="M1201.06,622.21l-0.77,8.74,10.1,0.89,0.77-8.74,2.73,0.24-1.84,20.89-2.73-.24,0.86-9.79-10.1-.89-0.86,9.79-2.7-.24,1.84-20.89Z" transform="translate(-124.63 -96.79)" fill="#fcfcfc"/>
      <path d="M1221.12,624l-0.78,8.8c-0.29,3.32-.59,6-1,8.81l0.06,0c1.24-2.08,2.75-4.22,4.48-6.57l7.7-10.16,2.7,0.24L1232.42,646l-2.54-.22,0.79-8.89c0.3-3.38.55-5.86,1-8.47l-0.09,0a64,64,0,0,1-4.5,6.69l-7.46,9.81-2.88-.25,1.84-20.89Z" transform="translate(-124.63 -96.79)" fill="#fcfcfc"/>
      <path d="M1235.24,646.28a13.23,13.23,0,0,0,1-1.82c1.11-2.31,1.92-5.17,3.78-6.72a4.25,4.25,0,0,1,1.83-.9v-0.09a5.2,5.2,0,0,1-4.17-5.55,5.34,5.34,0,0,1,2.3-4.08c1.39-.94,3.49-1.32,6.12-1.08a26.82,26.82,0,0,1,5,.88l-1.82,20.61-2.7-.24,0.8-9-2-.18a4,4,0,0,0-3.1.76c-1.55,1.33-2.41,4.35-3.33,6.27a13,13,0,0,1-.82,1.46Zm13-17.72a12.72,12.72,0,0,0-2.52-.47c-2.67-.23-5,0.59-5.27,3.47-0.22,2.51,1.88,4.16,4.83,4.42,0.9,0.08,1.77.16,2.3,0.17Z" transform="translate(-124.63 -96.79)" fill="#fcfcfc"/>
    </g>
    <polygon points="1143.04 516.81 1154.38 560.27 1136.94 566.26 1143.04 516.81" fill="#9b926b"/>
  </g>
  <rect x="642.19" y="715.28" width="40.69" height="25.21" rx="4.88" ry="4.88" fill="#e6e6e6"/>
  <path d="M766.33,190.81" transform="translate(-124.63 -96.79)" fill="#333a3f"/>
  <g>
    <path d="M797.35,899.59c-344.44,0-625-66.11-636.13-148.68H161v33c-0.08,1-.14,2-0.14,3,0,84.94,285,153.79,636.49,153.79S1433.84,871.94,1433.84,787H1434V748.74l-0.29,0C1427.27,832.3,1144.84,899.59,797.35,899.59Z" transform="translate(-124.63 -96.79)" fill="#97b8cc"/>
    <path d="M1152.72,749c-45.52,29.84-187.4,51.6-355.37,51.6-154.3,0-286.56-18.37-342.36-44.49-98.3-.08-196-8.28-293.76-5.25,11.16,82.57,291.68,148.68,636.13,148.68,347.49,0,629.92-67.29,636.36-150.88-89.1-8.22-177.74-14.19-266.43-15.69C1165.49,738.55,1160.53,743.91,1152.72,749Z" transform="translate(-124.63 -96.79)" fill="#b5cfe2"/>
  </g>
  <rect x="458.21" y="574.02" width="77.84" height="202.86" rx="22" ry="22" transform="translate(498.59 -250.48) rotate(45)" fill="#005faa"/>
  <g>
    <g>
      <polygon points="370.28 706.75 287.91 733.78 169.99 717.82 167.3 737.64 285.23 753.6 367.95 726.45 367.62 726.41 370.28 706.75" fill="#6c8796"/>
      <polygon points="287.91 733.78 370.28 706.75 370.63 706.63 264.1 692.21 169.99 717.82 287.91 733.78" fill="#849eaf"/>
    </g>
    <polygon points="323.07 684.05 266.77 698.63 298.15 702.88 351.64 687.91 323.07 684.05" fill="#8fbacc"/>
    <polygon points="263.89 717.41 266.44 698.58 298.15 702.88 351.64 687.91 349.09 706.74 295.93 721.75 263.89 717.41" fill="#6b9aaa"/>
    <g>
      <polygon points="181.09 715.29 181 696.1 279.1 709.38 279.03 728.54 181.09 715.29" fill="#b7d3e2"/>
      <polygon points="279.1 709.38 285.05 710.18 291.58 725.28 278.54 728.48 279.1 709.38" fill="#8fbacc"/>
    </g>
  </g>
  <g>
    <rect x="403.22" y="711.33" width="54.82" height="67.48" rx="12" ry="12" transform="translate(535.33 -181.17) rotate(45.48)" fill="#f7e6dd"/>
    <circle cx="449.38" cy="745.63" r="19.6" transform="translate(-424.63 1091.93) rotate(-89.52)" fill="#f7e6dd"/>
    <rect x="454.62" y="742.01" width="15.47" height="39.2" rx="4.37" ry="4.37" transform="translate(-118.2 -100.65) rotate(0.48)" fill="#f7e6dd"/>
    <rect x="384.28" y="724.34" width="11.69" height="58.71" rx="3.3" ry="3.3" transform="translate(529.37 -149.71) rotate(45.48)" fill="#f7e6dd"/>
    <rect x="391.18" y="738.27" width="11.69" height="58.71" rx="3.3" ry="3.3" transform="translate(541.37 -150.46) rotate(45.48)" fill="#f7e6dd"/>
    <rect x="400.9" y="749.57" width="11.69" height="58.71" rx="3.3" ry="3.3" transform="translate(552.33 -154.01) rotate(45.48)" fill="#f7e6dd"/>
    <rect x="413.2" y="758.96" width="11.69" height="58.71" rx="3.3" ry="3.3" transform="translate(562.7 -159.98) rotate(45.48)" fill="#f7e6dd"/>
  </g>
  <g>
    <polygon points="370.33 760.85 398.48 691.14 602.76 708.62 576.97 778.54 370.33 760.85" fill="#59b2df"/>
    <polygon points="602.7 708.3 619.29 765.42 582.71 762.29 602.7 708.3" fill="#518ba8"/>
    <g>
      <path d="M557.26,803.41l-0.49,5.74c-0.19,2.17-.33,3.51-0.61,5.44l0.08,0c1-1.59,1.52-2.51,2.55-4l4.85-6.67,2.9,0.25-1.17,13.61-2.36-.2,0.49-5.77c0.19-2.22.34-3.37,0.64-5.55h-0.08c-1,1.67-1.71,2.71-2.61,4-1.47,2-3.19,4.49-4.86,6.75l-2.84-.24,1.17-13.61Z" transform="translate(-124.63 -96.79)" fill="#fff"/>
      <path d="M573,804.75l-0.47,5.48,6.47,0.55,0.47-5.48,2.45,0.21-1.17,13.61-2.45-.21,0.53-6.16-6.47-.55-0.53,6.16-2.45-.21,1.17-13.61Z" transform="translate(-124.63 -96.79)" fill="#fff"/>
      <path d="M595,806.64l-0.17,2-4.25-.36-1,11.64-2.45-.21,1-11.64-4.25-.36,0.17-2Z" transform="translate(-124.63 -96.79)" fill="#fff"/>
      <path d="M597.59,814.17c-0.23,3.35,1.79,4.91,4.26,5.13a9,9,0,0,0,3.83-.38l0.27,1.81a11.07,11.07,0,0,1-4.6.46c-4.19-.36-6.46-3.33-6.11-7.44s3-7.13,7-6.79c4.44,0.38,5.29,4.39,5.08,6.89a9.36,9.36,0,0,1-.18,1.15ZM605,813c0.16-1.57-.3-4.08-3.09-4.32-2.5-.21-3.8,2-4.14,3.7Z" transform="translate(-124.63 -96.79)" fill="#fff"/>
      <path d="M610.54,812.45c0.15-1.74.21-3.16,0.27-4.45l2.22,0.19-0.09,2.34H613a5.37,5.37,0,0,1,5.06-2.23c3.29,0.28,5.53,3.28,5.17,7.41-0.42,4.89-3.61,7.06-6.81,6.78a4.79,4.79,0,0,1-4-2.5h-0.06l-0.63,7.4-2.45-.21Zm2.14,3.84a5.54,5.54,0,0,0,0,1,3.83,3.83,0,0,0,3.46,3.21c2.62,0.22,4.32-1.78,4.58-4.91,0.23-2.73-1-5.19-3.62-5.41a4,4,0,0,0-4,2.75,4.09,4.09,0,0,0-.25,1Z" transform="translate(-124.63 -96.79)" fill="#fff"/>
      <path d="M629.32,809.58l-0.47,5.48,6.47,0.55,0.47-5.48,2.45,0.21L637.07,824l-2.45-.21,0.53-6.16-6.47-.55-0.53,6.16-2.45-.21,1.17-13.61Z" transform="translate(-124.63 -96.79)" fill="#fff"/>
      <path d="M643,818.06c-0.23,3.35,1.79,4.91,4.26,5.13a9,9,0,0,0,3.83-.38l0.27,1.81a11.06,11.06,0,0,1-4.6.46c-4.19-.36-6.46-3.33-6.11-7.44s3-7.13,7-6.79c4.44,0.38,5.29,4.39,5.08,6.89a9.36,9.36,0,0,1-.18,1.15Zm7.41-1.15c0.16-1.57-.3-4.08-3.09-4.32-2.5-.21-3.8,2-4.14,3.7Z" transform="translate(-124.63 -96.79)" fill="#fff"/>
      <path d="M665.46,812.67l-0.17,2-4.25-.36-1,11.64-2.45-.21,1-11.64-4.25-.36,0.17-2Z" transform="translate(-124.63 -96.79)" fill="#fff"/>
      <path d="M552.33,837l-1.17,13.61-2.48-.21,1-11.64-6.33-.54-1,11.64-2.45-.21L541.08,836Z" transform="translate(-124.63 -96.79)" fill="#fff"/>
      <path d="M556,841.78c0.15-1.74.21-3.16,0.27-4.45l2.22,0.19-0.09,2.34h0.06a5.37,5.37,0,0,1,5.06-2.23c3.29,0.28,5.53,3.28,5.17,7.41-0.42,4.89-3.61,7.06-6.81,6.78a4.79,4.79,0,0,1-4-2.5h-0.06l-0.63,7.4-2.45-.21Zm2.14,3.84a5.6,5.6,0,0,0,0,1,3.83,3.83,0,0,0,3.46,3.21c2.62,0.22,4.32-1.78,4.58-4.91,0.23-2.73-1-5.18-3.62-5.41a4,4,0,0,0-4,2.75,4,4,0,0,0-.26,1Z" transform="translate(-124.63 -96.79)" fill="#fff"/>
      <path d="M584.1,846.45c-0.43,5-4.11,6.93-7.4,6.65-3.68-.32-6.29-3.26-5.93-7.56,0.39-4.56,3.6-7,7.37-6.65S584.46,842.29,584.1,846.45Zm-10.81-.78c-0.26,3,1.27,5.38,3.69,5.58s4.33-1.87,4.59-4.93c0.2-2.31-.71-5.33-3.63-5.58S573.51,843.08,573.29,845.67Z" transform="translate(-124.63 -96.79)" fill="#fff"/>
      <path d="M587.73,840.19a29.06,29.06,0,0,1,4.36.06c2.28,0.19,6,.88,5.76,3.92a3.23,3.23,0,0,1-3.1,2.82V847c2,0.45,3.34,1.7,3.17,3.67-0.31,3.57-4.84,3.64-7.52,3.41-1.52-.13-3.08-0.38-3.81-0.5Zm1.32,12a15.05,15.05,0,0,0,2,.28c1.66,0.14,4.17,0,4.34-2s-1.76-2.56-4.13-2.76l-1.8-.15Zm0.56-6.27,1.86,0.16c1.83,0.16,3.76-.22,3.9-1.82,0.12-1.35-1-2.1-3.49-2.31a17.94,17.94,0,0,0-1.92-.05Z" transform="translate(-124.63 -96.79)" fill="#fff"/>
      <path d="M608.23,855.49l0-1.73H608.1a5.09,5.09,0,0,1-4.34,1.67,3.89,3.89,0,0,1-3.83-4.27c0.28-3.29,3.36-4.84,8.62-4.36l0-.28a2.82,2.82,0,0,0-2.82-3.42,6.82,6.82,0,0,0-3.63.71l-0.42-1.68a8.48,8.48,0,0,1,4.58-.83c4.16,0.36,4.93,3.28,4.7,6l-0.44,5.09a19.12,19.12,0,0,0-.05,3.28Zm0.23-7c-2.7-.29-5.8-0.07-6,2.57a2.2,2.2,0,0,0,2.13,2.56,3.4,3.4,0,0,0,3.49-2,2.58,2.58,0,0,0,.21-0.78Z" transform="translate(-124.63 -96.79)" fill="#fff"/>
      <path d="M617.7,842.58l-0.49,5.74c-0.19,2.17-.33,3.51-0.61,5.44l0.08,0c1-1.59,1.52-2.5,2.55-4l4.85-6.67,2.9,0.25L625.81,857l-2.36-.2,0.49-5.77c0.19-2.22.34-3.37,0.64-5.55h-0.08c-1,1.67-1.71,2.72-2.61,4-1.47,2-3.19,4.49-4.86,6.75L614.2,856l1.17-13.61Zm2.08-5.4c0,1.22.49,2.2,1.62,2.29s1.85-.75,2.1-2l1.77,0.15a3.42,3.42,0,0,1-4,3.17c-2.47-.21-3.3-1.84-3.24-3.79Z" transform="translate(-124.63 -96.79)" fill="#fff"/>
      <path d="M641.55,844.62l-1,11.76,1.4,0.15-0.67,6.15-1.94-.17,0.26-4.34-9.42-.81-0.48,4.32-1.94-.17,0.41-6.17,1.16,0.07a10.65,10.65,0,0,0,1.59-2.67,18,18,0,0,0,1.25-5.36l0.3-3.54Zm-7.24,3.54a18.09,18.09,0,0,1-1.14,5,12.94,12.94,0,0,1-1.31,2.44l6.27,0.54L639,846.3l-4.47-.38Z" transform="translate(-124.63 -96.79)" fill="#fff"/>
      <path d="M646.55,852.36c-0.23,3.35,1.79,4.91,4.26,5.13a9,9,0,0,0,3.83-.38l0.27,1.81a11.06,11.06,0,0,1-4.6.46c-4.19-.36-6.46-3.33-6.11-7.44s3-7.13,7-6.79c4.44,0.38,5.29,4.39,5.08,6.89a9.41,9.41,0,0,1-.18,1.15Zm7.41-1.15c0.16-1.57-.3-4.08-3.09-4.32-2.5-.21-3.8,2-4.14,3.7Z" transform="translate(-124.63 -96.79)" fill="#fff"/>
      <path d="M659.51,850.64c0.15-1.74.21-3.16,0.27-4.45l2.22,0.19-0.09,2.34H662a5.37,5.37,0,0,1,5.06-2.23c3.29,0.28,5.53,3.28,5.17,7.41-0.42,4.89-3.61,7.06-6.81,6.78a4.79,4.79,0,0,1-4-2.5h-0.06l-0.63,7.4-2.45-.21Zm2.14,3.84a5.59,5.59,0,0,0,0,1,3.83,3.83,0,0,0,3.46,3.21c2.62,0.22,4.32-1.78,4.58-4.91,0.23-2.73-1-5.19-3.62-5.41a4,4,0,0,0-4,2.75,4.07,4.07,0,0,0-.25,1Z" transform="translate(-124.63 -96.79)" fill="#fff"/>
    </g>
  </g>
  <g>
    <polygon points="1056.38 573.21 1056.38 593.21 1101.38 664.21 1238.38 632.21 1238.38 610.21 1245.38 594.21 1238.38 589.21 1056.38 573.21" fill="#7f96a0"/>
    <polygon points="1056.38 573.21 1142.38 555.21 1159.38 534.21 1238.38 589.21 1226.38 605.21 1103.38 637.21 1056.38 573.21" fill="#a1b6c0"/>
    <polygon points="1159.04 542.54 1147.38 558.54 1216.38 602.54 1227.04 587.21 1159.04 542.54" fill="#cadde6"/>
    <polygon points="1142.04 564.21 1125.38 567.54 1133.71 576.21 1150.88 571.96 1142.04 564.21" fill="#cadde6"/>
    <polygon points="1157.04 578.21 1140.38 581.54 1148.71 590.21 1165.88 585.96 1157.04 578.21" fill="#cadde6"/>
    <polygon points="1172.04 593.21 1155.38 596.54 1163.71 605.21 1180.88 600.96 1172.04 593.21" fill="#cadde6"/>
    <polygon points="1118.56 569.46 1101.69 571.57 1109.38 580.82 1126.81 577.83 1118.56 569.46" fill="#cadde6"/>
    <polygon points="1132.5 584.51 1115.64 586.63 1123.32 595.87 1140.75 592.88 1132.5 584.51" fill="#cadde6"/>
    <polygon points="1146.38 600.56 1129.51 602.67 1137.19 611.92 1154.62 608.93 1146.38 600.56" fill="#cadde6"/>
    <polygon points="1094.1 573.22 1077.18 574.91 1084.63 584.35 1102.13 581.8 1094.1 573.22" fill="#cadde6"/>
    <polygon points="1107.66 588.62 1090.74 590.31 1098.19 599.75 1115.69 597.2 1107.66 588.62" fill="#cadde6"/>
    <polygon points="1121.12 605.01 1104.21 606.71 1111.66 616.14 1129.16 613.59 1121.12 605.01" fill="#cadde6"/>
  </g>
  <g>
    <polygon points="1017.49 684.08 1238.69 612.42 1270.2 676.54 1046.6 746.26 1017.49 684.08" fill="#76c874"/>
    <polygon points="1000.18 731.19 1017.49 684.08 1036.44 724.56 1000.18 731.19" fill="#679965"/>
    <g>
      <path d="M1172.67,795a30.69,30.69,0,0,1,5.3-2.31c3-1,5.09-1.13,6.92-.45a5.12,5.12,0,0,1,3.29,3.45,5.8,5.8,0,0,1-2.21,6.4l0,0.07a6.3,6.3,0,0,1,6.72,4.21,6.59,6.59,0,0,1-.41,5.29c-1.12,2-3.5,3.58-7.28,4.85a36.83,36.83,0,0,1-4.73,1.28Zm6.17,8.48,2.71-.91c3.16-1.06,4.46-3.33,3.72-5.56-0.91-2.71-3.33-3.09-6.35-2.08a13.47,13.47,0,0,0-2.58,1.09Zm3.72,11.1a17,17,0,0,0,2.55-.7c3.09-1,5.56-3.12,4.44-6.49-1.06-3.16-4.21-3.56-7.48-2.46l-2.47.83Z" transform="translate(-124.63 -96.79)" fill="#fff"/>
      <path d="M1198,803.27c1.44,4.07,4.61,4.88,7.64,3.86a11.54,11.54,0,0,0,4.32-2.4l1.24,2a14.21,14.21,0,0,1-5.19,2.88c-5.12,1.71-9.31-.63-11-5.65s0-10,4.8-11.58c5.43-1.82,8.47,2.47,9.5,5.53a12,12,0,0,1,.37,1.44Zm8.14-5.13c-0.61-1.94-2.44-4.65-5.84-3.51-3.06,1-3.46,4.29-3,6.47Z" transform="translate(-124.63 -96.79)" fill="#fff"/>
      <path d="M1221.45,779.29a23.9,23.9,0,0,1-3.22,1.92c-2.54,1.31-4.2,2.86-4.86,5.11a12.51,12.51,0,0,0,0,6.11l0.1,0a6.64,6.64,0,0,1,4.52-5.68c4.09-1.37,8.06.55,9.83,5.84s0.13,9.74-4.75,11.38c-5.84,2-9.64-3-11.49-8.53-1.27-3.78-1.51-7.14-.51-10.07,0.84-2.84,2.79-4.68,5.84-6.31a25.71,25.71,0,0,0,3.82-2.28Zm-3.31,9.86a4.26,4.26,0,0,0-3,3.52,7.68,7.68,0,0,0,.36,3.82c0.92,2.75,3.58,6.25,6.88,5.15s3.49-4.76,2.46-7.82C1224,791.1,1221.72,788,1218.14,789.15Z" transform="translate(-124.63 -96.79)" fill="#fff"/>
      <path d="M1245.29,784.5l0.75,2.23-8.49,2.84-0.75-2.23Z" transform="translate(-124.63 -96.79)" fill="#fff"/>
      <path d="M1255.44,774.18L1259,777c0.93,0.72,1.73,1.41,2.59,2.15l0.1,0c0.22-1.18.48-2.22,0.73-3.3l1.15-4.32,3.26-1.09-3,9.94,8.72,6.63-3.44,1.15-3.69-2.93c-1-.74-1.84-1.49-2.75-2.29l-0.07,0c-0.22,1.18-.5,2.27-0.79,3.47l-1.15,4.55-3.33,1.12,3.07-10.47-8.36-6.26Z" transform="translate(-124.63 -96.79)" fill="#fff"/>
      <path d="M1287.25,772.62c2.06,6.15-1.3,10.26-5.32,11.6-4.5,1.51-9.08-.63-10.84-5.89-1.86-5.57.69-10.05,5.29-11.59C1281.15,765.15,1285.54,767.54,1287.25,772.62Zm-13.14,4.59c1.22,3.64,4.24,5.69,7.19,4.7s4.14-4.41,2.89-8.15c-0.94-2.82-3.55-5.92-7.12-4.72S1273.05,774.05,1274.11,777.21Z" transform="translate(-124.63 -96.79)" fill="#fff"/>
      <path d="M1305.54,775.21a11.77,11.77,0,0,1-4.45,2.56c-5,1.68-9.42-.63-11.12-5.71s0.55-10,6-11.82a10.65,10.65,0,0,1,4.48-.54l0.1,2.57a7.39,7.39,0,0,0-3.77.38c-3.81,1.28-4.93,4.79-3.77,8.26,1.29,3.85,4.56,5.39,7.86,4.29a9.06,9.06,0,0,0,3.44-2.07Z" transform="translate(-124.63 -96.79)" fill="#fff"/>
      <path d="M1315.51,754.06l0.81,2.41-5.19,1.74,4.76,14.23-3,1-4.76-14.23-5.19,1.74-0.8-2.41Z" transform="translate(-124.63 -96.79)" fill="#fff"/>
      <path d="M1320.94,752.25l2.35,7c0.89,2.65,1.4,4.31,2.06,6.72h0.12c0.32-2.36.51-3.72,1-6l2.31-10.33,3.54-1.18,5.57,16.63-2.89,1-2.36-7c-0.91-2.71-1.31-4.15-2.07-6.87l-0.1,0c-0.35,2.49-.62,4.07-1,6.08-0.72,3.11-1.47,6.91-2.28,10.43l-3.47,1.16-5.57-16.63Z" transform="translate(-124.63 -96.79)" fill="#fff"/>
      <path d="M1340.11,745.82l2.24,6.7,7.9-2.65-2.24-6.7,3-1,5.57,16.63-3,1-2.52-7.53-7.9,2.65,2.52,7.53-3,1-5.57-16.63Z" transform="translate(-124.63 -96.79)" fill="#fff"/>
      <path d="M1366.09,737.12l0.82,2.44-7.22,2.42,4.75,14.19-3,1-5.57-16.63Z" transform="translate(-124.63 -96.79)" fill="#fff"/>
    </g>
  </g>
  <rect x="1028.09" y="585.12" width="82.13" height="214.03" rx="22" ry="22" transform="translate(1778.43 -367.33) rotate(97.98)" fill="#005faa"/>
  <rect x="1137.17" y="672.33" width="57.84" height="71.19" rx="12" ry="12" transform="translate(178.46 1667.62) rotate(-82.02)" fill="#f7e6dd"/>
  <circle cx="1154.51" cy="691.87" r="20.68" transform="translate(-308.48 737.74) rotate(-37.02)" fill="#f7e6dd"/>
  <g>
    <rect x="1171.71" y="637.34" width="51.54" height="51.54" rx="25.77" ry="25.77" transform="translate(35.49 -326.73) rotate(11.75)" fill="#64b2dd"/>
    <rect x="1161.95" y="654.07" width="25.77" height="109.25" transform="translate(44.29 -321.17) rotate(11.75)" fill="#64b2dd"/>
    <rect x="1150.56" y="739.04" width="51.54" height="51.54" rx="25.77" ry="25.77" transform="translate(55.75 -320.29) rotate(11.75)" fill="#64b2dd"/>
    <rect x="1197.29" y="646.41" width="20.92" height="37.37" rx="10.46" ry="10.46" transform="translate(36.11 -328.78) rotate(11.75)" fill="#9ad8f4"/>
    <rect x="1176.11" y="748.25" width="20.92" height="37.37" rx="10.46" ry="10.46" transform="translate(56.4 -322.33) rotate(11.75)" fill="#9ad8f4"/>
    <polygon points="1067.42 591.42 1048.84 587.55 1066.23 597.13 1067.42 591.42" fill="#4098bf"/>
    <circle cx="1183.71" cy="756.91" r="2.74" transform="translate(77 1664.91) rotate(-78.25)" fill="#64b2dd"/>
    <circle cx="1193.72" cy="758.99" r="2.74" transform="translate(82.93 1676.36) rotate(-78.25)" fill="#64b2dd"/>
    <circle cx="1186.78" cy="767.24" r="2.74" transform="translate(69.34 1676.14) rotate(-78.25)" fill="#64b2dd"/>
    <circle cx="1180" cy="774.78" r="2.74" transform="translate(56.56 1675.5) rotate(-78.25)" fill="#64b2dd"/>
    <circle cx="1190" cy="776.86" r="2.74" transform="translate(62.49 1686.95) rotate(-78.25)" fill="#64b2dd"/>
  </g>
  <rect x="1178.62" y="716.98" width="12.33" height="39.38" rx="3.3" ry="3.3" transform="matrix(0.14, -0.99, 0.99, 0.14, 166.1, 1710.88)" fill="#f7e6dd"/>
  <rect x="1183.04" y="699.69" width="12.33" height="39.38" rx="3.3" ry="3.3" transform="translate(187.02 1700.38) rotate(-82.02)" fill="#f7e6dd"/>
  <rect x="1188.05" y="683.7" width="12.33" height="39.38" rx="3.3" ry="3.3" transform="translate(207.17 1691.57) rotate(-82.02)" fill="#f7e6dd"/>
  <rect x="1186.67" y="668.04" width="12.33" height="39.38" rx="3.3" ry="3.3" transform="translate(221.5 1676.71) rotate(-82.02)" fill="#f7e6dd"/>
  <rect x="539.85" y="339.86" width="77.84" height="277.74" rx="22" ry="22" transform="translate(-22.62 962.34) rotate(-90.2)" fill="#005faa"/>
  <rect x="377.74" y="311.14" width="82.13" height="214.03" rx="22" ry="22" transform="translate(884.3 365.98) rotate(139.37)" fill="#005faa"/>
  <rect x="324.28" y="309.46" width="57.84" height="71.19" rx="12" ry="12" transform="translate(-264.17 216.41) rotate(-40.63)" fill="#f7e6dd"/>
  <circle cx="372.97" cy="346.14" r="20.68" transform="translate(-125.19 594.88) rotate(-85.63)" fill="#f7e6dd"/>
  <g>
    <rect x="348.23" y="268.67" width="51.54" height="51.54" rx="25.77" ry="25.77" transform="translate(300.68 670.88) rotate(-134.4)" fill="#64b2dd"/>
    <rect x="334.95" y="283.48" width="25.77" height="109.25" transform="translate(225 726.39) rotate(-134.4)" fill="#64b2dd"/>
    <rect x="274.02" y="341.35" width="51.54" height="51.54" rx="25.77" ry="25.77" transform="translate(122.61 741.37) rotate(-134.4)" fill="#64b2dd"/>
    <rect x="356.33" y="268.18" width="20.92" height="37.37" rx="10.46" ry="10.46" transform="translate(293.83 652.85) rotate(-134.4)" fill="#9ad8f4"/>
    <rect x="282.01" y="340.96" width="20.92" height="37.37" rx="10.46" ry="10.46" transform="translate(115.51 723.45) rotate(-134.4)" fill="#9ad8f4"/>
    <polygon points="231.18 215.77 244.45 229.33 227.01 219.86 231.18 215.77" fill="#4098bf"/>
    <circle cx="302.45" cy="356.64" r="2.74" transform="translate(-287.8 216.64) rotate(-44.4)" fill="#64b2dd"/>
    <circle cx="295.3" cy="349.34" r="2.74" transform="translate(-284.73 209.56) rotate(-44.4)" fill="#64b2dd"/>
    <circle cx="292.1" cy="359.63" r="2.74" transform="translate(-292.84 210.25) rotate(-44.4)" fill="#64b2dd"/>
    <circle cx="289.41" cy="369.41" r="2.74" transform="translate(-300.45 211.17) rotate(-44.4)" fill="#64b2dd"/>
    <circle cx="282.27" cy="362.11" r="2.74" transform="translate(-297.38 204.08) rotate(-44.4)" fill="#64b2dd"/>
  </g>
  <rect x="335.68" y="299.24" width="12.33" height="39.38" rx="3.3" ry="3.3" transform="translate(-249.89 202.71) rotate(-40.63)" fill="#f7e6dd"/>
  <rect x="349.61" y="291.94" width="12.33" height="39.38" rx="3.3" ry="3.3" transform="translate(-241.79 210.03) rotate(-40.63)" fill="#f7e6dd"/>
  <rect x="322.68" y="310.24" width="12.33" height="39.38" rx="3.3" ry="3.3" transform="translate(-260.19 196.9) rotate(-40.63)" fill="#f7e6dd"/>
  <rect x="309.68" y="323.24" width="12.33" height="39.38" rx="3.3" ry="3.3" transform="translate(-271.79 191.57) rotate(-40.63)" fill="#f7e6dd"/>
  <rect x="936.89" y="300.37" width="77.84" height="277.74" rx="22" ry="22" transform="translate(973.89 1405.5) rotate(-120.82)" fill="#005faa"/>
  <rect x="964.43" y="254.58" width="82.13" height="214.03" rx="22" ry="22" transform="translate(1377.05 -681.54) rotate(97.89)" fill="#005faa"/>
  <rect x="879.02" y="314.68" width="57.84" height="71.19" rx="12" ry="12" transform="matrix(0.14, -0.99, 0.99, 0.14, 311.73, 1104.75)" fill="#f7e6dd"/>
  <circle cx="923.46" cy="338" r="20.68" transform="translate(-141.53 528.85) rotate(-37.11)" fill="#f7e6dd"/>
  <g>
    <rect x="864.22" y="272.81" width="51.54" height="51.54" rx="25.77" ry="25.77" transform="translate(1631.6 563.57) rotate(-175.88)" fill="#64b2dd"/>
    <rect x="886.42" y="294" width="25.77" height="109.25" transform="translate(1646.6 664.21) rotate(-175.88)" fill="#64b2dd"/>
    <rect x="856.76" y="376.42" width="51.54" height="51.54" rx="25.77" ry="25.77" transform="translate(1609.23 769.99) rotate(-175.88)" fill="#64b2dd"/>
    <rect x="869.11" y="279" width="20.92" height="37.37" rx="10.46" ry="10.46" transform="translate(1610.84 561.03) rotate(-175.88)" fill="#9ad8f4"/>
    <rect x="861.64" y="382.75" width="20.92" height="37.37" rx="10.46" ry="10.46" transform="translate(1588.45 767.73) rotate(-175.88)" fill="#9ad8f4"/>
    <polygon points="763.74 227.42 782.66 228.78 763.32 233.24 763.74 227.42" fill="#4098bf"/>
    <circle cx="877.58" cy="392.57" r="2.74" transform="translate(298.31 1142.87) rotate(-85.88)" fill="#64b2dd"/>
    <circle cx="867.39" cy="391.84" r="2.74" transform="translate(289.59 1132.03) rotate(-85.88)" fill="#64b2dd"/>
    <circle cx="871.8" cy="401.67" r="2.74" transform="translate(283.88 1145.55) rotate(-85.88)" fill="#64b2dd"/>
    <circle cx="876.27" cy="410.77" r="2.74" transform="translate(278.94 1158.45) rotate(-85.88)" fill="#64b2dd"/>
    <circle cx="866.08" cy="410.04" r="2.74" transform="translate(270.22 1147.61) rotate(-85.88)" fill="#64b2dd"/>
  </g>
  <rect x="875.95" y="318.53" width="12.33" height="39.38" rx="3.3" ry="3.3" transform="translate(301.4 1068.78) rotate(-82.11)" fill="#f7e6dd"/>
  <rect x="881.56" y="303.84" width="12.33" height="39.38" rx="3.3" ry="3.3" transform="translate(320.79 1061.66) rotate(-82.11)" fill="#f7e6dd"/>
  <rect x="873.5" y="335.38" width="12.33" height="39.38" rx="3.3" ry="3.3" transform="translate(282.59 1080.89) rotate(-82.11)" fill="#f7e6dd"/>
  <rect x="872.37" y="352.73" width="12.33" height="39.38" rx="3.3" ry="3.3" transform="translate(319.29 1125.12) rotate(-85.88)" fill="#f7e6dd"/>
  <polygon points="794.33 221.02 753.6 219.53 747.47 281.85 798.83 284.83 794.33 221.02" fill="#f7e6dd"/>
</svg>
