<svg id="Layer_3" data-name="Layer 3" xmlns="http://www.w3.org/2000/svg" viewBox="0 0 1294.44 929.95">
  <title>8</title>
  <rect width="1294.44" height="929.95" rx="12" ry="12" fill="#fafdff"/>
  <rect x="128.92" y="799.98" width="589.66" height="56.07" rx="28.03" ry="28.03" fill="#cee7f4"/>
  <rect x="877.26" y="819.98" width="372.86" height="56.07" rx="28.03" ry="28.03" fill="#cee7f4"/>
  <path d="M703.49,285.72h12.84a33.62,33.62,0,0,1,33.62,33.62v61.11a33.62,33.62,0,0,1-33.62,33.62H688.09a33.62,33.62,0,0,1-33.62-33.62V334.74a49,49,0,0,1,49-49Z" transform="translate(1222.03 536.49) rotate(-180)" fill="#f7e6dd"/>
  <path d="M652.37,286.54a9.61,9.61,0,0,1,9.61-9.61l104.54-3.6L765.17,293c0,12.05-11.89,20.89-23.94,20.89h-61.6s-7-.44-7.91,16.48c-0.16,3-.8,9.86-1.26,14.58l-0.15,1.52a3.83,3.83,0,0,1-3.82,3.45h-6.85a7.26,7.26,0,0,1-7.26-7.26V286.54Z" transform="translate(-182.39 -163.31)" fill="#333a3f"/>
  <rect x="646.14" y="342.2" width="18.04" height="29.24" rx="8.89" ry="8.89" transform="translate(1127.93 550.32) rotate(-180)" fill="#dcbfb1"/>
  <path d="M668.92,345.8" transform="translate(-182.39 -163.31)" fill="#c1a187"/>
  <path d="M672.29,367.63" transform="translate(-182.39 -163.31)" fill="#68513e"/>
  <path d="M732.82,339.85A5.8,5.8,0,0,1,739,346H726.66A5.8,5.8,0,0,1,732.82,339.85Z" transform="translate(-182.39 -163.31)" fill="#333a3f"/>
  <polygon points="490.09 241.69 492.8 258.69 536.46 258.69 543.35 241.69 490.09 241.69" fill="#f7e6dd"/>
  <path d="M686.22,339.85a5.8,5.8,0,0,1,6.15,6.15H680.07A5.8,5.8,0,0,1,686.22,339.85Z" transform="translate(-182.39 -163.31)" fill="#333a3f"/>
  <rect x="702.37" y="339.57" width="14.08" height="36.53" rx="6.93" ry="6.93" transform="translate(1236.44 552.35) rotate(-180)" fill="#dcbfb1"/>
  <rect x="702.6" y="359.39" width="16.62" height="16.7" rx="8.18" ry="8.18" transform="translate(1239.44 572.18) rotate(180)" fill="#dcbfb1"/>
  <rect x="444.2" y="253.87" width="141.99" height="226.43" rx="27.65" ry="27.65" fill="#005faa"/>
  <rect x="584.89" y="404.56" width="44.68" height="159.42" rx="22" ry="22" transform="translate(337.9 -450.84) rotate(45)" fill="#005faa"/>
  <rect x="720.95" y="323.85" width="23.74" height="9.45" rx="4.65" ry="4.65" transform="translate(1283.24 493.84) rotate(-180)" fill="#333a3f"/>
  <rect x="674.36" y="323.85" width="23.74" height="9.45" rx="4.65" ry="4.65" transform="translate(1190.06 493.84) rotate(-180)" fill="#333a3f"/>
  <path d="M682.56,381.38c-0.47,2.87,5,6.16,12.16,7.34s13.39-.19,13.87-3.07" transform="translate(-182.39 -163.31)" fill="#dcbfb1"/>
  <path d="M627.77,643.57l-83,25.1L571.35,789h37.83l0.91-84.37,82-19.32L708.43,902h43.92s20-269.11,11.85-262.61S627.77,643.57,627.77,643.57Z" transform="translate(-182.39 -163.31)" fill="#63b6db"/>
  <rect x="756.65" y="408.33" width="44.68" height="159.42" rx="22" ry="22" transform="translate(-322.09 356.62) rotate(-34.06)" fill="#005faa"/>
  <rect x="817.84" y="454.64" width="44.68" height="116.43" rx="22" ry="22" transform="translate(889.24 1306.3) rotate(-135)" fill="#005faa"/>
  <rect x="517.84" y="441.25" width="44.68" height="116.43" rx="22" ry="22" transform="translate(1092.94 307.37) rotate(135)" fill="#005faa"/>
  <g>
    <rect x="485.37" y="442.05" width="31.46" height="38.73" rx="12" ry="12" transform="translate(-361.89 326.17) rotate(-45)" fill="#f7e6dd"/>
    <circle cx="329.47" cy="297.88" r="11.25" fill="#f7e6dd"/>
    <rect x="332.56" y="277.52" width="8.88" height="22.5" rx="4.37" ry="4.37" fill="#f7e6dd"/>
    <rect x="474.54" y="439.42" width="6.71" height="33.7" rx="3.3" ry="3.3" transform="translate(-365.05 308.25) rotate(-45)" fill="#f7e6dd"/>
    <rect x="478.56" y="431.46" width="6.71" height="33.7" rx="3.3" ry="3.3" transform="translate(-358.24 308.76) rotate(-45)" fill="#f7e6dd"/>
  </g>
  <polygon points="488.55 246.53 485.57 260.35 511.75 271.9 514.92 253.87 488.55 246.53" fill="#094d7c"/>
  <polygon points="541.39 246.53 544.37 260.35 518.19 271.9 515.02 253.87 541.39 246.53" fill="#094d7c"/>
  <rect x="450.07" y="469.34" width="131.74" height="12.99" rx="6.4" ry="6.4" fill="#333a3f"/>
  <rect x="463.52" y="468.39" width="6.43" height="16.32" rx="2.33" ry="2.33" fill="#63b6db"/>
  <rect x="491.95" y="468.39" width="6.43" height="16.32" rx="2.33" ry="2.33" fill="#63b6db"/>
  <rect x="533.24" y="468.39" width="6.43" height="16.32" rx="2.33" ry="2.33" fill="#63b6db"/>
  <rect x="567.26" y="468.39" width="6.43" height="16.32" rx="2.33" ry="2.33" fill="#63b6db"/>
  <line x1="515.11" y1="270.69" x2="515.11" y2="468.69" fill="none" stroke="#005893" stroke-miterlimit="10" stroke-width="3"/>
  <circle cx="532.2" cy="292.96" r="3.44" fill="#005faa"/>
  <circle cx="532.2" cy="292.96" r="3.44" fill="none" stroke="#005893" stroke-miterlimit="10" stroke-width="3"/>
  <circle cx="532.2" cy="339.6" r="3.44" fill="none" stroke="#005893" stroke-miterlimit="10" stroke-width="3"/>
  <circle cx="532.2" cy="383.62" r="3.44" fill="none" stroke="#005893" stroke-miterlimit="10" stroke-width="3"/>
  <circle cx="532.2" cy="426.91" r="3.44" fill="none" stroke="#005893" stroke-miterlimit="10" stroke-width="3"/>
  <circle cx="331.22" cy="328.69" r="3.44" fill="none" stroke="#005893" stroke-miterlimit="10" stroke-width="3"/>
  <path d="M728.64,648.34s0.81,9,12.64,19.92c9.08,8.41,22.33,8.25,22.33,8.25" transform="translate(-182.39 -163.31)" fill="none" stroke="#4fa7c6" stroke-linecap="round" stroke-miterlimit="10" stroke-width="2"/>
  <polyline points="570.6 509.23 569.29 496.69 552.61 496.69" fill="none" stroke="#4fa7c6" stroke-linecap="round" stroke-miterlimit="10" stroke-width="2"/>
  <rect x="503.97" y="468.6" width="23.35" height="14.47" rx="4.88" ry="4.88" fill="#e6e6e6"/>
  <path d="M708.58,275.33" transform="translate(-182.39 -163.31)" fill="#333a3f"/>
  <g>
    <rect x="867.08" y="453.15" width="31.46" height="38.73" rx="12" ry="12" transform="translate(990.54 1267.57) rotate(-135)" fill="#f7e6dd"/>
    <circle cx="689.65" cy="309.21" r="11.25" fill="#f7e6dd"/>
    <path d="M860.79,472.52" transform="translate(-182.39 -163.31)" fill="#f7e6dd"/>
    <rect x="857.34" y="446.9" width="9.37" height="27.33" rx="4.69" ry="4.69" transform="translate(-275.16 88.54) rotate(-15.78)" fill="#f7e6dd"/>
    <rect x="875.26" y="446.49" width="8.67" height="21.37" rx="4.34" ry="4.34" transform="translate(398.51 -651.37) rotate(45)" fill="#f7e6dd"/>
    <rect x="883.46" y="452.25" width="8.67" height="21.37" rx="4.34" ry="4.34" transform="translate(404.99 -655.49) rotate(45)" fill="#f7e6dd"/>
    <rect x="890.6" y="459.83" width="8.67" height="21.37" rx="4.34" ry="4.34" transform="translate(412.44 -658.31) rotate(45)" fill="#f7e6dd"/>
    <rect x="894.23" y="469.13" width="6.84" height="16.75" rx="3.42" ry="3.42" transform="translate(418.17 -658.19) rotate(45)" fill="#f7e6dd"/>
  </g>
  <path d="M987.24,203.39h36.36A33.62,33.62,0,0,1,1057.22,237v72a33.62,33.62,0,0,1-33.62,33.62h-21a49,49,0,0,1-49-49V237A33.62,33.62,0,0,1,987.24,203.39Z" fill="#f7e6dd"/>
  <rect x="1046.69" y="264.67" width="19.58" height="31.73" rx="8.89" ry="8.89" fill="#dcbfb1"/>
  <path d="M1223.93,431.89" transform="translate(-182.39 -163.31)" fill="#c1a187"/>
  <path d="M1247.06,967.84c-4.9,15.12-14.43,22.31-19.31,25.12q-1.6.71-3.21,1.53c-15.57,8-25.07,20.54-21.21,28.08s19.61,7.18,35.18-.79a55.62,55.62,0,0,0,16.13-12l2.22,4.15,19.48-5.78-2.74-37S1253.82,947,1247.06,967.84Z" transform="translate(-182.39 -163.31)" fill="#333a3f"/>
  <path d="M1220.27,455.58" transform="translate(-182.39 -163.31)" fill="#68513e"/>
  <path d="M1124.39,967.13c-6.91,14.32-17.33,20.14-22.54,22.26q-1.68.49-3.38,1.08c-16.51,5.78-27.63,16.94-24.83,24.93s18.45,9.78,35,4a55.62,55.62,0,0,0,17.61-9.67l1.64,4.42,20.08-3.08,2.31-37S1133.93,947.38,1124.39,967.13Z" transform="translate(-182.39 -163.31)" fill="#333a3f"/>
  <polygon points="942.16 578.94 920.58 821.69 970.16 821.69 1013.68 623.7 1052.61 821.69 1094.67 821.69 1080.81 576.81 942.16 578.94" fill="#63b6db"/>
  <polygon points="983.75 332.69 986.69 351.69 1034.07 351.69 1041.54 332.69 983.75 332.69" fill="#f7e6dd"/>
  <rect x="989.97" y="261.82" width="15.28" height="39.64" rx="6.93" ry="6.93" fill="#dcbfb1"/>
  <rect x="986.96" y="283.33" width="18.04" height="18.12" rx="8.18" ry="8.18" fill="#dcbfb1"/>
  <rect x="933.96" y="346.04" width="154.07" height="245.71" rx="27.65" ry="27.65" fill="#005faa"/>
  <rect x="1093.79" y="507.77" width="48.48" height="172.99" rx="22" ry="22" transform="translate(99.36 -519.71) rotate(20.67)" fill="#005faa"/>
  <rect x="959.33" y="244.77" width="25.76" height="10.25" rx="4.65" ry="4.65" fill="#a08852"/>
  <rect x="1009.89" y="244.77" width="25.76" height="10.25" rx="4.65" ry="4.65" fill="#a08852"/>
  <path d="M1209.14,470.5c0.51,3.12-5.39,6.69-13.19,8s-14.54-.21-15-3.33" transform="translate(-182.39 -163.31)" fill="#dcbfb1"/>
  <rect x="1257.48" y="499.75" width="48.48" height="172.99" rx="22" ry="22" transform="translate(-290.86 654.98) rotate(-34.06)" fill="#005faa"/>
  <rect x="1254.1" y="576.68" width="48.48" height="126.34" rx="22" ry="22" transform="translate(1735.81 -801.8) rotate(90)" fill="#005faa"/>
  <rect x="1031.24" y="588.87" width="48.48" height="126.34" rx="22" ry="22" transform="translate(1592.27 -522.19) rotate(93.72)" fill="#005faa"/>
  <g>
    <rect x="979.3" y="627.98" width="34.14" height="42.03" rx="12" ry="12" transform="translate(101.68 1437.83) rotate(-86.28)" fill="#f7e6dd"/>
    <circle cx="1004.98" cy="641.1" r="12.21" transform="translate(-355.61 659) rotate(-41.28)" fill="#f7e6dd"/>
    <rect x="999.78" y="616.08" width="9.64" height="24.41" rx="4.37" ry="4.37" transform="translate(-347.25 655.56) rotate(-41.28)" fill="#f7e6dd"/>
    <rect x="970.12" y="643.13" width="7.28" height="36.57" rx="3.3" ry="3.3" transform="translate(68.15 1426.88) rotate(-86.28)" fill="#f7e6dd"/>
    <rect x="967.7" y="633.75" width="7.28" height="36.57" rx="3.3" ry="3.3" transform="translate(75.24 1415.7) rotate(-86.28)" fill="#f7e6dd"/>
    <rect x="967.69" y="624.47" width="7.28" height="36.57" rx="3.3" ry="3.3" transform="translate(84.49 1407) rotate(-86.28)" fill="#f7e6dd"/>
    <rect x="969.66" y="615.04" width="7.28" height="36.57" rx="3.3" ry="3.3" transform="translate(95.76 1400.15) rotate(-86.28)" fill="#f7e6dd"/>
  </g>
  <polygon points="982.08 338.07 978.85 353.06 1007.26 365.6 1010.69 346.04 982.08 338.07" fill="#094d7c"/>
  <polygon points="1039.42 338.07 1042.65 353.06 1014.24 365.6 1010.8 346.04 1039.42 338.07" fill="#094d7c"/>
  <rect x="940.32" y="579.85" width="142.96" height="14.1" rx="6.4" ry="6.4" fill="#333a3f"/>
  <rect x="954.92" y="578.82" width="6.98" height="17.7" rx="2.33" ry="2.33" fill="#63b6db"/>
  <rect x="985.77" y="578.82" width="6.98" height="17.7" rx="2.33" ry="2.33" fill="#63b6db"/>
  <rect x="1030.58" y="578.82" width="6.98" height="17.7" rx="2.33" ry="2.33" fill="#63b6db"/>
  <rect x="1067.49" y="578.82" width="6.98" height="17.7" rx="2.33" ry="2.33" fill="#63b6db"/>
  <line x1="1010.11" y1="364.69" x2="1010.11" y2="579.69" fill="none" stroke="#005893" stroke-miterlimit="10" stroke-width="3"/>
  <circle cx="1029.45" cy="388.46" r="3.73" fill="#005faa"/>
  <circle cx="1029.45" cy="388.46" r="3.73" fill="none" stroke="#005893" stroke-miterlimit="10" stroke-width="3"/>
  <circle cx="1029.45" cy="439.07" r="3.73" fill="none" stroke="#005893" stroke-miterlimit="10" stroke-width="3"/>
  <circle cx="1029.45" cy="486.83" r="3.73" fill="none" stroke="#005893" stroke-miterlimit="10" stroke-width="3"/>
  <circle cx="1029.45" cy="533.81" r="3.73" fill="none" stroke="#005893" stroke-miterlimit="10" stroke-width="3"/>
  <circle cx="1028.46" cy="664.97" r="3.73" transform="translate(-365.52 680.42) rotate(-41.28)" fill="none" stroke="#005893" stroke-miterlimit="10" stroke-width="3"/>
  <path d="M1161.24,759.83s-0.89,9.88-13.92,21.94c-10,9.26-24.61,9.09-24.61,9.09" transform="translate(-182.39 -163.31)" fill="none" stroke="#4fa7c6" stroke-linecap="round" stroke-miterlimit="10" stroke-width="2"/>
  <polyline points="951.62 625.51 952.9 611.69 971.61 611.69" fill="none" stroke="#4fa7c6" stroke-linecap="round" stroke-miterlimit="10" stroke-width="2"/>
  <path d="M1225.18,759.83s0.89,9.88,13.92,21.94c10,9.26,24.61,9.09,24.61,9.09" transform="translate(-182.39 -163.31)" fill="none" stroke="#4fa7c6" stroke-linecap="round" stroke-miterlimit="10" stroke-width="2"/>
  <polyline points="1070.31 625.51 1068.74 611.69 1050.61 611.69" fill="none" stroke="#4fa7c6" stroke-linecap="round" stroke-miterlimit="10" stroke-width="2"/>
  <line x1="921.82" y1="808.05" x2="973.24" y2="808.02" fill="none" stroke="#4fa7c6" stroke-linecap="round" stroke-miterlimit="10" stroke-width="2"/>
  <line x1="1049.7" y1="807.22" x2="1093.81" y2="806.95" fill="none" stroke="#4fa7c6" stroke-linecap="round" stroke-miterlimit="10" stroke-width="2"/>
  <rect x="998.81" y="579.05" width="25.34" height="15.7" rx="4.88" ry="4.88" fill="#e6e6e6"/>
  <g>
    <rect x="1200.51" y="620.44" width="31.46" height="38.73" rx="12" ry="12" transform="translate(217.14 1581.75) rotate(-81.28)" fill="#f7e6dd"/>
    <circle cx="1224.92" cy="633.44" r="11.25" transform="translate(-319.73 684.43) rotate(-36.28)" fill="#f7e6dd"/>
    <path d="M1234,626.78" transform="translate(-182.39 -163.31)" fill="#f7e6dd"/>
    <rect x="1221.23" y="604.2" width="9.37" height="27.33" rx="4.69" ry="4.69" transform="translate(2408.2 603.97) rotate(159.5)" fill="#f7e6dd"/>
    <rect x="1205.41" y="614.85" width="8.67" height="21.37" rx="4.34" ry="4.34" transform="translate(1828.99 -638.77) rotate(98.72)" fill="#f7e6dd"/>
    <rect x="1202.21" y="624.36" width="8.67" height="21.37" rx="4.34" ry="4.34" transform="translate(1834.69 -624.66) rotate(98.72)" fill="#f7e6dd"/>
    <rect x="1200.94" y="634.69" width="8.67" height="21.37" rx="4.34" ry="4.34" transform="translate(1843.44 -611.51) rotate(98.72)" fill="#f7e6dd"/>
    <rect x="1203.8" y="644.24" width="6.84" height="16.75" rx="3.42" ry="3.42" transform="matrix(-0.15, 0.99, -0.99, -0.15, 1852.83, -605.09)" fill="#f7e6dd"/>
  </g>
  <g>
    <rect x="725.24" y="481.21" width="150" height="12.12" rx="6.06" ry="6.06" fill="#9ab3c1"/>
    <rect x="721.09" y="392.27" width="130" height="93.33" rx="12" ry="12" fill="#b8cedd"/>
    <circle cx="784.19" cy="438.93" r="12" fill="#e2ecf2"/>
  </g>
  <path d="M1231.52,357.16l-32,.25A21.84,21.84,0,0,0,1166,345a31.88,31.88,0,1,0-33.44,49,28.39,28.39,0,0,0,12.92,3h66.85s7.63-.36,8.59,18c0.17,3.31.87,10.76,1.37,15.88,0.06,0.58.11,1,.16,1.51a4,4,0,0,0,4.14,3.61H1234a7.69,7.69,0,0,0,8-7.54V367.59A10.48,10.48,0,0,0,1231.52,357.16Z" transform="translate(-182.39 -163.31)" fill="#efd643"/>
  <circle cx="971.61" cy="270.69" r="7" fill="#333a3f"/>
  <circle cx="1023.77" cy="269.9" r="7" fill="#333a3f"/>
  <rect x="76.33" y="100.72" width="73.5" height="93.1" rx="12" ry="12" fill="#81c3ef"/>
  <g>
    <rect x="520.9" y="429.86" width="20.27" height="581.08" rx="10.14" ry="10.14" transform="translate(1034.09 1132.54) rotate(166.41)" fill="#839094"/>
    <rect x="653.33" y="429.86" width="20.27" height="581.08" rx="10.14" ry="10.14" transform="translate(1295.25 1101.42) rotate(166.41)" fill="#839094"/>
    <rect x="374.94" y="702.8" width="151.35" height="20.27" rx="10.14" ry="10.14" fill="#596366"/>
    <rect x="359.08" y="631.88" width="151.35" height="20.27" rx="10.14" ry="10.14" fill="#596366"/>
    <rect x="340.92" y="562.36" width="151.35" height="20.27" rx="10.14" ry="10.14" fill="#596366"/>
    <rect x="323.59" y="489.99" width="151.35" height="20.27" rx="10.14" ry="10.14" fill="#596366"/>
    <rect x="304.73" y="419.07" width="151.35" height="20.27" rx="10.14" ry="10.14" fill="#596366"/>
    <rect x="289.57" y="349.55" width="151.35" height="20.27" rx="10.14" ry="10.14" fill="#596366"/>
    <rect x="273.4" y="275.12" width="151.35" height="20.27" rx="10.14" ry="10.14" fill="#596366"/>
    <rect x="395.27" y="773.31" width="151.35" height="20.27" rx="10.14" ry="10.14" fill="#596366"/>
    <rect x="387.64" y="429.86" width="20.27" height="581.08" rx="10.14" ry="10.14" transform="translate(-1.97 -236.61) rotate(13.59)" fill="#6d797c"/>
    <rect x="520.9" y="429.86" width="20.27" height="581.08" rx="10.14" ry="10.14" transform="translate(1.76 -267.92) rotate(13.59)" fill="#6d797c"/>
  </g>
  <rect x="384.77" y="284.93" width="29.49" height="121.94" rx="12" ry="12" transform="translate(179.21 -344.49) rotate(45)" fill="#4d90c1"/>
  <g>
    <rect x="160.86" y="65.47" width="166" height="101.49" rx="12" ry="12" fill="#81c3ef"/>
    <rect x="243.86" y="65.47" width="83" height="101.49" rx="12" ry="12" fill="#6cb2d8"/>
    <rect x="274.53" y="97.22" width="58.67" height="38" rx="12" ry="12" fill="#4d90c1"/>
    <rect x="303.19" y="102.22" width="24" height="28" rx="12" ry="12" fill="#26526d"/>
    <circle cx="260.19" cy="83.63" r="4.67" fill="#bc4a4a"/>
    <rect x="170.53" y="124.63" width="7.33" height="34" rx="3.67" ry="3.67" fill="#4d90c1"/>
    <rect x="185.86" y="124.63" width="7.33" height="34" rx="3.67" ry="3.67" fill="#4d90c1"/>
    <rect x="201.19" y="124.63" width="7.33" height="34" rx="3.67" ry="3.67" fill="#4d90c1"/>
  </g>
  <rect x="316.84" y="284.93" width="29.49" height="121.94" rx="12" ry="12" transform="translate(628.24 192.72) rotate(135)" fill="#4d90c1"/>
  <circle cx="89.71" cy="114.22" r="5.5" fill="#61aed8"/>
  <circle cx="137.21" cy="114.22" r="5.5" fill="#61aed8"/>
  <circle cx="89.71" cy="182.59" r="5.5" fill="#61aed8"/>
  <circle cx="137.21" cy="114.22" r="5.5" fill="#61aed8"/>
  <path d="M720.31,890.84c-6.37,13.19-16,18.56-20.77,20.51q-1.55.45-3.12,1c-15.22,5.33-25.46,15.62-22.88,23s17,9,32.22,3.68A51.25,51.25,0,0,0,722,930.1l1.51,4.07L742,931.33l2.13-34.14S729.1,872.63,720.31,890.84Z" transform="translate(-182.39 -163.31)" fill="#333a3f"/>
  <path d="M582.3,767.35c-4,14.09-12.56,21-17,23.76q-1.45.71-2.9,1.51c-14.08,7.85-22.42,19.74-18.62,26.55s18.29,6,32.37-1.88a51.25,51.25,0,0,0,14.47-11.55l2.18,3.75,17.75-6-3.74-34S587.85,747.92,582.3,767.35Z" transform="translate(-182.39 -163.31)" fill="#333a3f"/>
  <polyline points="426.61 616.69 426.61 591.69 381.52 591.93 388.48 623.49 426.6 625.69" fill="#63b6db"/>
  <polygon points="512.85 731.64 523.37 775.7 543.77 773.31 531.63 723.07 512.85 731.64" fill="#839094"/>
  <polygon points="533.61 735.27 561.92 738.69 567.53 720.81 533.61 705.69 533.61 735.27" fill="#63b6db"/>
  <rect x="459.82" y="431.17" width="7.33" height="21.4" rx="3.67" ry="3.67" transform="translate(265.81 -361.62) rotate(45)" fill="#f7e6dd"/>
  <rect x="470.77" y="430.12" width="7.33" height="21.4" rx="3.67" ry="3.67" transform="translate(268.28 -369.67) rotate(45)" fill="#f7e6dd"/>
  <rect x="478.06" y="432.21" width="7.33" height="21.4" rx="3.67" ry="3.67" transform="translate(271.89 -374.21) rotate(45)" fill="#f7e6dd"/>
  <rect x="486.26" y="433.54" width="7.33" height="21.4" rx="3.67" ry="3.67" transform="translate(275.23 -379.62) rotate(45)" fill="#f7e6dd"/>
</svg>
