<svg data-name="Layer 1" xmlns="http://www.w3.org/2000/svg" viewBox="0 0 437.13 103.97" width="445" height="98">
  <defs>
    <style>
      .cls-1 {
        fill: #0059a9;
      }

      .cls-1, .cls-2, .cls-3 {
        fill-rule: evenodd;
      }

      .cls-2 {
        fill: #0080c7;
      }

      .cls-3 {
        fill: #fff;
      }

      .cls-4 {
        fill: #231f20;
      }
    </style>
  </defs>
  <title>IT-outsourcing</title>
  <polygon class="cls-1" points="47.83 0 25.92 12.66 0 27.62 0 39.15 47.83 66.76 47.83 53 7.75 29.85 29.41 17.35 47.83 6.69 47.83 0"/>
  <polygon class="cls-1" points="47.83 18.77 25.92 31.42 0 46.4 0 57.91 47.83 85.53 47.83 71.76 7.75 48.62 29.41 36.11 47.83 25.46 47.83 18.77"/>
  <polygon class="cls-2" points="47.83 0 47.83 6.69 66.25 17.35 87.92 29.85 47.83 53 47.83 66.76 95.67 39.15 95.67 27.62 69.75 12.66 47.83 0"/>
  <polygon class="cls-2" points="47.83 18.77 47.83 25.46 66.25 36.11 87.92 48.62 47.83 71.76 47.83 85.53 95.67 57.91 95.67 46.4 69.75 31.42 47.83 18.77"/>
  <path class="cls-1" d="M98,151.11l-10.41,6v12.93l47.83,27.62V183.91L95.35,160.77l9.39-5.44L98,151.11h0Z" transform="translate(-87.6 -93.71)"/>
  <path class="cls-2" d="M165.48,155l10,5.81-40.09,23.14v13.77l47.83-27.62V157.12L172.66,151c-1.94,1.09-4.42,2.44-7.18,4h0Z" transform="translate(-87.6 -93.71)"/>
  <polygon class="cls-3" points="57.09 56.17 90.81 36.49 90.81 34.6 57.09 54.29 57.09 56.17"/>
  <path class="cls-3" d="M140.84,149.12a1.09,1.09,0,0,1,1.67,1,2.78,2.78,0,0,1-1.67,2.34,1.1,1.1,0,0,1-1.67-1,2.75,2.75,0,0,1,1.67-2.34h0Z" transform="translate(-87.6 -93.71)"/>
  <polygon class="cls-3" points="57.09 75.02 90.81 55.35 90.81 53.46 57.09 73.13 57.09 75.02"/>
  <polygon class="cls-3" points="57.09 92.99 90.81 73.32 90.81 71.44 57.09 91.12 57.09 92.99"/>
  <path class="cls-3" d="M140.84,168a1.1,1.1,0,0,1,1.67,1,2.78,2.78,0,0,1-1.67,2.34,1.08,1.08,0,0,1-1.67-1,2.77,2.77,0,0,1,1.67-2.36h0Z" transform="translate(-87.6 -93.71)"/>
  <path class="cls-3" d="M141.12,185.95a1.1,1.1,0,0,1,1.67,1,2.78,2.78,0,0,1-1.67,2.34,1.09,1.09,0,0,1-1.67-1,2.75,2.75,0,0,1,1.67-2.34h0Z" transform="translate(-87.6 -93.71)"/>
  <g>
    <path class="cls-4" d="M218.59,135.29v25.2h-5.4v-25.2h5.4Z" transform="translate(-87.6 -93.71)"/>
    <path class="cls-4" d="M242.6,135.29v4.86h-7.74v20.34H229.5V140.15h-7.74v-4.86H242.6Z" transform="translate(-87.6 -93.71)"/>
    <path class="cls-4" d="M256.11,149.61v4.21H242.72v-4.21h13.39Z" transform="translate(-87.6 -93.71)"/>
    <path class="cls-4" d="M272.77,134.78c8.93,0,13.39,6.26,13.39,13.1S281.7,161,272.77,161s-13.39-6.26-13.39-13.1S263.85,134.78,272.77,134.78Zm0,5c-5.26,0-7.88,3.67-7.88,8.1s2.63,8.1,7.88,8.1,7.85-3.67,7.85-8.1S278,139.79,272.77,139.79Z" transform="translate(-87.6 -93.71)"/>
    <path class="cls-4" d="M312,135.29V151c0,7.45-5.47,10-11,10s-11.05-2.52-11.05-10V135.29h5.4v15.44c0,4,2.3,5.4,5.65,5.4s5.69-1.4,5.69-5.4V135.29H312Z" transform="translate(-87.6 -93.71)"/>
    <path class="cls-4" d="M335.77,135.29v4.86H328v20.34h-5.36V140.15h-7.74v-4.86h20.84Z" transform="translate(-87.6 -93.71)"/>
    <path class="cls-4" d="M347,134.78a17.23,17.23,0,0,1,8.17,1.94v5a13.32,13.32,0,0,0-7.78-2.23c-2.74,0-4.1.79-4.1,2.34,0,4.36,13.79,2.74,13.79,11.7,0,5.65-4.54,7.42-9.83,7.42a19.32,19.32,0,0,1-9.32-2.27v-5.15a16.13,16.13,0,0,0,8.93,2.66c2.92,0,4.71-.61,4.71-2.41,0-4.72-13.79-3-13.79-11.88C337.83,137.09,342.07,134.78,347,134.78Z" transform="translate(-87.6 -93.71)"/>
    <path class="cls-4" d="M372.74,134.78c8.93,0,13.39,6.26,13.39,13.1S381.67,161,372.74,161s-13.39-6.26-13.39-13.1S363.82,134.78,372.74,134.78Zm0,5c-5.25,0-7.88,3.67-7.88,8.1s2.63,8.1,7.88,8.1,7.85-3.67,7.85-8.1S378,139.79,372.74,139.79Z" transform="translate(-87.6 -93.71)"/>
    <path class="cls-4" d="M412,135.29V151c0,7.45-5.47,10-11,10s-11.05-2.52-11.05-10V135.29h5.4v15.44c0,4,2.3,5.4,5.65,5.4s5.69-1.4,5.69-5.4V135.29H412Z" transform="translate(-87.6 -93.71)"/>
    <path class="cls-4" d="M417.13,160.49v-25.2H427.5c4.9,0,10,1.84,10,8.21A7.28,7.28,0,0,1,432,151l7.52,9.5H433.3l-6.8-8.82h-4v8.82h-5.4Zm5.4-13.32h5.22c2.27,0,4.25-1,4.25-3.56s-2-3.56-4.25-3.56h-5.22v7.13Z" transform="translate(-87.6 -93.71)"/>
    <path class="cls-4" d="M454.32,134.78a16.24,16.24,0,0,1,7.2,1.62v5.15a10.5,10.5,0,0,0-6.3-2c-4.43,0-8.89,2.52-8.89,8.6,0,5.54,4.5,8,8.89,8a9.72,9.72,0,0,0,6.48-2.09v5.29a16.75,16.75,0,0,1-7.31,1.62c-6.73,0-13.61-4-13.61-12.81C440.82,139,447.59,134.78,454.32,134.78Z" transform="translate(-87.6 -93.71)"/>
    <path class="cls-4" d="M471.13,135.29v25.2h-5.4v-25.2h5.4Z" transform="translate(-87.6 -93.71)"/>
    <path class="cls-4" d="M476.53,160.49v-25.2h5.08l11.73,16.45c-0.07-1-.11-2.3-0.11-3.46v-13h5.4v25.2h-5.08L481.83,144c0.07,1,.11,2.3.11,3.46v13h-5.4Z" transform="translate(-87.6 -93.71)"/>
    <path class="cls-4" d="M516.38,134.78a19.22,19.22,0,0,1,7.74,1.62v5.15a13,13,0,0,0-7-1.94c-4.5,0-8.93,2.38-8.93,8.28,0,6.7,4.93,8.39,8.64,8.39a7.82,7.82,0,0,0,2.77-.47v-9h5.15V159.3a21.2,21.2,0,0,1-8.21,1.69c-7.06,0-13.86-3.85-13.86-13.1S509.47,134.78,516.38,134.78Z" transform="translate(-87.6 -93.71)"/>
  </g>
</svg>
